<svg id="Layer_1" data-name="Layer 1" xmlns="http://www.w3.org/2000/svg" xmlns:xlink="http://www.w3.org/1999/xlink" viewBox="0 0 500 440.79"><defs><clipPath id="clip-path"><rect id="SVGID" x="1.2" y="-56.8" width="497.59" height="497.59" fill="none"/></clipPath><linearGradient id="_ÂÁ_Ï_ÌÌ_È_ËÂÌÚ_62" x1="212.37" y1="170.17" x2="214.9" y2="174.56" gradientUnits="userSpaceOnUse"><stop offset="0" stop-color="#f4e2d4"/><stop offset="0.38" stop-color="#f2e3dd"/><stop offset="1" stop-color="#efe4e8"/></linearGradient><linearGradient id="_ÂÁ_Ï_ÌÌ_È_ËÂÌÚ_62-2" x1="220.4" y1="172" x2="222.93" y2="176.39" xlink:href="#_ÂÁ_Ï_ÌÌ_È_ËÂÌÚ_62"/><linearGradient id="_ÂÁ_Ï_ÌÌ_È_ËÂÌÚ_62-3" x1="228.71" y1="173.97" x2="231.25" y2="178.37" xlink:href="#_ÂÁ_Ï_ÌÌ_È_ËÂÌÚ_62"/></defs><g clip-path="url(#clip-path)"><path d="M178.5,194.69c-2.55,4.32-1.19,10.25-.31,14.9s1.68,9.73,2.81,14.28c1.18,4.73,4.13,8.64,6.27,13.06,1.93,4,4.51,9,7.55,12.31,5.9,6.32,12.06,12.64,17.2,19.76,5.79,8,7.42,17.57,9.13,27.27.9,5.1.64,10.43,1.82,15.4,1.24,5.17,1.35,10.48,2.07,15.87.76,5.62,2.52,10.9,3,16.79.18,2-.11,7.92,1.65,9.13,1.47,1,7.15-.39,8.87-.54,5.15-.44,10.84-.31,15.73-2A117.2,117.2,0,0,0,267,345.34c4.19-2,8.11-3.32,12.18-5.72,3-1.8,5.44-1.54,3.73-5.14-2.75-5.81-6.4-11.54-9.09-17.62-1.56-3.52-2.76-7.25-4.48-10.77-1.81-3.72-2.48-7.29-3.89-11.12-3.19-8.64-6.45-17.06-8.49-26.08a83.91,83.91,0,0,1-1.35-12c-.39-5.15,1.23-9.77,1.25-14.74s.67-10,1.16-15.08c.27-2.91.94-7-.52-9.72-2.51-4.76-7.86-8.56-11.79-12.15-11.09-10.12-24.58-14.34-39.49-13.6-6.69.34-13.36,1.22-20,1.49A15.23,15.23,0,0,0,178.5,194.69Z" fill="#f4b796"/><rect x="168.69" y="156.07" width="101.51" height="54.4" rx="10.38" transform="translate(-11.15 352.3) rotate(-76.11)" fill="#362e56"/><rect x="169.72" y="152.22" width="101.51" height="54.4" rx="10.38" transform="translate(-6.63 350.38) rotate(-76.11)" fill="#007be1"/><rect x="197.57" y="138.75" width="46.61" height="78.05" transform="translate(49.13 -47.83) rotate(13.89)" fill="#fff"/><path d="M233.14,128.81h.11a.65.65,0,0,1,.65.65v12.79a.64.64,0,0,1-.64.64h-.11a.65.65,0,0,1-.65-.65V129.46A.65.65,0,0,1,233.14,128.81Z" transform="translate(45.33 329.61) rotate(-76.11)" fill="#362e56"/><path d="M256.67,209.91a97.56,97.56,0,0,1-4.81-17.74c-.76-4.42-.49-9.1-1.44-13.45-.14-.67,0-1.88-1.42-2.28-3-1-6.56,2.26-8,4.7-1.54,2.67-1.58,6.38-1.4,9.38a61,61,0,0,0,1.22,10.5c.88,3.7.55,6.72-.08,10.39-.85,4.94-2.24,10.76-.86,15.78,1.73,6.32,10.09,12.12,15.59,6.86,2.67-2.56,2.93-6.69,3-10.07C258.52,219,258.48,214.68,256.67,209.91Z" fill="#f4b796"/><path d="M180.1,213.2c-.22-2.72-2-5.22-2.58-7.83s-1.87-5.39-1.82-8.31,2.24-4.26,4.23-6.05.78-5.56.56-8.11a5.26,5.26,0,0,1,.88-4c.87-1.19,2.75-2,3.16-3.23s-.45-3.11-.62-4.38a5.83,5.83,0,0,1,1.33-4.39,65.69,65.69,0,0,0,5.36-9.3c1.05-2.33,1.84-7.12,4.93-7.38,3.5-.29,4.77,4.57,4.74,7.34,0,3.23-1.7,6.06-3.11,8.79a13.85,13.85,0,0,0-.71,1.63c2-1.53,6.45-5.32,8.64-1.84,2.89,4.59-1.9,10.4-5.14,13.15-1.84,1.57-4.15,4.23-6.36,5.26a2.55,2.55,0,0,1,2.32.33c1.52,1.08,1.4,3.22,1.27,4.12-.44,3.13-3.35,5.36-5.88,6.78-3.28,1.84-5.07,3.49-6.07,7.28s-1.84,7.94-4.72,10.6C180.34,213.21,180.28,212.73,180.1,213.2Z" fill="#f4b796"/><path d="M196,151.87c-.1-1.06-.52-1.94-1.88-1.65-1.15.48-3,5.41-3.19,6.51a15.13,15.13,0,0,1,2.12.64c1,.41,1.37.23,1.92-.67A8,8,0,0,0,196,151.87Z" fill="#f4e2d4"/><path d="M201.67,164.64a12.06,12.06,0,0,0-3.29,1.88c-.93.66-1.8,1.43-2.74,2,.86,0,1.35.88,1.86,1.49a2,2,0,0,0,2.52.65c1.75-.56,4.16-2.51,4-4.49C203.89,164.64,202.54,164.56,201.67,164.64Z" fill="#f4e2d4"/><path d="M191.68,185.69c-1.14.54-1.83,1-1.91,2.26-.06,1.08,0,2.77,1.54,2.3a11.26,11.26,0,0,0,2.8-1.49,3,3,0,0,0,1.06-2.94,1.08,1.08,0,0,0-1.21-1A7.88,7.88,0,0,0,191.68,185.69Z" fill="#f4e2d4"/><path d="M250.21,177.36c-3.08.95-3.6,5.44-3.05,8.39.08.46.25,1.41.7,1.66s3.42-.13,3.45-.44C251.4,186.12,250.76,177.1,250.21,177.36Z" fill="#f4e2d4"/><path d="M225.92,350.54l1.44,2.09c.89,4.55,3,68,5.6,88.16h99.18c-13-32.49-42.85-94.77-43.95-97.35s-1.69-5.62-3.48-8.09c-1.16-1.6-1.9-1.22-3.59-.31a54.4,54.4,0,0,1-12.19,4.56c-2.38.62-4.8.78-7.19,1.33-2.74.63-5.43,1.55-8.16,2.25-6.08,1.53-12.14,3.24-18.29,4.46-3.57.72-6.41,1.14-9.64,2.78C225.54,350.7,225.76,350.48,225.92,350.54Z" fill="#ffa669"/><path d="M234.89,358.63c.3,1.44,7.11,63,9.44,82.16h2.57c-2.36-19.21-9.24-81.21-9.54-82.67A73,73,0,0,1,236,350l0-.2-2.51.22,0,.21A77.19,77.19,0,0,0,234.89,358.63Z" fill="#0082fe"/><path d="M262.19,440.79h2.63c-4.27-19.67-17-83.66-17.37-85a37,37,0,0,1-2-9.67l-2.52,0A38.65,38.65,0,0,0,245,356.5C245.46,357.88,258,421.24,262.19,440.79Z" fill="#0082fe"/><path d="M256,352.63c.55,1.74,1.11,3.55,1.77,5.3,2.45,6.47,17.71,64.49,22.63,82.86h2.67c-5-18.5-20.47-77.22-22.94-83.75-.64-1.68-1.19-3.45-1.72-5.16-.42-1.32-.84-2.68-1.31-4a10.12,10.12,0,0,1-.77-5.09l-.68-.16c-.64.18-1.27.36-1.91.52a13.94,13.94,0,0,0,1,5.56C255.18,350,255.6,351.33,256,352.63Z" fill="#0082fe"/><path d="M265,344.87l1.15,2.91c.72,1.84,25.11,74.78,31.64,93h3c-7.14-20.66-31.64-92.19-32.33-93.94l-1.15-2.91c-.29-.72-.62-1.42-.94-2.09s-.51-1.08-.74-1.61c-.85.13-1.7.26-2.54.41.3.79.65,1.54,1,2.28S264.74,344.22,265,344.87Z" fill="#0082fe"/><path d="M277,343.16l.81,1.49c1.11,2,30.49,76.06,38.56,96.14H319c-7.29-18.09-37.9-95.23-39-97.35l-.81-1.48c-.42-.78-.82-1.63-1.23-2.52s-.75-1.6-1.15-2.37c-.79.31-1.59.6-2.39.88.44.82.85,1.69,1.25,2.55S276.49,342.31,277,343.16Z" fill="#0082fe"/><path d="M285.53,334.34c-.65-2.12-2.34-4.36-3.36-6.39s-2.06-4-3.13-6c-.84-1.6-1.72-3.09-2.57-4.68-1.13-2.08-1.62-2.58-4.07-1.51a154,154,0,0,1-21.55,7.31c-6.93,1.89-14.24,3.87-21.38,4.57l-3.92.34c-2.64,0-2.21,1.84-2,4s.21,4.36.41,6.6c.36,4.15.35,8.44,1.08,12.55.36,2,.64,3.5,3,3.69s4.9-.53,7.12-.93a113.72,113.72,0,0,0,17.64-4.64c7.85-2.75,15.61-5,23.2-8.41C278.44,339.71,286.75,338.29,285.53,334.34Z" fill="#007be1"/><path d="M264.79,135.9s11.17-9.74,12.07-11.07c1.1-1.64-5.92-20.18-2.1-27.21s38.16-14,44.38-11c6.92,3.34,15.43,41,10.36,46.61-4.52,5-35.06,11.15-41.36,9.7s-5.71-5.89-7.42-8.21C279.4,132.91,264.79,135.9,264.79,135.9Z" fill="#004472"/><path d="M424.17,240.07a6,6,0,0,1-4.2-7.39q1.69-5.06,3.87-9.92a57.57,57.57,0,0,1,9.58-15.14,38.06,38.06,0,0,1,4.21-4,4.09,4.09,0,0,0-.35-1.49c-1.06-2.28-2.5-3.44-3-5.39-.26-1.11.32-2.4.24-3.53a13.56,13.56,0,0,0-1-4.86c-.91-2.27-1.89-4.06-4.18-4.44s-2.64,1-2.9-1c-.3-2.31,1.74-13.89.56-15.94-2.8-4.82-8.09-.55-9.57,3.14-2.7,6.78-4.59,14.45-6.45,21.63-3.48,13.42-13.52,23.17-24.7,30.79-1.95,1.33-7.24,5.34-9.59,3-1.6-1.57-1.16-5.26-1-7.23.36-5.05,2-12.47.46-17.08-3.76,1.73-7.42,2.28-11,4.54-3.09,1.94-5.45,3.89-7,7.18-2.78,5.91-6.08,13.51-6.41,20.29-.16,3.38.7,6.53.81,9.86.13,4-.27,8,.11,12.05.8,8.4.9,16.69,1,25.12.06,7.15-1.87,14.55-3.88,21.41-1.47,5.05-5.1,8.48-.55,12.57s11,5.75,16.67,7.31a98.67,98.67,0,0,0,15.39,3.17c1.86.2,5.09,1,6.62-.05s1.9-4.35,2.15-6c1.32-8.57,2.89-40.93,10.07-49.71,2-2.48,11.21-12.66,13.21-15.07,3.83-4.62,7.82-9.1,11.72-13.66A8.11,8.11,0,0,1,424.17,240.07Z" fill="#acdeff"/><path d="M346.49,300.93h.45l.44-.41C347,300.67,346.85,300.9,346.49,300.93Z" fill="#362e56"/><path d="M346.49,300.93h0Z" fill="#362e56"/><path d="M383.62,440.79c3.48-30.61,12-117.91,10.54-138.67-1.8-.33-18.22-.55-24.22-2.4-8.34-2.57-13.78-4.72-20.16-9.37,0,0-10.27,20.42-11.94,23.43-13.92,25.08-47.31,91.65-58.18,127Z" fill="#007be1"/><path d="M394.16,302.12c-11.55-1.72-25.38-5.25-28.39-6.36-2.79-1-13.34-5.45-15.68-6.74-2.37,1.78-9.76,17.12-9.88,19,11.51,10.76,45.71,26.36,47.42,25.75C388.93,333.33,393.88,306,394.16,302.12Z" fill="#004472"/><path d="M388.53,309c-.71-1.68-4.68-2.62-6-1.93a5.42,5.42,0,0,0-2.67,4.76c.08,3.52,5.09,5.89,7.69,3.2C389,313.53,389.72,311.83,388.53,309Z" fill="#0082fe"/><path d="M385.65,311.27a9,9,0,0,0-1.54-2c-.26-.22-1,.08-1.05.44s.42.49.58.74a20.62,20.62,0,0,1,1.33,2.19c.13.26.06.69.33.86a.55.55,0,0,0,.81-.3A3.25,3.25,0,0,0,385.65,311.27Z" fill="#362e56"/><path d="M185.12,333.84a52.39,52.39,0,0,0-6.93-10.43A54.89,54.89,0,0,1,171,312.7c-1.56-2.93-3.75-6.06-4.41-9.28-.76-3.72-2-7.53-2.94-11.26-1.68-6.73-3.29-13.33-4.38-20.36-1-6.24-2.5-12.93-6.24-18.45-1.73-2.56-3.17-5.31-4.87-7.84s-2.92-5.51-4.51-8.06c-.09-1.07-.13-.63-.24-.2-3.4-.3-6.58,1.28-9.7,2.5-9.78,3.85-18.29,10.4-26.92,16.23-4.84,3.27-11.29,7.92-14.09,13.11a7.29,7.29,0,0,0-.27,5.86c.66,1.91,2,3.47,2.75,5.46a79.92,79.92,0,0,0,12.13,21.29c4,4.82,8.89,7.82,14.52,10,3.71,1.46,7.43,3.85,9.44,7.45,4,7.23,6.18,15.17,9.33,22.76,1.36,3.26,2.53,6.6,3.63,9.9.51,1.52.38,4.28,1.47,5.47,1.39,1.53,3.46.54,5.16,0,2.76-.87,4.88-2.32,7.41-3.73,4-2.25,8.65-3.62,12.79-5.83C175.52,345.38,188.36,340.18,185.12,333.84Z" fill="#a8503b"/><path d="M137.27,364.28c14.19,42.06,27.37,66.32,33.32,76.51H283.21c-13.11-16.6-47.68-63.31-94-108.87-2.74-2.7-4.83-6.47-8.4-8.72a23.15,23.15,0,0,1-7.73,8.43c-2.24,1.42-4,3.46-6.19,5s-4.08,2.88-6.21,4.27a64.65,64.65,0,0,1-19,8.25,28.86,28.86,0,0,0-5.66,2.19c-.79.4-3.5,1-4,1.77-.53.89,1.48,3.36,2,4.4A47.43,47.43,0,0,1,137.27,364.28Z" fill="#004472"/><path d="M100.84,211.31a21,21,0,0,0-3.31-3.61c-1-1-1.92-2.47-3.21-3-3.63-1.62-5.65,1.5-5.55,4.56s1.49,5.55,3.3,8.09c0-.12,0-.24,0-.43,1.84,4.8,5.43,4.68,8.53,2.69C104,217.37,102.62,214.28,100.84,211.31Z" fill="#a8503b"/><path d="M92.07,217.3a.28.28,0,0,0,.11.17Z" fill="#f4b796"/><path d="M100.76,230.57c-.64-2.64-1.93-4.8-4.66-5.4a19.49,19.49,0,0,0-4.76-.2,30.58,30.58,0,0,0-4.62.64c-1.62.3-4.18.82-4.76,1.71.12,3.07.86,5.19,1.19,7.78a36.18,36.18,0,0,1-.12,7.13c-.23,3.39-.38,6.8-.78,10.17-.45,3.82-2,10.56,1.93,13,3,1.84,5.3,0,7.51-2,1.7-1.56,2.52-3.87,3.43-6a53.76,53.76,0,0,0,3.12-9c.82-3.3,2.15-6.19,2.38-9.63C100.8,236.13,101.38,233.17,100.76,230.57Z" fill="#893c1e"/><rect x="65.78" y="202.72" width="104.68" height="56.1" rx="10.38" transform="translate(-131.98 299.01) rotate(-78.16)" fill="#362e56"/><rect x="66.7" y="198.71" width="104.68" height="56.1" rx="10.38" transform="translate(-127.33 296.72) rotate(-78.16)" fill="#007be1"/><rect x="95.36" y="184.81" width="48.07" height="80.49" transform="translate(48.73 -19.71) rotate(11.84)" fill="#fff"/><rect x="129.82" y="174.13" width="1.44" height="14.52" rx="0.67" transform="translate(-73.78 271.92) rotate(-78.16)" fill="#362e56"/><path d="M95.23,231.73A10,10,0,0,0,90,227.94a40.64,40.64,0,0,0-6.09-1.41c-1.78-.3-3.49,2.09-3.82,3.49-.39,1.64-.7,3.92,0,5.4.46.9,1.59,1.1,2.06,1.93-.59.45-1.29.49-1.92,1a8.18,8.18,0,0,0-1.46,1.48,7.88,7.88,0,0,0-1.48,3.94,7,7,0,0,0,.78,4.4A9.52,9.52,0,0,1,79,250c.21.94-.13,1.11-.8,1.84-1.42,1.52-2.69,2.88-3,5a7.57,7.57,0,0,0,1.28,5.24c1.06,1.66,2.08,3,3.87,3.73,1.48.58,3.39,1.17,4.79.21s1.59-3.59,1.52-5.22c-.11-2.17-1.2-3.5-1.88-5.43,1.28.66,1.94,1.44,3.55,1.07a5.78,5.78,0,0,0,3.09-2.36c1.73-2.92.29-6.67-1.26-9.26a23.34,23.34,0,0,0-2.82-3.91c1,0,1.92.82,2.88,1a5.77,5.77,0,0,0,3.11-.23,5.21,5.21,0,0,0,3.48-4.62A9.18,9.18,0,0,0,95.23,231.73Z" fill="#a8503b"/><path d="M156.11,358.35c7.84-3.28,14.57-9.19,21.24-14.35,2.61-2,5.53-3.52,8-5.73a23.31,23.31,0,0,0,3.92-4q.34-.49.75-1c-.28-.46-.57-.92-.84-1.4a25.55,25.55,0,0,0-1.82-2.7c-2.85,6.27-9.21,10.47-14.88,14.48-3.69,2.62-7,5.44-11,7.54-4.76,2.49-9.79,5.17-15,6.57-3.29.88-6.73,1.14-10,2.1l-1.06.33c.5,1.07,1,2.14,1.45,3.22,2.2-.67,4.45-1.17,6.67-1.73C147.79,360.67,152.12,360,156.11,358.35Z" fill="#ffce00"/><path d="M92,232.94a9.69,9.69,0,0,0-2-1.35c-.81-.29-1.3.18-1.86.69a6.46,6.46,0,0,0-1.51,2.13c-.19.42-.65,2-.15,2.27.13,1,1,1.41,1.64,1.72a12.13,12.13,0,0,0,2.3,1c1.58.41,2.91-1.39,3.28-2.72C94,235.11,93.2,233.87,92,232.94Z" fill="#ef9178"/><path d="M85.31,246.49c-1,.78-2.8,2.59-2.34,4a5.65,5.65,0,0,0,2.68,3.37,2.71,2.71,0,0,0,3.19-1.52,3.76,3.76,0,0,0-.27-4C87.83,247.18,86.71,245.36,85.31,246.49Z" fill="#ef9178"/><path d="M82.25,258.05c-.52-.52-1-.25-1.49.1-1,.63-2.08,1.4-2.17,2.64a4.09,4.09,0,0,0,.89,2,1.82,1.82,0,0,0,1.42.8,2.25,2.25,0,0,0,2.41-1.07c.51-.87.08-2.09-.23-3A4.35,4.35,0,0,0,82.25,258.05Z" fill="#ef9178"/></g><path d="M314.78,97.17c.25.78,3.27,15,4.42,20a2.67,2.67,0,0,1-.72,2.92c-3.15,2.53-6.86,3.72-10.74,4.54l-.68.16c-.07-.27-.15-.53-.21-.81q-1.87-8.35-3.76-16.72a1.67,1.67,0,0,0-.6-1.13,6,6,0,0,0-2.6-1.22c-.69-.08-1.36-.3-2.05-.39-.46-.07-.42-.25-.2-.54h.28c.07.13.15.23.29,0l.41-.07q.11.09.18.06l1.32-.28a2.51,2.51,0,0,0,1.79-.39l3.68-.82c.3.11.57.15.65-.24l.24-.12a.85.85,0,0,0,1.09-.38c.62,0,1-.5,1.56-.66a8.67,8.67,0,0,0,5.19-3.6A2,2,0,0,1,314.78,97.17Z" fill="#dbf2ff"/><path d="M297.63,104c-.21.29-.25.47.21.54.69.09,1.36.31,2.05.39a6,6,0,0,1,2.6,1.22,1.67,1.67,0,0,1,.6,1.13q1.88,8.37,3.76,16.72c.06.28.14.54.21.81-.09,1,.43,2,.5,3.06A6.46,6.46,0,0,1,306,127a11.84,11.84,0,0,0-5.78-1.25,13.68,13.68,0,0,1-4.8-.54,2.53,2.53,0,0,1-1.8-2c-1.39-6.38-2.84-12.74-4.27-19.11-.06-.27-.09-.54-.14-.82.46-.15,1.68-1.1,1.95-1.08,1.16.1,1.66,1,2.81,1s2,1,3.19.68A.45.45,0,0,1,297.63,104Z" fill="#faf2f1"/><path d="M297.66,104.22a16.64,16.64,0,0,1-8.23-.9.51.51,0,0,1-.25-.17.42.42,0,0,1-.08-.21,3.18,3.18,0,0,1,1.48-3.2,20.4,20.4,0,0,1,6.12-3,37.41,37.41,0,0,1,8.41-1.91c2.53-.28,5.89-.76,8.25.49.24.13,1.84,1.66,1.3,2-.11.07-.27.11-.34.21-3.23,4.88-10.42,6-15.77,6.63Zm4.47-3.4a8.09,8.09,0,0,0,.82-.19,6.6,6.6,0,0,0,3.35-1.8c.35-.44.18-.68-.16-.86a3,3,0,0,0-1.12-.33,12.62,12.62,0,0,0-7.5,1.9c-.33.21-.69.51-.54,1s.53.54.95.61A11,11,0,0,0,302.13,100.82Z" fill="#fdfefe"/><path d="M302.13,100.82a11,11,0,0,1-4.2.29c-.42-.07-.82-.2-.95-.61s.21-.75.54-1a12.62,12.62,0,0,1,7.5-1.9,3,3,0,0,1,1.12.33c.34.18.51.42.16.86a6.6,6.6,0,0,1-3.35,1.8A8.09,8.09,0,0,1,302.13,100.82Z" fill="#53585f"/><path d="M95.42,175.92s-10.92-10-12.34-10.76c-1.75-.92-24.42,10.3-31.83,7.29s-18.17-36.38-15.87-42.89c2.55-7.24,52.38-24.92,58.48-20.5,5.43,3.94,15,33.61,14.21,40s-13.5,9.17-15.62,11.13C90.83,161.73,95.42,175.92,95.42,175.92Z" fill="#004472"/><path d="M247.17,43.91C243,40.77,237.69,46.1,237,50.44c-3.13-3-11-3.39-12.12,1.82-1.21,5.75,5,9.68,9.4,11.82,2.75,1.35,6.16,1.62,8.87,3,1.12-2.85,3.51-5.3,4.7-8.13C249.73,54.52,251.86,47.45,247.17,43.91Z" fill="#f78631"/><path d="M206.94,33.8c2,1.34,3.86,2.75,5.79,4.19,1.22.91,2.67,2.53,4.15,3,0,0,1.34,1.23,2.16.84-1.13-1.44-3-2.54-4.35-3.83s-2.91-3.06-4.37-4.55-8.2-10-10.26-8.39C200.48,28.78,204,31.81,206.94,33.8Z" fill="#362e56"/><path d="M217.94,58c-1.5-.13-17,5.44-19.1,6.32-1.13.47-3.12,2.62-1.5,3.72S218.28,59.06,217.94,58Z" fill="#362e56"/><path d="M226.57,7.19c-2.76,1.49-.71,5.13-.28,7.77.32,1.95,4.42,18.72,5.45,19.45C232.24,33,229.25,7.37,226.57,7.19Z" fill="#362e56"/><path d="M257.64,12.35c-2.44.48-8.89,18.15-8.16,21.1C250.91,31.67,260.93,11.7,257.64,12.35Z" fill="#362e56"/><path d="M257.52,26.08c.62-.07,3.81-3.54,5.22-5,.72-.74,4-3.68,3.78-4.71-.54-2.83-3.43.59-4,1.43C261.06,20,257.1,26,257.52,26.08Z" fill="#362e56"/><path d="M256.69,46.17c.43.58,4.72-.12,6.2-.34,2-.3,9.88-2,11.73-2.32,2.21-.37,5.52-1.64,5.49-2.45C278.68,37.17,256.66,45,256.69,46.17Z" fill="#362e56"/><path d="M258.3,56.69c-.24.6,13.69,6.92,13.51,3.63C271.71,59.46,261.83,56,258.3,56.69Z" fill="#362e56"/><path d="M227.21,71.52c-.53-.37-9.93,11.69-6.68,12.29C221.38,83.91,227.05,75.11,227.21,71.52Z" fill="#362e56"/><path d="M198,38.7c1.49.83,6.1,2.47,6.95,1.94-.35-1.19-1.9-1.83-3-2.3s-3.54-2.21-4.53-2.29C194.75,35.84,196.81,38.06,198,38.7Z" fill="#362e56"/><path d="M17.75,303.11c2,1.34,3.86,2.75,5.79,4.19,1.22.91,2.67,2.53,4.14,3,0,0,1.35,1.23,2.17.84-1.14-1.44-3-2.54-4.35-3.83s-2.92-3.06-4.37-4.55-8.2-10-10.26-8.39C11.29,298.09,14.82,301.12,17.75,303.11Z" fill="#362e56"/><path d="M28.74,327.3c-1.49-.13-17,5.44-19.09,6.32-1.13.47-3.12,2.62-1.5,3.72S29.09,328.37,28.74,327.3Z" fill="#362e56"/><path d="M37.38,276.5c-2.76,1.49-.71,5.13-.28,7.77.32,2,4.41,18.72,5.45,19.45C43,302.33,40.06,276.68,37.38,276.5Z" fill="#362e56"/><path d="M68.45,281.66c-2.44.48-8.89,18.15-8.16,21.1C61.72,301,71.74,281,68.45,281.66Z" fill="#362e56"/><path d="M68.33,295.39c.62-.07,3.81-3.54,5.21-5,.73-.74,4-3.68,3.78-4.71-.53-2.83-3.42.59-4,1.43C71.87,289.29,67.91,295.32,68.33,295.39Z" fill="#362e56"/><path d="M67.5,315.48c.42.58,4.72-.12,6.2-.34,2-.3,9.88-2,11.73-2.32,2.21-.37,5.52-1.64,5.49-2.45C89.49,306.48,67.46,314.33,67.5,315.48Z" fill="#362e56"/><path d="M69.1,326c-.23.6,13.69,6.92,13.52,3.63C82.52,328.77,72.64,325.32,69.1,326Z" fill="#362e56"/><path d="M38,340.83c-.53-.37-9.93,11.69-6.69,12.29C32.19,353.22,37.85,344.42,38,340.83Z" fill="#362e56"/><path d="M8.77,308c1.5.83,6.11,2.47,7,1.93-.35-1.18-1.89-1.82-3-2.29s-3.55-2.21-4.53-2.29C5.56,305.15,7.61,307.37,8.77,308Z" fill="#362e56"/><path d="M89.82,139.9a4.6,4.6,0,0,0,.92.95c.25.21.23.33,0,.52-2.71,2.39-5.37,4.84-8.17,7.12a23.41,23.41,0,0,1-6,3.42,27.68,27.68,0,0,1-7.06,1.82c-2.61.35-5.21.73-7.81,1.09-.48.07-.47.06-.49-.43s-.08-.81-.12-1.21a2.82,2.82,0,0,0-.14-.86c0-.13,0-.26,0-.39a21.52,21.52,0,0,0-1.47-4.61,27.09,27.09,0,0,0-2.42-4.3,22.86,22.86,0,0,0-2.26-2.93l-.78-1c.73-.7,1.55-1.29,2.33-1.92,1.86-1.5,3.74-3,5.59-4.47a25,25,0,0,1,6.17-3.94,26.08,26.08,0,0,1,5-1.38c2.07-.39,4.13-.81,6.2-1.22l4.09-.8c.14,0,.28-.06.32.14a4.57,4.57,0,0,0,.16,1.16c0,.12,0,.23,0,.35A30.81,30.81,0,0,0,85.61,133a22,22,0,0,0,3.59,6.24A4.29,4.29,0,0,0,89.82,139.9ZM77.16,150.1c.46-.25,1-.48,1.55-.78s.75-.6,1.16-.8a11.44,11.44,0,0,0,2.68-1.88c2-1.79,4.06-3.61,6.1-5.4.21-.18.18-.26,0-.44A17.32,17.32,0,0,1,85,136a21,21,0,0,1-1.36-3.33,25.47,25.47,0,0,1-1.17-5.17c0-.27-.07-.36-.39-.3-2.32.48-4.65.9-7,1.38a33.35,33.35,0,0,0-6.23,1.53,20.79,20.79,0,0,0-3.11,1.61,39.39,39.39,0,0,0-3.27,2.51L56.45,139c-.25.2-.27.32,0,.57a26.19,26.19,0,0,1,2.08,2.59,24.79,24.79,0,0,1,3.06,5.75,15.83,15.83,0,0,1,1,4.94c0,.29.1.34.38.3,2.31-.34,4.62-.68,6.94-1A23.65,23.65,0,0,0,77.16,150.1Z" fill="#46aff7"/><path d="M83.92,126.71a4.57,4.57,0,0,1-.16-1.16,22.34,22.34,0,0,1,3.43-3.64,7.79,7.79,0,0,1,4.18-2,4.48,4.48,0,0,1,4.38,2.57,9.3,9.3,0,0,1,.67,5.12,15.7,15.7,0,0,1-.87,3.79,20.15,20.15,0,0,1-2.79,5.39,17.16,17.16,0,0,1-2.6,2.85,1.31,1.31,0,0,1-.34.24,4.29,4.29,0,0,1-.62-.66,1.53,1.53,0,0,0,.44-.27,15,15,0,0,0,2.69-3,18.84,18.84,0,0,0,3.24-8.34A7.85,7.85,0,0,0,95,122.8a3.43,3.43,0,0,0-3.16-2,6.39,6.39,0,0,0-4,1.77,20.66,20.66,0,0,0-3.48,3.75A1.19,1.19,0,0,1,83.92,126.71Z" fill="#78caff" stroke="#78caff" stroke-miterlimit="10" stroke-width="2"/><path d="M77.16,150.1a23.65,23.65,0,0,1-7.27,2.07c-2.32.3-4.63.64-6.94,1-.28,0-.36,0-.38-.3a15.83,15.83,0,0,0-1-4.94,24.79,24.79,0,0,0-3.06-5.75,26.19,26.19,0,0,0-2.08-2.59c-.23-.25-.21-.37,0-.57l6.06-4.82a39.39,39.39,0,0,1,3.27-2.51,20.79,20.79,0,0,1,3.11-1.61,33.35,33.35,0,0,1,6.23-1.53c2.32-.48,4.65-.9,7-1.38.32-.06.36,0,.39.3a25.47,25.47,0,0,0,1.17,5.17A21,21,0,0,0,85,136a17.32,17.32,0,0,0,3.63,4.85c.19.18.22.26,0,.44-2,1.79-4.06,3.61-6.1,5.4a11.44,11.44,0,0,1-2.68,1.88c-.41.2-.74.57-1.16.8S77.62,149.85,77.16,150.1Zm-7.43-1.17c-.1-.33-.3-.24-.52-.18-.64.2-1.27.38-1.91.56s-1.54.42-2.36.64c8,1.32,16.16-2.09,19.9-9.19l-.14.05a35.32,35.32,0,0,1-4.25,2.94c-1.11.68-2.26,1.31-3.43,1.89a39.69,39.69,0,0,1-5.5,2.31,6.81,6.81,0,0,1-1.37.52.25.25,0,0,0-.31.15C69.79,148.71,69.85,148.83,69.73,148.93Zm-7.09-4.72a57.78,57.78,0,0,0,19.22-8.86h-.14c-1,.24-1.89.54-2.82.85C77.79,136.57,66.36,141.54,62.64,144.21Zm7.76,4.43c-.06.13-.18.27-.1.47s.15.2.26.12a.4.4,0,0,0,.15-.45C70.67,148.66,70.57,148.6,70.4,148.64Z" fill="#acdeff"/><path d="M80.83,149.2c-.06-.09-.13-.06-.2,0s-.16.1-.1.21a.14.14,0,0,0,.19.07C80.83,149.41,80.84,149.31,80.83,149.2Z" fill="#b7c8f3"/><path d="M71.26,148.08c0-.05.17-.1.26-.13a39.69,39.69,0,0,0,5.5-2.31c1.17-.58,2.32-1.21,3.43-1.89a35.32,35.32,0,0,0,4.25-2.94l.14-.05c-3.74,7.1-11.94,10.51-19.9,9.19.82-.22,1.59-.42,2.36-.64s1.27-.36,1.91-.56" fill="#46aff7"/><path d="M74.66,137.74c1.4-.55,2.82-1.06,4.24-1.55.93-.31,1.87-.61,2.82-.85h.14a57.78,57.78,0,0,1-19.22,8.86,2.16,2.16,0,0,0,.51-.36l.6-.42,1.17-.77c.79-.51,1.59-1,2.4-1.46a47,47,0,0,1,5-2.51C73.11,138.36,73.88,138.05,74.66,137.74Z" fill="#46aff7"/><path d="M66,135.34c.1,0,.22-.05.25-.18l.27-.15a28.38,28.38,0,0,1,3.12-1.68,28.84,28.84,0,0,1,6.17-2,29.44,29.44,0,0,1,4.15-.46,2.38,2.38,0,0,1-1,.4c-1.52.55-3,1.15-4.51,1.73-2.75,1.06-5.39,2.35-8,3.6-1.24.59-2.44,1.27-3.64,1.94-.87.49-1.73,1-2.61,1.52a30,30,0,0,1,5.68-4.69Z" fill="#46aff7"/><path d="M62.57,143.62c0-.08-.09-.15-.18-.08a.2.2,0,0,0-.08.27c0,.07.1.12.18.07A.19.19,0,0,0,62.57,143.62Z" fill="#fefefe"/><path d="M80.83,149.2c0,.11,0,.21-.11.26a.14.14,0,0,1-.19-.07c-.06-.11,0-.17.1-.21S80.77,149.11,80.83,149.2Z" fill="#849dda"/><path d="M62.57,143.62a.19.19,0,0,1-.08.26c-.08.05-.14,0-.18-.07a.2.2,0,0,1,.08-.27C62.48,143.47,62.53,143.54,62.57,143.62Z" fill="#b7c8f3"/><path d="M61.63,153.6a3.66,3.66,0,0,1,.19.93,15.71,15.71,0,0,1-7.22-.87,19.26,19.26,0,0,1-7.16-4.18,10.36,10.36,0,0,1-2.45-3.4,5,5,0,0,1,.73-5.31,6.38,6.38,0,0,1,3.42-1.57,17.49,17.49,0,0,1,4.52-.1c.13,0,.27.06.38,0,.28.35.55.71.82,1.06a2.68,2.68,0,0,1-.4,0,20.65,20.65,0,0,0-4.15-.13,6.81,6.81,0,0,0-3.68,1.23,3.56,3.56,0,0,0-1.15,3.86,7.09,7.09,0,0,0,1.86,3.17,16.55,16.55,0,0,0,4.64,3.4,19.57,19.57,0,0,0,4.85,1.73A13.23,13.23,0,0,0,61.63,153.6Z" fill="#78caff" stroke="#78caff" stroke-miterlimit="10" stroke-width="2"/><circle cx="48.78" cy="322.3" r="15.77" fill="#fff" stroke="#f27520" stroke-miterlimit="10"/><g id="VSK2kL.tif"><path d="M52.31,313.7v0h.29Z" fill="#f35516"/><path d="M57.27,320.76a1.16,1.16,0,0,0-1-.79,8.63,8.63,0,0,0-.88,0H51.26v-4.76a1.57,1.57,0,0,0-1.07-1.41H47.7a1.33,1.33,0,0,0-1.09.62,1.26,1.26,0,0,0-.18.66c0,1,0,2,0,3v1.84H41.66a1.56,1.56,0,0,0-.91.29,1.11,1.11,0,0,0-.48.77v2.51a1.79,1.79,0,0,0,.22.65,1,1,0,0,0,.87.56c.29,0,.59,0,.88,0h4.18v4.69a1.93,1.93,0,0,0,.12.67,1.15,1.15,0,0,0,1,.77c.37,0,.75,0,1.13,0h1a1.84,1.84,0,0,0,1-.36,1.09,1.09,0,0,0,.44-.91c0-1.58,0-3.16,0-4.74v-.14H55.9a1.72,1.72,0,0,0,.74-.15,1.16,1.16,0,0,0,.64-.63v-3.2Z" fill="#f35516"/></g><circle cx="213.63" cy="172.36" r="2.54" fill="url(#_ÂÁ_Ï_ÌÌ_È_ËÂÌÚ_62)"/><circle cx="221.67" cy="174.2" r="2.54" fill="url(#_ÂÁ_Ï_ÌÌ_È_ËÂÌÚ_62-2)"/><circle cx="229.98" cy="176.17" r="2.54" fill="url(#_ÂÁ_Ï_ÌÌ_È_ËÂÌÚ_62-3)"/><path d="M447.5,211c2.76-.29,3.66,1.3,2.55,3.73a25.59,25.59,0,0,1-2.27,3.7c-.86,1.21-1.4,2.52-2.21,3.75-3.07,4.67-18.28,20.26-22.51,23.19a16.63,16.63,0,0,1-5.52,3.55c-1.68.55-4.36,1-5.61.47-1.09-.48-2.5-1.52-2.3-2.86.39-2.67,3.86-6.48,6.68-8.31,2.5-1.62,19.52-19.73,21.32-21.64C440.08,213.92,444.27,211.3,447.5,211Z" fill="#acdeff"/><path d="M441.79,197.81c2.94.31,3.87,2.38,2.65,5a23.48,23.48,0,0,1-2.47,3.8c-.93,1.21-1.53,2.62-2.41,3.88-3.33,4.75-19.7,19.43-24.24,21.87a13.52,13.52,0,0,1-5.92,2.85c-1.78.25-4.63.18-5.94-.76-1.15-.82-2.63-2.37-2.4-3.9.46-3,4.21-6.68,7.23-8.17,2.67-1.31,21-18.51,22.95-20.33C433.88,199.54,438.36,197.45,441.79,197.81Z" fill="#acdeff"/><path d="M467,121.79c1.77-1.45,10.1-7.11,8.31-9.81-3.74-1.29-14.33,12.58-17.9,16.94a14.32,14.32,0,0,0,4.56-2.66C463.73,124.83,465.27,123.24,467,121.79Z" fill="#362e56"/><path d="M485.29,150.4c1.59.55,8.09,3.71,9.92,1.08.23-3.34-13.53-4-17.91-4.43a7.3,7.3,0,0,0,3.2,2C482.06,149.54,483.71,149.85,485.29,150.4Z" fill="#362e56"/><path d="M490,138.85c2.23.11,6.95-.68,8.43-2.56-2.28-5.21-13.22-1.45-16.17-1-3.8.57-7.64,1.36-11.41,2.07a31.25,31.25,0,0,0-8.72,2.82c0,.3-.09.4-.15.42,1.09.93,14.76-1,19.41-1.36A74.36,74.36,0,0,1,490,138.85Z" fill="#362e56"/><path d="M475.47,167.39c-.09-3.27-13.57-12.56-16.22-13.84.57,1.94,4.37,5.82,6.06,7.63C468.52,164.61,474.27,168.73,475.47,167.39Z" fill="#362e56"/><path d="M388.54,126.37h0a5.73,5.73,0,0,0-1.83-.46,1.22,1.22,0,0,0-1,.47c-.26.26.14.51.26.76a5.12,5.12,0,0,0,1.43,1.64c3.4,1,6.76,2.19,10.16,3.23s6.52,1.88,9.76,2.87c1.85.57,3.7,1.1,5.56,1.61,2.43.68,4.85,1.38,7.28,2.07,1.67.48,3.36.91,5,1.38,2.54.71,5.1,1.3,7.66,1.93a29.94,29.94,0,0,1-.71,5.16c-.74,4.53-1.53,9.05-2.34,13.57-.91,5.11-2,10.19-3,15.28-1.11,5.66-2.24,11.32-3.35,17q-1.56,7.89-3.11,15.78c-.18.29-.41.57-.23,1l-.15.69a19.49,19.49,0,0,0-.43,2.35c-1.83,9.2-3.6,18.41-5.6,27.56-.36,1.62-.67,3.25-1,4.89a.85.85,0,0,1-.7.76,18.86,18.86,0,0,1-2.89.44,48.73,48.73,0,0,1-11.12-.51,8.25,8.25,0,0,0-2.77,0,10.36,10.36,0,0,0,3.06,1,29.83,29.83,0,0,0,4.43,1.09c1.27.16,2.54.28,3.8.45a9.07,9.07,0,0,0,2.6,0c.74-.12,1.66.29,2.22-.59.06-.09.36-.07.54,0s.54,0,.52.38-.28.25-.49.28c-.6.1-.55.5-.36.9a2.37,2.37,0,0,0,.41.49.68.68,0,0,1-.63.3,32.19,32.19,0,0,1-7.14-.16,75.89,75.89,0,0,1-8.22-1.72c-2.35-.55-4.64-1.33-6.94-2.07-2.71-.87-5.43-1.75-8.13-2.66-2.18-.74-4.4-1.37-6.55-2.22-1-.4-8-4-8.07-3.37-2.8-1.19-5.45-2.67-8.16-4-2-1-3.91-2.12-6-3-.18-.08-.5-.09-.49-.35s.31-.23.51-.28a10.59,10.59,0,0,0,1.89-.74,14.88,14.88,0,0,1,4.81,2.32,5,5,0,0,0,2.31.87,1.22,1.22,0,0,0-.52-.74,51.7,51.7,0,0,0-4.7-3.77,14.31,14.31,0,0,0-3-2c.75-3.8,2.93-14,2.87-14.21-.29-.79,1.25-8,1.68-10.82.45-3,1.2-6,1.62-9.07.37-2.64,1.05-5.22,1.4-7.86.26-2,.69-3.91,1-5.86.07-.42.49-1.86.47-2.12a2.67,2.67,0,0,1,.06-.56c1-5.12,1.93-10.26,2.84-15.4,1.83-10.28,4-20.5,5.93-30.76.16-.89.51-1.31,1.4-1.24,1.85.3,3.62.9,5.47,1.25a60.58,60.58,0,0,0-6.34-3.42c-.16-.7.4-1.2.54-1.81a3.61,3.61,0,0,1,2.53-2.52,58.88,58.88,0,0,1,10.69-2.91c3.29-.67,6.62-1.18,10-1.61a5.59,5.59,0,0,1,2,.25c2.77.66,5.5,1.47,8.23,2.27,1,.28,1.94.5,2.91.76,2.83.77,5.68,1.4,8.47,2.31,1.62.53,3.3.89,4.95,1.34a42.22,42.22,0,0,1,5.1,1.4c2.56,1,5.27,1.6,7.86,2.5,4.25,1.49,8.68,2.43,12.86,4.13a34.93,34.93,0,0,1,3.25,1.3c.26.13.67.16.69.49s-.43.43-.66.64a.64.64,0,0,1-.61.14,18.37,18.37,0,0,0-3.46.49c-4,.63-7.86,1.74-11.81,2.48a2.19,2.19,0,0,0-1.1.46c.29.32.59.2.88.2,1.44,0,2.88,0,4.32-.14a47.61,47.61,0,0,0,7.43-1,4.5,4.5,0,0,0,2.12-.76,3.18,3.18,0,0,1,1.08.66,5.55,5.55,0,0,1-1.87.48c-3.2.57-6.41,1.1-9.61,1.66l-5.27.92c-2-.18-3.81-1.06-5.75-1.51-1.31-.3-2.6-.73-3.91-1.1-2.52-.71-5-1.6-7.55-2.24-2.24-.56-4.45-1.21-6.65-1.89-3.05-.94-6.16-1.7-9.18-2.74-1.38-.48-2.81-.83-4.21-1.25-1.84-.55-3.67-1.15-5.52-1.66-1.13-.31-1.39-.63-1.16-1.83.29.07.3.37.46.54" fill="#e1b885"/><path d="M425.27,242.81a27.47,27.47,0,0,1-4,2.48c-2.35,1.36-4.73,2.67-7.18,3.83a4.14,4.14,0,0,1-1.9.61,2.37,2.37,0,0,1-.41-.49c-.19-.4-.24-.8.36-.9.21,0,.47,0,.49-.28s-.3-.35-.52-.38-.48-.05-.54,0c-.56.88-1.48.47-2.22.59a9.07,9.07,0,0,1-2.6,0c-1.26-.17-2.53-.29-3.8-.45a29.83,29.83,0,0,1-4.43-1.09,10.36,10.36,0,0,1-3.06-1,8.25,8.25,0,0,1,2.77,0,48.73,48.73,0,0,0,11.12.51,18.86,18.86,0,0,0,2.89-.44.85.85,0,0,0,.7-.76c.29-1.64.6-3.27,1-4.89,2-9.15,3.77-18.36,5.6-27.56.07-.37,2.88-14.51,3.92-19.77,1.11-5.66,2.24-11.32,3.35-17,1-5.09,2.07-10.17,3-15.28.81-4.52,1.6-9,2.34-13.57a29.94,29.94,0,0,0,.71-5.16c.25-.56.05-1.18.26-1.74l5.27-.92c3.2-.56,6.41-1.09,9.61-1.66a5.55,5.55,0,0,0,1.87-.48c.63.08.41.52.34.87q-1,5.12-2,10.24t-2,10.08c-.06.28-2.81,14.24-3.67,18.51-1.92,9.56-3.8,19.14-5.77,28.7-1.21,5.91-2.52,11.8-3.81,17.69-.69,3.13-1.44,6.25-2.16,9.37a.9.9,0,0,0-.24.81L430,235.4c-.11-.15-1.09,4.37-1.43,4.71" fill="#c6925b"/><path d="M448.73,136.41a4.5,4.5,0,0,1-2.12.76,47.61,47.61,0,0,1-7.43,1c-1.44.1-2.88.12-4.32.14-.29,0-.59.12-.88-.2a2.19,2.19,0,0,1,1.1-.46c3.95-.74,7.83-1.85,11.81-2.48a18.37,18.37,0,0,1,3.46-.49c-.48.34-1.09.32-1.59.59-.26.14-.68.14-.69.49S448.41,136.31,448.73,136.41Z" fill="#c6925b"/><path d="M353.17,226.1a14.31,14.31,0,0,1,3,2,51.7,51.7,0,0,1,4.7,3.77,1.22,1.22,0,0,1,.52.74,5,5,0,0,1-2.31-.87,14.88,14.88,0,0,0-4.81-2.32,2,2,0,0,0-.3-1.9A4.3,4.3,0,0,1,353.17,226.1Z" fill="#c6925b"/><path d="M371.59,126a60.58,60.58,0,0,1,6.34,3.42c-1.85-.35-3.62-.95-5.47-1.25.25-.46,0-.81-.22-1.18S371.64,126.47,371.59,126Z" fill="#c6925b"/><path d="M425.39,242.59c.05-.84-.56-1.43-.84-2.14-.15-.39.95-1.06,1.21-.58s.41.95.69,1.37.33.93-.33,1.16c-.23.09-.4.3-.67.28Z" fill="#c6925b"/><path d="M363.7,175.13a.47.47,0,0,1,.05.1s0,.05-.05.05l-.11-.07Z" fill="#e1b885"/><path d="M425.19,242.7l.2-.11.06.09-.18.13Z" fill="#c6925b"/><path d="M433.06,140.13c-2-.18-3.81-1.06-5.75-1.51-1.31-.3-2.6-.73-3.91-1.1-2.52-.71-5-1.6-7.55-2.24-2.24-.56-4.45-1.21-6.65-1.89-3.05-.94-6.16-1.7-9.18-2.74-1.38-.48-2.81-.83-4.21-1.25-1.84-.55-3.67-1.15-5.52-1.66-.9-.25-1.24-.5-1.23-1.2l-.53-.2v0l-.08,0-.58-.21c-.38-.08-9.41-1.65-9.78-1.75a1.2,1.2,0,0,0-1.06.46c-.26.27.15.51.26.77s9.19,2.22,9.19,2.7l0,0c.32.1.52.37.85.47,3.4,1,6.76,2.19,10.16,3.23s6.52,1.88,9.76,2.87c1.85.57,3.7,1.1,5.56,1.61,2.43.68,4.85,1.38,7.28,2.07,1.67.48,3.36.91,5,1.38,2.54.71,5.1,1.3,7.66,1.93C433.05,141.31,432.85,140.69,433.06,140.13Z" fill="#ddd3c4"/><path d="M390.19,126a.85.85,0,0,1,.19-.1s.05.11,0,.14a.59.59,0,0,1-.17.13C390.22,126.06,390.17,126,390.19,126Z" fill="#ddd3c4"/><path d="M400.17,120.67l.05,0-.05,0c0-.15.12-.33-.08-.42a.17.17,0,0,0-.23.16C399.82,120.66,400,120.62,400.17,120.67Zm-4.12,1.42-.11.08,0,0,.12-.08Z" fill="#ddd3c4"/><path d="M417.83,211.77c.15,0,.25,0,.29-.12a.18.18,0,0,0-.07-.18.19.19,0,0,0-.26.12S417.82,211.72,417.83,211.77Z" fill="#ddd3c4"/><path d="M429.87,205.77a.35.35,0,0,1,.14,0Z" fill="#e1b885"/><path d="M429.14,205.08l-.09.15Z" fill="#e1b885"/><path d="M390.24,126.14c0-.08-.07-.15-.05-.17a.85.85,0,0,1,.19-.1s.05.11,0,.14A.59.59,0,0,1,390.24,126.14Z" fill="#e1b885"/><path d="M388.54,126.37l0,0,0,0Z" fill="#e1b885"/><path d="M400.17,120.67c-.13,0-.35,0-.31-.25a.17.17,0,0,1,.23-.16c.2.09.09.27.08.42Z" fill="#e1b885"/><path d="M397.33,122.44c-.15,0-.32-.08-.3-.29,0,0,0,0,.06,0,.21,0,.23.17.23.34Z" fill="#e1b885"/><path d="M396.05,122.09l.05,0-.12.08,0,0Z" fill="#e1b885"/><path d="M400.17,120.68l.05,0-.05,0Z" fill="#e1b885"/><path d="M417.83,211.77c0-.05-.06-.13,0-.18a.19.19,0,0,1,.26-.12.18.18,0,0,1,.07.18C418.08,211.76,418,211.8,417.83,211.77Z" fill="#e1b885"/><path d="M414.59,212.72l-.09-.18A.57.57,0,0,1,414.59,212.72Z" fill="#e1b885"/><path d="M415,213.26l.09.18A.57.57,0,0,1,415,213.26Z" fill="#e1b885"/><path d="M418.48,210.73l.09.06S418.49,210.77,418.48,210.73Z" fill="#e1b885"/><path d="M415.21,212.09l.09.06" fill="#e1b885"/><path d="M419.22,210.09v.11" fill="#e1b885"/><path d="M366.9,175a1.44,1.44,0,0,1-.38-.88l1.17.17c-.51.16-.79.31-.77.7Z" fill="#e1b885"/><path d="M427.73,206.48a.91.91,0,0,1-.36-.75C428,205.73,427.78,206.15,427.73,206.48Z" fill="#c6925b"/><path d="M427.38,205.74a.24.24,0,0,1-.1-.36A.25.25,0,0,1,427.38,205.74Z" fill="#c6925b"/><path d="M391.22,196a2.06,2.06,0,0,1,.84,1.63q1.54,11.3,3.15,22.58a3.2,3.2,0,0,1-.15,1.2.14.14,0,0,0-.19.09c-5.68.64-11.34,1.47-17,2.18-9.17,1.14-18.3,2.54-27.45,3.83-.74-.89-.49-2-.64-3-1-6.81-1.9-13.62-2.85-20.42a4.74,4.74,0,0,1,0-1.76c9.3-1.29,18.6-2.56,27.89-3.88C380.27,197.66,385.74,196.82,391.22,196Zm-28.81,15c-.27.06-.59.14-.59.46a10.68,10.68,0,0,0,.45,3.23c.1.31.43.3.71.28a6.27,6.27,0,0,0,3-.15c3-.39,3-.4,3.39,2.64.47,3.4,0,2.76,3.31,2.38.83-.09,1.66-.17,1.8-1.25.25.23.71.68.69,0a37.38,37.38,0,0,0-.52-4.05l-.36.06c-.22,1.33.46,2.65.19,4-.6-1.07-.47-2.28-.71-3.42-.19-1,.08-1.47,1.21-1.59a12.66,12.66,0,0,0,4.39-.83c.55.64,0,.74-.44.92s-.85-.06-1,.46c.28.38,1.18-.13,1.06.75-.23,1.64.38,3.13.81,4.66.51,1.82,0,2.61-2,2.88L354,225.69c-2.44.34-2.44.34-2.77-2.05-.85-6.17-1.72-12.33-2.57-18.5-.24-1.7,0-1.93,1.69-2.24.79-.14,1.68,0,2.33-.7-1.32,0-2.62.28-3.92.37s-1.54.5-1.36,1.73c1,7,2,14,2.95,20.93.24,1.76.26,1.77,2.08,1.5,9.2-1.38,18.43-2.53,27.62-3.91,4.43-.67,8.89-1.26,13.35-1.75,1-.11,1.31-.49,1.17-1.5q-1.55-10.68-3-21.35c-.16-1.19-.64-1.53-1.81-1.36-4,.61-8,1.13-12,1.69a8,8,0,0,0-2.33.78c1.05.82,2.63,4.57,2.53,6a3,3,0,0,0,.91,2.59c.35.32.22.54-.08.77-1.41-.56-2.76.17-4.15.19-.48,0-1,.5-1.45-.18l4.57-.63,0-.39c-.83.12-1.68.18-2.49.36-1.12.26-1.56-.14-1.68-1.26a4.38,4.38,0,0,0-.59-2.58l-.4.07.62,4.42c-.56-.14-.4-.65-.47-1-.18-1-.32-2.06-.45-3.09-.07-.58-.19-1.08-.87-1.2.21-.36.36-.69-.32-.59-.89.14-1.79.26-2.68.39-.46.06-.78.25-.73.78a11.16,11.16,0,0,0,.42,4.15c.34,1.5-.26,1.75-1.51,1.93C365.17,210.24,363.65,210,362.41,211Zm1.06,4.82,0,.38a5.61,5.61,0,0,0,2.38-.22c1.25-.29,2.14-.17,2.35,1.31h.32c-.07-.85.13-2-1.08-2A26.31,26.31,0,0,0,363.47,215.81Zm-.61-6.26.06.38,4.56-.64-.05-.36A29.36,29.36,0,0,0,362.86,209.55Zm3.79-4.45a3.74,3.74,0,0,0,.43,2.67A3.87,3.87,0,0,0,366.65,205.1Zm3.75,15.61,0,.13,3.5-.48,0-.14Z" fill="#363635"/><path d="M389.88,190.51a2.8,2.8,0,0,1-1.49.27,10.47,10.47,0,0,0-1.36.15c-4.24.65-8.47,1.41-12.69,2.17-8.33,1.5-16.76,2.44-25.16,3.61a.4.4,0,0,1-.22.09c-1.1.14-1.88-2.05-3-1.81.33,1.65.45,5.71.89,7.33,9.3-1.29,18.6-2.56,27.89-3.88,5.49-.78,11-1.62,16.44-2.44-.08-1.8-1-6.32-1.07-8.12C389.77,188,390.22,190.69,389.88,190.51Z" fill="#bcc4c7"/><path d="M350.41,227.51c9.15-1.29,18.28-2.69,27.45-3.83,5.67-.71,11.33-1.54,17-2.18a20.23,20.23,0,0,1,1.16,4.71v.62a20,20,0,0,0-2.57.06q-20.29,2.76-40.58,5.57c-1.18.16-1.53.66-1.35,1.82.54,3.48,1,7,1.47,10.47.17,1.22.34,2.38,1.89,2.61.22,0,.38.48.57.73a2.59,2.59,0,0,1-1.64.27,10.25,10.25,0,0,1-1.82-5c-.32-3.08-1-6.12-1.19-9.2C350.67,231.92,350.76,229.7,350.41,227.51Z" fill="#bcc4c7"/><path d="M361.13,163.08l-1-7.63c.39-.59.95-.58,1.57-.55.8,0,1.27-.19,1-1.23a18.85,18.85,0,0,1-.63-4.15c0-1.43-.12-1.67-1.6-1.51s-2.89.35-4.34.53l.19-.48.43-.19,1.33-.2a.87.87,0,0,0,.74.26l6.34-.89a.79.79,0,0,0,.62-.48l1.6-.11a.16.16,0,0,0,.19.05l2.59,2.25.19.66c.12,1,.25,2,.34,2.94a1.08,1.08,0,0,1-1.09,1.36c-1.12.12-2.24.29-3.35.44-.61-.2-.47.18-.39.5s.05.4.07.59a9.25,9.25,0,0,0,.78,5.51c.22.54.09,1.22.67,1.61.88.81,2,0,2.9.34l.05.09c.23,1.25-.23,2.66.91,3.68.27.46,0,1.2.78,1.37,1.15.61,2.57.29,3.66,1.09.29,2.26.95,4.48.79,6.79-3.47.26-6.88,1.06-10.37,1.22-.27-.77-.89-.48-1.39-.41-2.15.28-4.3.58-6.45.88a45.18,45.18,0,0,1,6.17-1.13c1.07-.14,1.5-.63,1.32-1.75-.53-3.46-.9-6.95-1.73-10.37a1.3,1.3,0,0,0-1.53-1.19C362,163,361.58,163,361.13,163.08Z" fill="#272828"/><path d="M356.13,148.54c1.45-.18,2.89-.37,4.34-.53s1.57.08,1.6,1.51a18.85,18.85,0,0,0,.63,4.15c.25,1-.22,1.26-1,1.23-.62,0-1.18,0-1.57.55l-.68-.41c.08-.36,0-.69-.41-.67a4,4,0,0,0-3.14,1.09.7.7,0,0,1-1-.49c-.3-1.09-1.1-1.06-1.94-.94-5.57.79-11.12,1.61-16.69,2.37-1.16.15-1.72.57-1.66,1.81.05.81-.23,1.63-.23,2.45,0,1.59-.76,2.3-2.33,2.27a5.11,5.11,0,0,0-.94.15l-.5-.33,1.89-.34c1.24-.21,1.34-.38,1.06-1.83-.07,0-.2.08-.2.14a1.14,1.14,0,0,1-1.61,1.12c-1-.31-.33-1-.15-1.52.25-.82.15-1.54-.85-1.82a9.82,9.82,0,0,1,.36-2.85c.53.2.95.06,1-.52.13-1.26,1-1.41,2-1.55,6.52-.87,13.05-1.79,19.57-2.71.62-.09,1.51,0,1.34-1.06l.68-1.15v0Zm-21.41,7.27,18.59-2.57C347,153.51,340.93,154.79,334.72,155.81Zm-.73,3.76c.05-1,.41-1.71,0-2.37,0,0-.3,0-.33.08C333.31,157.94,333.45,158.57,334,159.57Z" fill="#363635"/><path d="M330.79,159.3l0-.8c1,.28,1.1,1,.85,1.82-.18.56-.89,1.21.15,1.52a1.14,1.14,0,0,0,1.61-1.12c0-.06.13-.1.2-.14.28,1.45.18,1.62-1.06,1.83l-1.89.34-.31-.31c.22-.83-.05-1.74.37-2.55C331,159.75,331.19,159.57,330.79,159.3Z" fill="#272828"/><path d="M355.48,248c-.21-.16-.68-.35-.9-.51s-.38-.4-.69-.65a2.91,2.91,0,0,1-.89-2.13c-.47-3.49-.93-7-1.47-10.47-.18-1.16.17-1.66,1.35-1.82q20.3-2.78,40.58-5.57a20,20,0,0,1,2.57-.06l1.8,13c-.63.83,0,1.43-1.5,2.7-.4.07-.81.16-1.21.21l-28.66,4c-1.93.27-3.87.47-5.8.73q-1.49.2-3,.45c-.61.11-1.44.57-2.06.27Z" fill="#dbf2ff"/><path d="M375.68,168.93c-1.09-.8-2.51-.48-3.66-1.09,1-.18,1.9-.61,2.84,0C375.25,168.11,375.77,168.3,375.68,168.93Z" fill="#363635"/><path d="M371.24,166.47c-1.14-1-.68-2.43-.91-3.68C371.43,163.82,371.07,165.21,371.24,166.47Z" fill="#363635"/><path d="M370.28,162.7c-.94-.37-2,.47-2.9-.34C368.36,162.32,369.43,161.61,370.28,162.7Z" fill="#363635"/><path d="M361.13,163.08c.45,0,.91-.06,1.36-.11a1.3,1.3,0,0,1,1.53,1.19c.83,3.42,1.2,6.91,1.73,10.37.18,1.12-.25,1.61-1.32,1.75a45.18,45.18,0,0,0-6.17,1.13c2.15-.3,4.3-.6,6.45-.88.5-.07,1.12-.36,1.39.41-3.24.72-6.55,1-9.82,1.47-.21-1.48-.41-3-.61-4.44-.08-.54-.11-1.14-.91-1.05-.48-1.79.08-2.81,1.89-3,1.43-.14,1.83-.69,1.48-2a12.53,12.53,0,0,1-.29-2c-.17-1.59.26-2.17,1.83-2.47C360.16,163.33,360.64,163.19,361.13,163.08Zm-2.4,1.81-.25,0,.57,4,.24,0Z" fill="#363635"/><path d="M354.76,172.92c.8-.09.83.51.91,1.05.2,1.48.4,3,.61,4.44l-.2.19-.54,0A29.21,29.21,0,0,1,354.76,172.92Z" fill="#272828"/><path d="M378.8,208.68c.3-.23.43-.45.08-.77a3,3,0,0,1-.91-2.59c.1-1.42-1.48-5.17-2.53-6a8,8,0,0,1,2.33-.78c4-.56,8-1.08,12-1.69,1.17-.17,1.65.17,1.81,1.36q1.43,10.68,3,21.35c.14,1-.17,1.39-1.17,1.5-4.46.49-8.92,1.08-13.35,1.75-9.19,1.38-18.42,2.53-27.62,3.91-1.82.27-1.84.26-2.08-1.5-1-7-1.92-14-2.95-20.93-.18-1.23.18-1.65,1.36-1.73s2.6-.34,3.92-.37c-.65.69-1.54.56-2.33.7-1.73.31-1.93.54-1.69,2.24.85,6.17,1.72,12.33,2.57,18.5.33,2.39.33,2.39,2.77,2.05l23.83-3.31c1.94-.27,2.47-1.06,2-2.88-.43-1.53-1-3-.81-4.66.12-.88-.78-.37-1.06-.75.17-.52.68-.32,1-.46s1-.28.44-.92C379.17,211.37,379,210,378.8,208.68Zm1.43,3.64a7.14,7.14,0,0,0-.54-3.48A6.3,6.3,0,0,0,380.23,212.32Z" fill="#272828"/><path d="M378.8,208.68c.19,1.35.37,2.69.55,4a12.66,12.66,0,0,1-4.39.83c-1.13.12-1.4.62-1.21,1.59.24,1.14.11,2.35.71,3.42v0c-.14,1.08-1,1.16-1.8,1.25-3.29.38-2.84,1-3.31-2.38-.41-3-.4-3-3.39-2.64a6.27,6.27,0,0,1-3,.15l-.57-4c1.24-1,2.76-.75,4.17-1,1.25-.18,1.85-.43,1.51-1.93a11.16,11.16,0,0,1-.42-4.15l3.73-.58c.68.12.8.62.87,1.2.13,1,.27,2.07.45,3.09.07.36-.09.87.47,1h0c.41.68,1,.19,1.45.18C376,208.85,377.39,208.12,378.8,208.68Z" fill="#fff"/><path d="M363.47,215.81a26.31,26.31,0,0,1,4-.51c1.21,0,1,1.13,1.08,2h-.32c-.21-1.48-1.1-1.6-2.35-1.31a5.61,5.61,0,0,1-2.38.22Z" fill="#272828"/><path d="M373.19,208.68l-.62-4.42.4-.07a4.38,4.38,0,0,1,.59,2.58c.12,1.12.56,1.52,1.68,1.26.81-.18,1.66-.24,2.49-.36l0,.39-4.57.63Z" fill="#272828"/><path d="M362.86,209.55a29.36,29.36,0,0,1,4.57-.62l.05.36-4.56.64Z" fill="#272828"/><path d="M374.46,218.58v0c.27-1.34-.41-2.66-.19-4l.36-.06a37.38,37.38,0,0,1,.52,4.05C375.17,219.26,374.71,218.81,374.46,218.58Z" fill="#272828"/><path d="M362.41,211l.57,4c-.28,0-.61,0-.71-.28a10.68,10.68,0,0,1-.45-3.23C361.82,211.13,362.14,211.05,362.41,211Z" fill="#272828"/><path d="M371.4,203.38l-3.73.58c-.05-.53.27-.72.73-.78.89-.13,1.79-.25,2.68-.39C371.76,202.69,371.61,203,371.4,203.38Z" fill="#272828"/><path d="M366.65,205.1a3.87,3.87,0,0,1,.43,2.67A3.74,3.74,0,0,1,366.65,205.1Z" fill="#272828"/><ellipse cx="372.16" cy="220.53" rx="2.5" ry="0.1" transform="translate(-26.77 53.23) rotate(-7.9)" fill="#272828"/><path d="M355.88,155.46a4,4,0,0,1,3.14-1.09c.42,0,.49.31.41.67A13.69,13.69,0,0,1,355.88,155.46Z" fill="#272828"/><path d="M331.12,155.65c.1-2.3.29-2.52,2.6-2.84l21.34-3c.17,1.11-.72,1-1.34,1.06-6.52.92-13.05,1.84-19.57,2.71-1,.14-1.89.29-2,1.55C332.07,155.71,331.65,155.85,331.12,155.65Z" fill="#272828"/><path d="M334.72,155.81c6.21-1,12.32-2.3,18.59-2.57Z" fill="#272828"/><path d="M334,159.57c-.54-1-.68-1.63-.36-2.29,0-.07.31-.12.33-.08C334.4,157.86,334,158.52,334,159.57Z" fill="#272828"/><path d="M330.79,159.3c.4.27.25.45-.11.59A.54.54,0,0,1,330.79,159.3Z" fill="#363635"/><path d="M358.73,164.89l.56,4-.24,0-.57-4Z" fill="#272828"/><path d="M380.23,212.32a6.3,6.3,0,0,1-.54-3.48A7.14,7.14,0,0,1,380.23,212.32Z" fill="#363635"/><path d="M376.47,175.81h.18a11.28,11.28,0,0,1,1.82.28,14.55,14.55,0,0,1,4.5,1.54,17.84,17.84,0,0,1,3.91,3.6,12.7,12.7,0,0,1,3.35,7.42c.13,1.8-.1,2.09-1.84,2.12a10.47,10.47,0,0,0-1.36.15c-4.24.65-8.47,1.41-12.69,2.17-8.68,1.56-17.48,2.52-26.22,3.76-1.91.27-2.19-1.85-2.33-3.31a15.75,15.75,0,0,1,2.2-9.21c2-3.31,5.15-4.79,8.76-5.78,1.17-.32,2.36-.57,3.55-.78,2.85-.52,5.72-.85,8.6-1.18l5.72-.66A14.38,14.38,0,0,1,376.47,175.81Z" fill="#dbf2ff"/><path d="M360.71,199.58c-2.64-1.76-5.24-.82-6.57,2a22.35,22.35,0,0,0-1.42,4.56c-.33,1.56-1.11,3-1.53,4.59-1.58,5.87-4.25,11.56-3.69,17.51.47,5.1,2.14,10.65,3.61,15.59.27,2.12.63,4.36,2.2,6.19,1.21,1.4,3.57,3.29,5.47,3.46,1.66.16,4.23,0,5.41-1.33,2.35-2.63,2.6-7.94,1.5-11.12-1-2.81-2-5.59-3-8.42-.66-2-1.4-4.27-1-6.43.47-2.71,1.69-5.16,2.45-7.8a35.24,35.24,0,0,0,1.29-8.41C365.53,206.27,363.79,201.64,360.71,199.58Z" fill="#acdeff"/><path d="M355,199.78c-1.56.76-3.47,9.18-3.38,9.52,3.63-.53,5.33,1,6,.62s1.07-2.3,1.24-3.06a9.87,9.87,0,0,0,.3-3.82C358.77,201,357.34,198.65,355,199.78Z" fill="#acdeff"/><path d="M332.13,181.37c-2.76-.82-4.48,3-4,5.35-2.2-.92-6.37.39-5.92,3.3.49,3.21,4.49,4,7.16,4.29,1.68.17,3.5-.35,5.18-.14,0-1.7.79-3.43.85-5.12C335.51,186.37,335.24,182.29,332.13,181.37Z" fill="#f78631" stroke="#f27520" stroke-miterlimit="10"/><path d="M331.5,163.14c.37.27.8-.5,1.09,0a1.61,1.61,0,0,1,.12.39l1.43,6.42a10,10,0,0,1,.33,2.53c-.33.34-.79,2.25-2.6,1.21C328.66,171.84,332.71,164,331.5,163.14Z" fill="#f78631"/><path d="M409.63,245.41c2,1,4.13,2.47,4,4.55-.15,2.24-2.87,3.45-5.21,3.88-5.85,1-11.87.24-17.75-.58-6.36-.89-23.18-6.1-10.16-11.72C389.37,237.71,401.55,241.41,409.63,245.41Z" fill="#acdeff"/><path d="M384.73,250.83c1.25,1.61,2.46,3.78,1.51,5.63-1,2-3.78,2.11-5.92,1.64-5.32-1.17-10-4.12-14.64-7-5-3.13-17-14.07-3.81-14.45C370.84,236.37,379.57,244.21,384.73,250.83Z" fill="#acdeff"/><path d="M376,175.49a37,37,0,0,0-.61-8.6c3-5.7,7.8-8.76,14.05-9.74a4.26,4.26,0,0,0,.47-.15,4.78,4.78,0,0,0,1.76.33,7,7,0,0,1,1.89.52c.29.14.64.27.67.64s-.4.45-.69.53a3.89,3.89,0,0,0-1.72.92,5.15,5.15,0,0,1-3,1.89,4.45,4.45,0,0,0,4.45-.26,8.18,8.18,0,0,1,1-.6,1.42,1.42,0,0,1,1.55.17,1.26,1.26,0,0,1,.29,1.37c-.13.47-.34.92-.47,1.39a2.69,2.69,0,0,0,1.14,3.28A10,10,0,0,1,398.6,163c.57-.86,1.12-.95,1.91-.27s1.2,1.26,1.83,1.88c.34.34.48.95,1.14,1a6.18,6.18,0,0,0-1-3.33c-.19-.36-.65-.71-.37-1.16s.89-.34,1.36-.29a9.73,9.73,0,0,1,1.25.35c.3.09.59.34.9,0a7.62,7.62,0,0,1,3.23,2.45c3.4,3.55,5.4,7.76,5.13,12.74a15,15,0,0,1-6.6,11.77,20.26,20.26,0,0,1-15.62,3.39l-1.14-.21c-.27-1.17-.24-2.39-.6-3.55a19.75,19.75,0,0,0-6.7-9.53,14.39,14.39,0,0,0-5.56-2.35Z" fill="#f35516"/><path d="M405.64,161.21c-.31.33-.6.08-.9,0a9.73,9.73,0,0,0-1.25-.35c-.47,0-1.05-.21-1.36.29s.18.8.37,1.16a6.18,6.18,0,0,1,1,3.33c-.66-.06-.8-.67-1.14-1-.63-.62-1.17-1.31-1.83-1.88s-1.34-.59-1.91.27a10,10,0,0,0-1.84,4.17,2.69,2.69,0,0,1-1.14-3.28c.13-.47.34-.92.47-1.39a1.26,1.26,0,0,0-.29-1.37,1.42,1.42,0,0,0-1.55-.17,8.18,8.18,0,0,0-1,.6,4.45,4.45,0,0,1-4.45.26,5.15,5.15,0,0,0,3-1.89,3.89,3.89,0,0,1,1.72-.92c.29-.08.72-.09.69-.53s-.38-.5-.67-.64a7,7,0,0,0-1.89-.52,4.78,4.78,0,0,1-1.76-.33c1.62-.91,3.26-.58,4.88,0,1.34.47,1.36.5,1.79-.84a8.17,8.17,0,0,1,1.67-3,3.2,3.2,0,0,1,.88-.72.92.92,0,0,1,1.2.19c.25.33-.1.59-.26.86a16.13,16.13,0,0,0-.88,1.57c-.34.78-.59,1.6.52,2,.6,1.59,2.18,1.82,3.44,2.5A8.21,8.21,0,0,1,405.64,161.21Z" fill="#354208"/><path d="M125,231.65a28.89,28.89,0,0,0-6.31,2.65c-.68.39-1,.28-1.37-.36a28.53,28.53,0,0,0-3.16-4,26.59,26.59,0,0,1-5.58-10.69,10.57,10.57,0,0,1,0-6.3c1.38-4.07,5-5.56,8.79-3.58a10.71,10.71,0,0,1,4.88,5.11c.09.19.16.4.24.59s.14.26.26.47a13.71,13.71,0,0,1,4.33-2.38,10.35,10.35,0,0,1,4.1-.48,5.42,5.42,0,0,1,5.18,6.09,9.68,9.68,0,0,1-2.19,5.56,24.25,24.25,0,0,1-5,4.69,7.7,7.7,0,0,0-1.76,1.35,4.15,4.15,0,0,0-2,1c-.18,0-.34.08-.38.28Z" fill="#f35516"/><path d="M148.25,245.52c-.52-1.08-1-2.23-1.62-3.27a11.67,11.67,0,0,0-5.68-4.83,46.68,46.68,0,0,0-9-2.47c-1.91-.42-9.28-.85-11-1.34-2.37-.67-6.46-2-7.45-.63-2.23,3.16-.86,7.85,2,10.44a21.54,21.54,0,0,0,6.75,4.17c2.46.9,6.43,1.43,8.94,1.95,2.34.49,2.37,1.46,3.75,3.4a72.58,72.58,0,0,1,4.85,6.95,12.13,12.13,0,0,1,1.21,8.32,47.46,47.46,0,0,0-1.36,10.57c0,2.21,1,5,3.38,5.63,4,1,5.8-4.12,6.93-7,2-5.21,2.35-11.47,2.93-17C153.19,257.74,149,247,148.25,245.52Z" fill="#a8503b"/><path d="M123,234a18.85,18.85,0,0,0-6.38-1.79,3.17,3.17,0,0,0-1.84.11c0-.1,0-.19-.08.09a2.74,2.74,0,0,0-.4,3,4.89,4.89,0,0,0,2.6,2,30.94,30.94,0,0,0,3,1,5.24,5.24,0,0,0,1.6.29c.66-.06.69-.59.72-1.18a8.89,8.89,0,0,1,.28-1.8A4.4,4.4,0,0,0,123,234Z" fill="#ef9178"/><path d="M352.21,290.74a92.49,92.49,0,0,0,24,8c5.36.93,10.58,2.57,15.94,3.36.51-4.43,1.14-9.76,1.94-14.25-8.74-2.58-17.37-5.41-26-8.3-4.74-1.59-9.57-3-14.34-4.49,0,1.82,0,3.64.05,5.46C353.77,283.71,352.79,287.54,352.21,290.74Z" fill="#c6683e"/><path d="M396,286.77a2.22,2.22,0,0,1-.24,1.53,1.82,1.82,0,0,1-.89.59c-2.25.74-4.5-.87-6.54-2.06a34.05,34.05,0,0,0-5.81-2.53,98.32,98.32,0,0,0-26.45-5.36,6.29,6.29,0,0,1-3.13-.74,2.07,2.07,0,0,1-.75-2.81,3,3,0,0,1,2.17-.83c3.16-.29,6.33-.37,9.5-.46,5.41-.15,10.9-.29,16.17.94a49.68,49.68,0,0,1,11,4.25c1.26.64,3.42,1.32,4.16,2.54S395.88,285.41,396,286.77Z" fill="#acdeff"/></svg>