<svg id="Layer_1" data-name="Layer 1" xmlns="http://www.w3.org/2000/svg" xmlns:xlink="http://www.w3.org/1999/xlink" viewBox="0 0 475.24 414.8"><defs><clipPath id="clip-path" transform="translate(-16.65 -26.68)"><rect id="SVGID" x="10.52" y="-40.23" width="481.71" height="481.71" fill="none"/></clipPath><linearGradient id="_ÂÁ_Ï_ÌÌ_È_ËÂÌÚ_62" x1="198.29" y1="152.81" x2="200.75" y2="157.07" gradientUnits="userSpaceOnUse"><stop offset="0" stop-color="#f4e2d4"/><stop offset="0.38" stop-color="#f2e3dd"/><stop offset="1" stop-color="#efe4e8"/></linearGradient><linearGradient id="_ÂÁ_Ï_ÌÌ_È_ËÂÌÚ_62-2" x1="206.07" y1="154.59" x2="208.52" y2="158.84" xlink:href="#_ÂÁ_Ï_ÌÌ_È_ËÂÌÚ_62"/><linearGradient id="_ÂÁ_Ï_ÌÌ_È_ËÂÌÚ_62-3" x1="214.12" y1="156.5" x2="216.57" y2="160.75" xlink:href="#_ÂÁ_Ï_ÌÌ_È_ËÂÌÚ_62"/></defs><g clip-path="url(#clip-path)"><path d="M182.16,203.23c-2.47,4.18-1.15,9.92-.3,14.42s1.63,9.43,2.72,13.83c1.13,4.58,4,8.37,6.07,12.65C192.52,248,195,252.89,198,256c5.71,6.12,11.67,12.24,16.65,19.13,5.61,7.75,7.18,17,8.84,26.4.87,4.94.61,10.1,1.76,14.91,1.19,5,1.3,10.15,2,15.36.74,5.45,2.44,10.55,2.94,16.26.17,2-.11,7.67,1.59,8.83,1.42,1,6.92-.37,8.59-.51,5-.43,10.49-.3,15.23-1.93a114.5,114.5,0,0,0,12.28-5.42c4.06-1.95,7.85-3.21,11.79-5.54,2.95-1.74,5.27-1.49,3.62-5-2.67-5.62-6.2-11.18-8.81-17.05-1.51-3.42-2.67-7-4.33-10.43-1.76-3.6-2.4-7.06-3.77-10.76-3.09-8.37-6.25-16.52-8.22-25.25a81.64,81.64,0,0,1-1.31-11.63c-.37-5,1.19-9.46,1.22-14.27s.65-9.69,1.11-14.6c.27-2.82.91-6.74-.5-9.41-2.43-4.61-7.61-8.29-11.41-11.76-10.73-9.8-23.8-13.89-38.23-13.17-6.47.33-12.94,1.18-19.41,1.45A14.6,14.6,0,0,0,182.16,203.23Z" transform="translate(-16.65 -26.68)" fill="#f4b796"/><rect x="172.66" y="165.85" width="98.27" height="52.66" rx="10.05" transform="translate(-34.66 334.68) rotate(-76.11)" fill="#362e56"/><rect x="173.65" y="162.12" width="98.27" height="52.66" rx="10.05" transform="translate(-30.28 332.81) rotate(-76.11)" fill="#007be1"/><rect x="200.62" y="149.08" width="45.12" height="75.56" transform="translate(34.73 -74.79) rotate(13.89)" fill="#fff"/><rect x="234.42" y="139.46" width="1.36" height="13.63" rx="0.62" transform="translate(20.02 312.71) rotate(-76.11)" fill="#362e56"/><path d="M257.83,218a95.38,95.38,0,0,1-4.66-17.17c-.73-4.27-.46-8.81-1.39-13-.14-.64,0-1.82-1.38-2.21-2.88-1-6.35,2.19-7.72,4.56-1.49,2.58-1.53,6.18-1.35,9.08a59.1,59.1,0,0,0,1.17,10.16c.86,3.58.53,6.51-.07,10.06-.83,4.78-2.17,10.41-.84,15.27,1.68,6.12,9.77,11.73,15.09,6.64,2.59-2.47,2.85-6.47,2.89-9.75C259.62,226.79,259.58,222.58,257.83,218Z" transform="translate(-16.65 -26.68)" fill="#f4b796"/><path d="M183.7,221.15c-.21-2.63-1.89-5.05-2.49-7.58s-1.81-5.22-1.76-8,2.16-4.13,4.09-5.86.76-5.39.54-7.85a5.17,5.17,0,0,1,.85-3.87c.84-1.14,2.67-1.91,3.06-3.13s-.43-3-.59-4.23a5.61,5.61,0,0,1,1.28-4.25,62.57,62.57,0,0,0,5.19-9c1-2.25,1.78-6.89,4.77-7.14,3.39-.28,4.62,4.42,4.59,7.1,0,3.13-1.65,5.87-3,8.52a12.89,12.89,0,0,0-.69,1.57c2-1.48,6.25-5.14,8.37-1.77,2.8,4.44-1.84,10.06-5,12.73-1.79,1.52-4,4.09-6.16,5.09a2.47,2.47,0,0,1,2.24.31c1.47,1,1.35,3.12,1.23,4-.42,3-3.24,5.19-5.7,6.57-3.17,1.78-4.9,3.38-5.87,7s-1.78,7.69-4.57,10.27C183.94,221.16,183.88,220.7,183.7,221.15Z" transform="translate(-16.65 -26.68)" fill="#f4b796"/><path d="M199.11,161.78c-.09-1-.5-1.88-1.82-1.6-1.11.47-2.88,5.24-3.08,6.31a15.93,15.93,0,0,1,2,.61c.92.4,1.32.23,1.86-.65A7.58,7.58,0,0,0,199.11,161.78Z" transform="translate(-16.65 -26.68)" fill="#f4e2d4"/><path d="M204.59,174.14A11.58,11.58,0,0,0,201.4,176c-.9.64-1.74,1.39-2.65,2,.83,0,1.31.86,1.8,1.45A1.9,1.9,0,0,0,203,180c1.69-.54,4-2.43,3.87-4.34C206.74,174.14,205.42,174.06,204.59,174.14Z" transform="translate(-16.65 -26.68)" fill="#f4e2d4"/><path d="M194.91,194.52c-1.09.52-1.76.94-1.84,2.18-.06,1.05,0,2.69,1.49,2.23a11,11,0,0,0,2.71-1.44,2.85,2.85,0,0,0,1-2.85,1,1,0,0,0-1.16-1A7.65,7.65,0,0,0,194.91,194.52Z" transform="translate(-16.65 -26.68)" fill="#f4e2d4"/><path d="M251.58,186.46c-3,.92-3.49,5.27-3,8.11.09.46.25,1.37.69,1.62s3.3-.13,3.33-.43C252.73,194.94,252.11,186.21,251.58,186.46Z" transform="translate(-16.65 -26.68)" fill="#f4e2d4"/><path d="M228.06,354.11l1.4,2c.86,4.41,2.91,65.85,5.42,85.35h96c-12.62-31.45-41.48-91.75-42.54-94.24s-1.64-5.45-3.38-7.84c-1.12-1.54-1.83-1.18-3.47-.3a52.41,52.41,0,0,1-11.8,4.42c-2.3.59-4.65.75-7,1.28-2.65.61-5.25,1.51-7.9,2.18-5.88,1.49-11.75,3.14-17.71,4.33-3.45.68-6.21,1.1-9.32,2.68C227.7,354.26,227.9,354.05,228.06,354.11Z" transform="translate(-16.65 -26.68)" fill="#ffa669"/><path d="M236.75,361.94c.29,1.39,6.88,61,9.13,79.54h2.49c-2.28-18.6-8.94-78.62-9.23-80a71,71,0,0,1-1.33-7.89l0-.2-2.43.21,0,.21A72.34,72.34,0,0,0,236.75,361.94Z" transform="translate(-16.65 -26.68)" fill="#0082fe"/><path d="M263.18,441.48h2.54c-4.14-19.05-16.42-81-16.81-82.31a35.83,35.83,0,0,1-1.94-9.36l-2.44,0a37.75,37.75,0,0,0,2,10C247,361.21,259.1,422.55,263.18,441.48Z" transform="translate(-16.65 -26.68)" fill="#0082fe"/><path d="M257.18,356.13c.53,1.69,1.07,3.44,1.72,5.13,2.37,6.27,17.14,62.44,21.9,80.22h2.59c-4.82-17.92-19.82-74.76-22.21-81.08-.62-1.63-1.15-3.34-1.67-5-.4-1.27-.81-2.59-1.26-3.89a9.78,9.78,0,0,1-.75-4.93l-.66-.14-1.84.5a13.35,13.35,0,0,0,.95,5.38C256.39,353.57,256.79,354.87,257.18,356.13Z" transform="translate(-16.65 -26.68)" fill="#0082fe"/><path d="M265.89,348.62c.38.94.75,1.88,1.12,2.82.7,1.78,24.31,72.39,30.62,90h2.95c-6.92-20-30.64-89.25-31.3-90.94-.38-.94-.75-1.88-1.12-2.82-.28-.7-.6-1.38-.91-2s-.49-1-.71-1.56l-2.47.4c.3.77.64,1.5,1,2.21S265.64,348,265.89,348.62Z" transform="translate(-16.65 -26.68)" fill="#0082fe"/><path d="M277.46,347l.79,1.44c1.07,2,29.52,73.63,37.33,93.07h2.61c-7.06-17.52-36.69-92.2-37.8-94.24l-.78-1.44c-.41-.75-.8-1.57-1.2-2.44s-.72-1.54-1.11-2.3c-.77.31-1.54.59-2.31.86.42.8.82,1.64,1.21,2.47S277,346.15,277.46,347Z" transform="translate(-16.65 -26.68)" fill="#0082fe"/><path d="M285.77,338.42c-.63-2.05-2.27-4.22-3.25-6.18s-2-3.87-3-5.82c-.82-1.55-1.66-3-2.49-4.53-1.1-2-1.56-2.49-3.94-1.46a148.44,148.44,0,0,1-20.86,7.07c-6.71,1.83-13.79,3.76-20.7,4.43-.8.08-3.79.33-3.79.33-2.56,0-2.14,1.78-2,3.84s.2,4.22.39,6.39c.35,4,.35,8.17,1.05,12.15.35,2,.62,3.39,2.91,3.58s4.74-.52,6.88-.9a111.46,111.46,0,0,0,17.09-4.5c7.6-2.66,15.1-4.85,22.46-8.14C278.91,343.62,287,342.25,285.77,338.42Z" transform="translate(-16.65 -26.68)" fill="#007be1"/><path d="M265.69,146.32s10.81-9.43,11.68-10.72c1.08-1.58-5.72-19.54-2-26.34s36.94-13.58,43-10.68c6.7,3.23,14.94,39.73,10,45.13-4.38,4.8-33.94,10.78-40,9.38s-5.52-5.7-7.18-7.94C279.84,143.42,265.69,146.32,265.69,146.32Z" transform="translate(-16.65 -26.68)" fill="#ffa669"/><path d="M420,247.16a5.82,5.82,0,0,1-4.06-7.15c1.09-3.26,2.35-6.46,3.74-9.61a56.1,56.1,0,0,1,9.28-14.65,36.58,36.58,0,0,1,4.08-3.89,3.89,3.89,0,0,0-.35-1.45c-1-2.2-2.41-3.32-2.86-5.21-.26-1.08.3-2.33.22-3.42a12.94,12.94,0,0,0-1-4.7c-.88-2.21-1.82-3.94-4-4.31s-2.55,1-2.81-1c-.29-2.24,1.69-13.45.54-15.43-2.7-4.67-7.83-.54-9.26,3-2.62,6.56-4.44,14-6.24,20.94-3.38,13-13.09,22.43-23.92,29.81-1.88,1.28-7,5.17-9.28,2.94-1.55-1.51-1.12-5.09-1-7,.35-4.89,1.9-12.08.45-16.53-3.65,1.67-7.18,2.2-10.66,4.39-3,1.88-5.28,3.77-6.77,6.95-2.68,5.72-5.88,13.08-6.2,19.64-.16,3.27.67,6.32.78,9.54.13,3.84-.26,7.79.11,11.67.77,8.14.87,16.16.93,24.32.05,6.92-1.81,14.09-3.76,20.73-1.43,4.88-4.94,8.21-.53,12.16,4.26,3.83,10.67,5.57,16.14,7.08a96,96,0,0,0,14.89,3.08c1.8.18,4.94,1,6.42-.06s1.83-4.21,2.08-5.81c1.27-8.29,2.79-39.62,9.74-48.12,2-2.4,10.85-12.25,12.79-14.59,3.71-4.47,7.58-8.81,11.35-13.22A8.17,8.17,0,0,1,420,247.16Z" transform="translate(-16.65 -26.68)" fill="#acdeff"/><path d="M344.79,306.08h.43l.43-.4C345.28,305.83,345.14,306.05,344.79,306.08Z" transform="translate(-16.65 -26.68)" fill="#362e56"/><path d="M344.79,306.08h0Z" transform="translate(-16.65 -26.68)" fill="#362e56"/><path d="M380.73,441.48c3.37-29.63,11.65-114.15,10.2-134.25-1.74-.32-17.63-.53-23.45-2.32-8.07-2.49-13.34-4.57-19.51-9.07,0,0-9.94,19.77-11.56,22.68-13.48,24.28-45.8,88.72-56.32,123Z" transform="translate(-16.65 -26.68)" fill="#007be1"/><path d="M385.48,313.89c-.68-1.63-4.53-2.54-5.83-1.88a5.28,5.28,0,0,0-2.58,4.61c.08,3.41,4.92,5.7,7.44,3.1C385.91,318.28,386.64,316.64,385.48,313.89Z" transform="translate(-16.65 -26.68)" fill="#0082fe"/><path d="M382.7,316.09a8.48,8.48,0,0,0-1.49-2,.81.81,0,0,0-1,.42c0,.28.42.48.57.72a19.35,19.35,0,0,1,1.29,2.12c.13.25,0,.67.32.83a.52.52,0,0,0,.78-.29A3.2,3.2,0,0,0,382.7,316.09Z" transform="translate(-16.65 -26.68)" fill="#362e56"/><path d="M390.93,307.23a205.62,205.62,0,0,1-27.48-6.15c-2.7-1-12.91-5.28-15.18-6.53-2.3,1.72-9.44,16.58-9.57,18.42,11.15,10.41,44.25,25.51,45.91,24.93C385.87,337.45,390.67,310.94,390.93,307.23Z" transform="translate(-16.65 -26.68)" fill="#004472"/><path d="M188.57,337.94a50.93,50.93,0,0,0-6.72-10.09,53.65,53.65,0,0,1-6.94-10.37c-1.5-2.84-3.62-5.87-4.26-9-.74-3.61-1.94-7.29-2.85-10.91-1.63-6.52-3.18-12.9-4.24-19.71-.95-6-2.42-12.52-6-17.86-1.68-2.48-3.07-5.15-4.72-7.59s-2.82-5.33-4.36-7.8c-.09-1-.13-.61-.23-.19-3.3-.3-6.38,1.23-9.39,2.42-9.48,3.72-17.71,10.07-26.07,15.71-4.68,3.16-10.92,7.66-13.63,12.69a7,7,0,0,0-.27,5.67c.64,1.85,1.9,3.36,2.67,5.29a77.33,77.33,0,0,0,11.73,20.61,33.25,33.25,0,0,0,14.07,9.71c3.58,1.42,7.19,3.74,9.14,7.22,3.89,7,6,14.69,9,22,1.31,3.16,2.45,6.4,3.51,9.58.49,1.48.37,4.15,1.42,5.31,1.34,1.47,3.36.51,5,0a37.64,37.64,0,0,0,7.17-3.61c3.91-2.17,8.38-3.51,12.38-5.65C179.27,349.12,191.7,344.08,188.57,337.94Z" transform="translate(-16.65 -26.68)" fill="#f4b796"/><path d="M142.24,367.41c13.74,40.72,26.49,64.2,32.26,74.07h109c-12.69-16.07-46.16-61.3-91-105.4-2.65-2.61-4.67-6.26-8.13-8.44a22.38,22.38,0,0,1-7.49,8.16c-2.16,1.38-3.85,3.35-6,4.84s-4,2.79-6,4.13a62.81,62.81,0,0,1-18.41,8,27.26,27.26,0,0,0-5.48,2.11c-.77.39-3.39,1-3.82,1.72s1.43,3.25,2,4.26A44.9,44.9,0,0,1,142.24,367.41Z" transform="translate(-16.65 -26.68)" fill="#004472"/><path d="M107,219.32a19.6,19.6,0,0,0-3.2-3.49c-.93-1-1.86-2.39-3.11-3-3.51-1.57-5.47,1.44-5.37,4.41s1.45,5.37,3.19,7.83c0-.12,0-.23,0-.41,1.78,4.65,5.25,4.52,8.25,2.6C110,225.18,108.7,222.2,107,219.32Z" transform="translate(-16.65 -26.68)" fill="#f4b796"/><path d="M98.48,225.12a.33.33,0,0,0,.11.16Z" transform="translate(-16.65 -26.68)" fill="#f4b796"/><path d="M106.89,238c-.62-2.56-1.86-4.65-4.5-5.23a19.29,19.29,0,0,0-4.61-.2,30.19,30.19,0,0,0-4.48.62c-1.57.29-4,.8-4.6,1.66.12,3,.83,5,1.15,7.53a34.61,34.61,0,0,1-.12,6.9c-.22,3.29-.37,6.59-.75,9.85-.44,3.69-2,10.22,1.87,12.58,2.9,1.77,5.12,0,7.27-1.94,1.65-1.51,2.43-3.75,3.32-5.77a53.34,53.34,0,0,0,3-8.73c.79-3.2,2.08-6,2.3-9.33C106.93,243.35,107.5,240.49,106.89,238Z" transform="translate(-16.65 -26.68)" fill="#f4b796"/><rect x="73.03" y="211.01" width="101.34" height="54.31" rx="10.05" transform="translate(-151.43 283.67) rotate(-78.16)" fill="#362e56"/><rect x="73.92" y="207.13" width="101.34" height="54.31" rx="10.05" transform="translate(-146.92 281.46) rotate(-78.16)" fill="#007be1"/><rect x="101.67" y="193.66" width="46.53" height="77.92" transform="matrix(0.98, 0.21, -0.21, 0.98, 33.75, -47.37)" fill="#fff"/><rect x="135.03" y="183.33" width="1.4" height="14.06" rx="0.65" transform="translate(-95.09 257.45) rotate(-78.16)" fill="#362e56"/><path d="M101.54,239.09a9.69,9.69,0,0,0-5.11-3.67,41.61,41.61,0,0,0-5.89-1.37c-1.73-.29-3.38,2-3.7,3.38-.38,1.59-.68,3.8,0,5.23.44.87,1.54,1.07,2,1.87-.57.44-1.25.47-1.86.92a7.63,7.63,0,0,0-1.41,1.43,7.79,7.79,0,0,0-1.44,3.82,6.87,6.87,0,0,0,.76,4.26,8.66,8.66,0,0,1,.92,1.79c.21.91-.13,1.08-.78,1.78-1.37,1.47-2.6,2.79-2.89,4.85a7.26,7.26,0,0,0,1.23,5.07,7.94,7.94,0,0,0,3.75,3.61c1.43.56,3.28,1.13,4.64.21s1.54-3.48,1.46-5c-.1-2.11-1.15-3.39-1.82-5.26,1.24.63,1.88,1.39,3.45,1a5.59,5.59,0,0,0,3-2.29c1.67-2.82.28-6.45-1.22-9A22.38,22.38,0,0,0,93.93,248c.92,0,1.86.79,2.78,1a5.65,5.65,0,0,0,3-.23,5,5,0,0,0,3.36-4.47A8.85,8.85,0,0,0,101.54,239.09Z" transform="translate(-16.65 -26.68)" fill="#f4b796"/><path d="M160.48,361.67c7.59-3.18,14.11-8.9,20.57-13.89,2.52-2,5.34-3.41,7.77-5.55a22.21,22.21,0,0,0,3.8-3.83c.22-.32.47-.64.73-1-.28-.45-.55-.9-.82-1.36a23.88,23.88,0,0,0-1.76-2.61c-2.75,6.07-8.92,10.13-14.4,14-3.58,2.54-6.76,5.26-10.67,7.3-4.61,2.41-9.48,5-14.53,6.36-3.18.85-6.51,1.1-9.66,2l-1,.32q.72,1.54,1.41,3.12c2.13-.65,4.3-1.14,6.45-1.68C152.42,363.91,156.62,363.29,160.48,361.67Z" transform="translate(-16.65 -26.68)" fill="#ffce00"/><path d="M98.37,240.26a9.31,9.31,0,0,0-2-1.31c-.79-.28-1.26.18-1.81.68a6.15,6.15,0,0,0-1.45,2.06c-.2.4-.64,1.95-.15,2.19.12,1,1,1.37,1.58,1.67a12,12,0,0,0,2.23,1c1.53.4,2.82-1.34,3.17-2.63C100.39,242.36,99.58,241.16,98.37,240.26Z" transform="translate(-16.65 -26.68)" fill="#f4e2d4"/><path d="M91.94,253.38c-.93.76-2.71,2.51-2.26,3.83a5.39,5.39,0,0,0,2.59,3.26A2.61,2.61,0,0,0,95.36,259a3.65,3.65,0,0,0-.27-3.91C94.38,254,93.3,252.28,91.94,253.38Z" transform="translate(-16.65 -26.68)" fill="#f4e2d4"/><path d="M89,264.57c-.5-.51-.92-.25-1.44.1-.92.61-2,1.35-2.1,2.55a3.85,3.85,0,0,0,.86,1.95,1.74,1.74,0,0,0,1.37.77,2.16,2.16,0,0,0,2.33-1c.5-.85.08-2-.22-2.87A4.31,4.31,0,0,0,89,264.57Z" transform="translate(-16.65 -26.68)" fill="#f4e2d4"/></g><path d="M311.88,111.41c.24.75,3.17,14.53,4.27,19.38a2.56,2.56,0,0,1-.68,2.82c-3.05,2.46-6.66,3.61-10.4,4.4l-.66.16c-.07-.26-.15-.52-.21-.78q-1.81-8.1-3.63-16.19a1.67,1.67,0,0,0-.59-1.1,5.8,5.8,0,0,0-2.52-1.18c-.66-.08-1.31-.29-2-.38-.45-.07-.4-.24-.2-.52h.28c.07.13.14.22.28,0l.4-.06a.17.17,0,0,0,.17.05l1.28-.27a2.46,2.46,0,0,0,1.73-.37l3.56-.81c.29.12.55.15.63-.22l.23-.12a.82.82,0,0,0,1.06-.37c.6,0,1-.48,1.51-.63a8.38,8.38,0,0,0,5-3.49A1.91,1.91,0,0,1,311.88,111.41Z" transform="translate(-16.65 -26.68)" fill="#dbf2ff"/><path d="M295.28,118c-.2.28-.24.45.2.52.67.09,1.32.3,2,.38A5.8,5.8,0,0,1,300,120.1a1.67,1.67,0,0,1,.59,1.1q1.8,8.1,3.63,16.19c.06.26.14.52.21.78-.09,1,.41,1.92.48,3a6.07,6.07,0,0,1-1.5-.83,11.56,11.56,0,0,0-5.6-1.2,13.3,13.3,0,0,1-4.65-.53,2.45,2.45,0,0,1-1.74-1.93c-1.34-6.17-2.75-12.33-4.13-18.49-.06-.26-.09-.53-.14-.8.45-.14,1.63-1.06,1.9-1,1.12.09,1.6.94,2.71,1s1.94,1,3.09.65A.45.45,0,0,1,295.28,118Z" transform="translate(-16.65 -26.68)" fill="#faf2f1"/><path d="M295.31,118.24a16.11,16.11,0,0,1-8-.88.56.56,0,0,1-.24-.16.48.48,0,0,1-.07-.2,3.07,3.07,0,0,1,1.43-3.11,19.83,19.83,0,0,1,5.93-2.9,36.66,36.66,0,0,1,8.14-1.85c2.45-.27,5.7-.73,8,.48.24.13,1.78,1.6,1.27,1.91-.12.06-.27.1-.34.2-3.13,4.72-10.08,5.81-15.26,6.41Zm4.32-3.3c.27-.06.54-.1.79-.18a6.3,6.3,0,0,0,3.24-1.75c.35-.42.18-.65-.15-.82a2.6,2.6,0,0,0-1.08-.32,12.2,12.2,0,0,0-7.26,1.83c-.32.21-.67.5-.52.93s.51.53.91.59A10.74,10.74,0,0,0,299.63,114.94Z" transform="translate(-16.65 -26.68)" fill="#fdfefe"/><path d="M299.63,114.94a10.74,10.74,0,0,1-4.07.28c-.4-.06-.78-.19-.91-.59s.2-.72.52-.93a12.2,12.2,0,0,1,7.26-1.83,2.6,2.6,0,0,1,1.08.32c.33.17.5.4.15.82a6.3,6.3,0,0,1-3.24,1.75C300.17,114.84,299.9,114.88,299.63,114.94Z" transform="translate(-16.65 -26.68)" fill="#53585f"/><path d="M101.73,185.07s-10.58-9.71-12-10.43c-1.69-.89-23.64,10-30.81,7.06S41.38,146.49,43.6,140.18c2.47-7,50.71-24.13,56.62-19.84,5.25,3.81,14.48,32.53,13.76,38.76S100.9,168,98.85,169.87C97.28,171.32,101.73,185.07,101.73,185.07Z" transform="translate(-16.65 -26.68)" fill="#0067ad"/><path d="M208,62.23c-4-3-9.18,2.12-9.85,6.32-3-2.87-10.68-3.29-11.74,1.76-1.17,5.56,4.89,9.37,9.1,11.44,2.66,1.31,6,1.57,8.59,2.94,1.09-2.76,3.4-5.13,4.55-7.86C210.45,72.5,212.51,65.65,208,62.23Z" transform="translate(-16.65 -26.68)" fill="#f78631"/><path d="M169,52.44c1.9,1.29,3.74,2.66,5.6,4.05,1.18.89,2.58,2.45,4,2.95,0,0,1.29,1.19,2.09.81-1.1-1.39-2.87-2.46-4.21-3.71s-2.82-3-4.23-4.4-7.94-9.68-9.94-8.13C162.77,47.58,166.2,50.51,169,52.44Z" transform="translate(-16.65 -26.68)" fill="#362e56"/><path d="M179.67,75.86c-1.45-.13-16.45,5.26-18.48,6.11-1.1.46-3,2.54-1.46,3.6S180,76.89,179.67,75.86Z" transform="translate(-16.65 -26.68)" fill="#362e56"/><path d="M188,26.68c-2.67,1.44-.69,5-.27,7.52C188.07,36.09,192,52.32,193,53,193.51,51.69,190.63,26.85,188,26.68Z" transform="translate(-16.65 -26.68)" fill="#362e56"/><path d="M218.11,31.67c-2.36.47-8.6,17.57-7.9,20.43C211.59,50.38,221.3,31.05,218.11,31.67Z" transform="translate(-16.65 -26.68)" fill="#362e56"/><path d="M218,45c.61-.08,3.69-3.43,5-4.81.7-.71,3.85-3.56,3.66-4.56-.52-2.73-3.32.58-3.86,1.38C221.42,39.06,217.58,44.89,218,45Z" transform="translate(-16.65 -26.68)" fill="#362e56"/><path d="M217.19,64.41c.41.56,4.57-.11,6-.32,1.94-.29,9.55-2,11.35-2.25,2.14-.36,5.34-1.59,5.31-2.37C238.48,55.7,217.15,63.3,217.19,64.41Z" transform="translate(-16.65 -26.68)" fill="#362e56"/><path d="M218.74,74.6c-.23.58,13.26,6.7,13.09,3.51C231.73,77.28,222.16,73.94,218.74,74.6Z" transform="translate(-16.65 -26.68)" fill="#362e56"/><path d="M188.65,89c-.51-.36-9.61,11.32-6.47,11.9C183,101,188.49,92.43,188.65,89Z" transform="translate(-16.65 -26.68)" fill="#362e56"/><path d="M160.34,57.18c1.45.8,5.91,2.39,6.73,1.87-.34-1.14-1.83-1.76-2.9-2.21s-3.43-2.15-4.39-2.22C157.23,54.41,159.22,56.56,160.34,57.18Z" transform="translate(-16.65 -26.68)" fill="#362e56"/><path d="M135.48,222.3c-2.18-4.54-9.12-2.32-11.65,1.1-1.38-3.94-8-7.82-11.23-3.82-3.59,4.41,0,10.57,2.83,14.34,1.77,2.39,4.58,4.14,6.29,6.56,2.22-2,5.37-3,7.64-4.9C133,232.56,137.94,227.43,135.48,222.3Z" transform="translate(-16.65 -26.68)" fill="#f78631"/><path d="M139.37,238.24" transform="translate(-16.65 -26.68)" fill="#362e56"/><path d="M37.18,331.61c-1.45-.12-16.45,5.27-18.49,6.12-1.09.45-3,2.54-1.45,3.6S37.52,332.65,37.18,331.61Z" transform="translate(-16.65 -26.68)" fill="#362e56"/><path d="M45.54,282.43c-2.68,1.45-.69,5-.27,7.53.3,1.88,4.27,18.12,5.28,18.82C51,307.44,48.14,282.6,45.54,282.43Z" transform="translate(-16.65 -26.68)" fill="#362e56"/><path d="M75.61,287.43c-2.36.46-8.6,17.57-7.89,20.42C69.1,306.13,78.8,286.8,75.61,287.43Z" transform="translate(-16.65 -26.68)" fill="#362e56"/><path d="M74.7,320.17c.41.55,4.57-.12,6-.33,2-.29,9.56-1.94,11.35-2.24,2.15-.36,5.35-1.6,5.32-2.38C96,311.46,74.66,319.06,74.7,320.17Z" transform="translate(-16.65 -26.68)" fill="#362e56"/><path d="M46.15,344.71c-.5-.36-9.6,11.32-6.46,11.9C40.51,356.7,46,348.18,46.15,344.71Z" transform="translate(-16.65 -26.68)" fill="#362e56"/><path d="M96.31,150.19a4.32,4.32,0,0,0,.89.92c.24.21.22.32,0,.51-2.62,2.31-5.19,4.67-7.9,6.88a22.72,22.72,0,0,1-5.77,3.32,26.79,26.79,0,0,1-6.84,1.76c-2.52.34-5,.71-7.56,1.06-.46.06-.45.06-.48-.42s-.07-.78-.1-1.17a3,3,0,0,0-.14-.84c0-.12,0-.25,0-.37A20.53,20.53,0,0,0,67,157.38a25.45,25.45,0,0,0-2.34-4.17,23.09,23.09,0,0,0-2.19-2.84l-.76-.92c.72-.67,1.51-1.24,2.27-1.85,1.79-1.46,3.62-2.87,5.41-4.33a24.27,24.27,0,0,1,6-3.81,24.93,24.93,0,0,1,4.87-1.34c2-.38,4-.79,6-1.18l4-.78c.13,0,.27-.06.31.14a4.26,4.26,0,0,0,.15,1.12c0,.11,0,.23,0,.34a31.27,31.27,0,0,0,1.6,5.75,21.38,21.38,0,0,0,3.47,6A4.1,4.1,0,0,0,96.31,150.19Zm-12.26,9.88c.45-.24,1-.47,1.5-.76s.72-.59,1.12-.77a11.57,11.57,0,0,0,2.6-1.82c2-1.73,3.93-3.5,5.9-5.23.2-.18.18-.26,0-.42a16.88,16.88,0,0,1-3.52-4.7,21.05,21.05,0,0,1-1.32-3.23,25.3,25.3,0,0,1-1.13-5c0-.26-.07-.35-.38-.29-2.24.46-4.5.87-6.75,1.33a33,33,0,0,0-6,1.48,20,20,0,0,0-3,1.57,38.86,38.86,0,0,0-3.16,2.42L64,149.32c-.24.19-.26.31,0,.55a25.27,25.27,0,0,1,2,2.5,24.43,24.43,0,0,1,3,5.57,15.44,15.44,0,0,1,1,4.79c0,.27.09.33.36.29,2.24-.33,4.48-.66,6.72-1A23.07,23.07,0,0,0,84.05,160.07Z" transform="translate(-16.65 -26.68)" fill="#46aff7"/><path d="M90.59,137.42a4.26,4.26,0,0,1-.15-1.12,22.22,22.22,0,0,1,3.32-3.53,7.56,7.56,0,0,1,4-1.9,4.31,4.31,0,0,1,4.24,2.49,9,9,0,0,1,.66,4.95,15.68,15.68,0,0,1-.85,3.67,19.87,19.87,0,0,1-2.69,5.22A17.4,17.4,0,0,1,96.64,150a1.23,1.23,0,0,1-.33.23,4.1,4.1,0,0,1-.61-.64,2,2,0,0,0,.44-.26,14.89,14.89,0,0,0,2.6-2.94,18.24,18.24,0,0,0,3.13-8.07,7.55,7.55,0,0,0-.6-4.65,3.31,3.31,0,0,0-3.06-1.93,6.19,6.19,0,0,0-3.91,1.71A20,20,0,0,0,90.94,137,1.27,1.27,0,0,1,90.59,137.42Z" transform="translate(-16.65 -26.68)" fill="#78caff" stroke="#78caff" stroke-miterlimit="10" stroke-width="2"/><path d="M84.05,160.07a23.07,23.07,0,0,1-7,2c-2.24.29-4.48.62-6.72,1-.27,0-.35,0-.36-.29a15.44,15.44,0,0,0-1-4.79,24.43,24.43,0,0,0-3-5.57,25.27,25.27,0,0,0-2-2.5c-.22-.24-.2-.36,0-.55l5.87-4.67A38.86,38.86,0,0,1,73,142.23a20,20,0,0,1,3-1.57,33,33,0,0,1,6-1.48c2.25-.46,4.51-.87,6.75-1.33.31-.06.35,0,.38.29a25.3,25.3,0,0,0,1.13,5,21.05,21.05,0,0,0,1.32,3.23,16.88,16.88,0,0,0,3.52,4.7c.18.16.2.24,0,.42-2,1.73-3.92,3.5-5.9,5.23a11.57,11.57,0,0,1-2.6,1.82c-.4.18-.72.54-1.12.77S84.5,159.83,84.05,160.07Zm-7.2-1.14c-.09-.32-.29-.23-.5-.17-.61.19-1.23.37-1.85.54l-2.28.62c7.71,1.28,15.65-2,19.27-8.9a.37.37,0,0,0-.14.06,33.69,33.69,0,0,1-4.11,2.83c-1.08.66-2.19,1.27-3.32,1.84A40.8,40.8,0,0,1,78.59,158a6.43,6.43,0,0,1-1.33.51.24.24,0,0,0-.3.14C76.92,158.72,77,158.84,76.85,158.93ZM70,154.36a55.56,55.56,0,0,0,18.6-8.58h-.14c-.92.23-1.82.52-2.72.82C84.66,147,73.59,151.78,70,154.36Zm7.51,4.29a.47.47,0,0,0-.1.45c0,.12.14.2.26.12a.39.39,0,0,0,.13-.43C77.77,158.67,77.67,158.61,77.51,158.65Z" transform="translate(-16.65 -26.68)" fill="#acdeff"/><path d="M87.6,159.19c-.06-.09-.13-.05-.19,0s-.15.1-.09.2a.14.14,0,0,0,.18.08A.22.22,0,0,0,87.6,159.19Z" transform="translate(-16.65 -26.68)" fill="#b7c8f3"/><path d="M78.34,158.11c0-.05.16-.1.25-.13a40.8,40.8,0,0,0,5.33-2.23c1.13-.57,2.24-1.18,3.32-1.84a33.69,33.69,0,0,0,4.11-2.83.37.37,0,0,1,.14-.06c-3.62,6.88-11.56,10.18-19.27,8.9l2.28-.62c.62-.17,1.24-.35,1.85-.54" transform="translate(-16.65 -26.68)" fill="#46aff7"/><path d="M81.63,148.1c1.35-.53,2.73-1,4.11-1.5.9-.3,1.8-.59,2.72-.82h.14A55.56,55.56,0,0,1,70,154.36a2,2,0,0,0,.48-.35l.59-.4c.37-.26.75-.51,1.13-.75.76-.49,1.54-1,2.32-1.41A47,47,0,0,1,79.39,149C80.13,148.7,80.88,148.4,81.63,148.1Z" transform="translate(-16.65 -26.68)" fill="#46aff7"/><path d="M73.24,145.77c.09,0,.21,0,.24-.17l.26-.14a25.12,25.12,0,0,1,3-1.63,25.56,25.56,0,0,1,10-2.36,2.32,2.32,0,0,1-.93.39c-1.47.53-2.91,1.11-4.37,1.67-2.66,1-5.22,2.28-7.79,3.49-1.2.56-2.36,1.23-3.52,1.87-.85.48-1.67,1-2.52,1.47a29.47,29.47,0,0,1,5.49-4.54Z" transform="translate(-16.65 -26.68)" fill="#46aff7"/><path d="M69.92,153.79c0-.07-.08-.14-.17-.07a.19.19,0,0,0-.08.25c0,.08.1.12.18.08A.19.19,0,0,0,69.92,153.79Z" transform="translate(-16.65 -26.68)" fill="#fefefe"/><path d="M87.6,159.19a.22.22,0,0,1-.1.26.14.14,0,0,1-.18-.08c-.06-.1,0-.16.09-.2S87.54,159.1,87.6,159.19Z" transform="translate(-16.65 -26.68)" fill="#849dda"/><path d="M69.92,153.79a.19.19,0,0,1-.07.26c-.08,0-.14,0-.18-.08a.19.19,0,0,1,.08-.25C69.84,153.65,69.88,153.72,69.92,153.79Z" transform="translate(-16.65 -26.68)" fill="#b7c8f3"/><path d="M69,163.45a3.15,3.15,0,0,1,.19.9,15.11,15.11,0,0,1-7-.84,18.64,18.64,0,0,1-6.94-4,10,10,0,0,1-2.36-3.29,4.8,4.8,0,0,1,.7-5.14,6.27,6.27,0,0,1,3.32-1.52,16.78,16.78,0,0,1,4.37-.09c.13,0,.26.06.37,0,.26.35.53.69.79,1h-.38a19.41,19.41,0,0,0-4-.13,6.6,6.6,0,0,0-3.57,1.19,3.45,3.45,0,0,0-1.11,3.73,6.88,6.88,0,0,0,1.8,3.07,16,16,0,0,0,4.5,3.3,18.55,18.55,0,0,0,4.69,1.67A12.8,12.8,0,0,0,69,163.45Z" transform="translate(-16.65 -26.68)" fill="#78caff" stroke="#78caff" stroke-miterlimit="10" stroke-width="2"/><circle cx="42.78" cy="304.67" r="15.27" fill="#fff" stroke="#f27520" stroke-miterlimit="10"/><g id="VSK2kL.tif"><path d="M62.86,323v0h.28Z" transform="translate(-16.65 -26.68)" fill="#f27520"/><path d="M67.66,329.86a1.13,1.13,0,0,0-1-.77,8,8,0,0,0-.85,0h-4v-4.61a1.53,1.53,0,0,0-1-1.37H58.39a1.26,1.26,0,0,0-1,.6,1.19,1.19,0,0,0-.18.64v4.73H52.54a1.5,1.5,0,0,0-.88.29,1.09,1.09,0,0,0-.46.74v2.43a1.8,1.8,0,0,0,.21.63,1.05,1.05,0,0,0,.85.54c.28,0,.56,0,.84,0h4v4.54a1.82,1.82,0,0,0,.12.65,1.11,1.11,0,0,0,1,.75c.37,0,.74,0,1.1,0h1a1.75,1.75,0,0,0,1-.34,1.08,1.08,0,0,0,.42-.89c0-1.53,0-3.06,0-4.59v-.13h4.54a1.7,1.7,0,0,0,.71-.14,1.09,1.09,0,0,0,.62-.61v-3.1Z" transform="translate(-16.65 -26.68)" fill="#f27520"/></g><circle cx="199.52" cy="154.94" r="2.46" fill="url(#_ÂÁ_Ï_ÌÌ_È_ËÂÌÚ_62)"/><circle cx="207.3" cy="156.71" r="2.46" fill="url(#_ÂÁ_Ï_ÌÌ_È_ËÂÌÚ_62-2)"/><circle cx="215.34" cy="158.62" r="2.46" fill="url(#_ÂÁ_Ï_ÌÌ_È_ËÂÌÚ_62-3)"/><path d="M442.57,219c2.67-.29,3.55,1.25,2.47,3.6a23.49,23.49,0,0,1-2.2,3.58c-.83,1.18-1.35,2.44-2.14,3.64-3,4.52-17.69,19.61-21.79,22.45a16,16,0,0,1-5.35,3.43c-1.61.53-4.21,1-5.42.46-1.05-.47-2.42-1.47-2.23-2.77.38-2.59,3.74-6.27,6.47-8.05,2.42-1.56,18.9-19.09,20.63-20.94C435.38,221.85,439.44,219.31,442.57,219Z" transform="translate(-16.65 -26.68)" fill="#acdeff"/><path d="M437.05,206.25c2.84.3,3.74,2.31,2.56,4.81a22.9,22.9,0,0,1-2.39,3.68c-.91,1.18-1.48,2.54-2.33,3.76-3.22,4.59-19.08,18.81-23.47,21.17a13,13,0,0,1-5.73,2.76c-1.72.24-4.48.17-5.75-.74-1.11-.79-2.54-2.3-2.32-3.77.44-2.94,4.07-6.47,7-7.91,2.59-1.27,20.35-17.92,22.22-19.68C429.39,207.93,433.73,205.91,437.05,206.25Z" transform="translate(-16.65 -26.68)" fill="#acdeff"/><path d="M461.48,132.66c1.71-1.4,9.77-6.89,8-9.5-3.62-1.24-13.87,12.18-17.32,16.4a13.78,13.78,0,0,0,4.41-2.57C458.28,135.6,459.77,134.06,461.48,132.66Z" transform="translate(-16.65 -26.68)" fill="#362e56"/><path d="M479.16,160.35c1.53.53,7.83,3.6,9.6,1.05.22-3.23-13.1-3.91-17.34-4.29a7.09,7.09,0,0,0,3.1,1.9C476,159.52,477.63,159.82,479.16,160.35Z" transform="translate(-16.65 -26.68)" fill="#362e56"/><path d="M483.73,149.18c2.16.1,6.72-.66,8.16-2.49-2.21-5-12.8-1.4-15.66-1-3.68.55-7.4,1.32-11,2a30.15,30.15,0,0,0-8.44,2.74c0,.28-.09.38-.15.4,1,.9,14.29-1,18.78-1.31A69.94,69.94,0,0,1,483.73,149.18Z" transform="translate(-16.65 -26.68)" fill="#362e56"/><path d="M469.65,176.8c-.08-3.17-13.13-12.16-15.7-13.4.55,1.88,4.23,5.64,5.87,7.39C462.92,174.11,468.49,178.1,469.65,176.8Z" transform="translate(-16.65 -26.68)" fill="#362e56"/><path d="M381.45,130.33h0a5.52,5.52,0,0,0-1.8-.34c-.39-.08-.75.24-1,.51s.17.49.3.73a5,5,0,0,0,1.48,1.5c3.34.8,6.66,1.72,10,2.52,3.19.76,6.4,1.43,9.6,2.2,1.81.44,3.63.84,5.46,1.23,2.39.51,4.77,1,7.16,1.57,1.64.36,3.29.68,4.94,1,2.49.53,5,1,7.52,1.41a29.24,29.24,0,0,1-.39,5c-.45,4.42-.95,8.84-1.46,13.25-.58,5-1.31,10-2,14.94l-2.25,16.61L417,208c-.16.29-.37.57-.17.93l-.11.67c-.06-.19-.22,1.94-.27,2.31-1.23,9-2.4,18-3.8,27-.24,1.58-.44,3.18-.63,4.77a.82.82,0,0,1-.64.78,20,20,0,0,1-2.76.6,46.74,46.74,0,0,1-10.77.15,8.46,8.46,0,0,0-2.68.12,9.86,9.86,0,0,0,3,.81,30.13,30.13,0,0,0,4.34.79c1.23.08,2.47.12,3.7.21a8.43,8.43,0,0,0,2.51-.13c.71-.15,1.62.19,2.11-.7.05-.09.34-.08.52-.07s.52,0,.52.34-.25.26-.46.3c-.57.13-.5.51-.29.89a2,2,0,0,0,.43.45c-.12.25-.36.29-.6.33a31.28,31.28,0,0,1-6.91.26,70.16,70.16,0,0,1-8-1.18c-2.3-.39-4.56-1-6.83-1.59-2.67-.68-5.34-1.37-8-2.09-2.16-.59-4.34-1.07-6.47-1.77-1-.32-8-3.4-8-2.78-2.77-1-5.43-2.25-8.13-3.41-2-.85-3.9-1.82-5.94-2.52-.18-.07-.49,0-.5-.31s.3-.24.48-.3a9.57,9.57,0,0,0,1.78-.82,14.24,14.24,0,0,1,4.79,1.95,4.85,4.85,0,0,0,2.28.71,1.14,1.14,0,0,0-.54-.68,46.62,46.62,0,0,0-4.77-3.37,13.69,13.69,0,0,0-3-1.8c.51-3.71,2-13.74,1.94-13.9-.32-.74.75-7.77,1-10.55.26-3,.81-5.9,1-8.86.2-2.57.7-5.11.89-7.68.14-1.92.43-3.81.64-5.72,0-.41.36-1.83.33-2.07a2,2,0,0,1,0-.55c.67-5,1.25-10,1.83-15.05,1.16-10,2.66-20,3.92-30.07.11-.87.42-1.29,1.29-1.28,1.8.19,3.55.65,5.35.89a55.6,55.6,0,0,0-6.32-2.93c-.2-.68.31-1.19.41-1.79a3.52,3.52,0,0,1,2.3-2.58,56.7,56.7,0,0,1,10.15-3.44c3.15-.84,6.33-1.53,9.53-2.14a5.07,5.07,0,0,1,1.94.13c2.72.47,5.4,1.09,8.09,1.7.94.22,1.91.37,2.86.57,2.77.57,5.57,1,8.32,1.73,1.6.42,3.24.67,4.86,1a42,42,0,0,1,5,1.06c2.54.85,5.18,1.23,7.75,2,4.19,1.18,8.52,1.83,12.66,3.23,1.07.36,2.18.6,3.22,1.06.25.11.65.12.7.43s-.39.45-.61.66a.59.59,0,0,1-.58.17,17.85,17.85,0,0,0-3.31.68c-3.81.84-7.49,2.15-11.27,3.09a2.09,2.09,0,0,0-1,.51c.29.29.58.16.86.14,1.39-.11,2.77-.21,4.16-.39a46.52,46.52,0,0,0,7.12-1.43,4.31,4.31,0,0,0,2-.86,2.88,2.88,0,0,1,1.09.58,5.45,5.45,0,0,1-1.78.57c-3.06.74-6.13,1.44-9.19,2.17-1.68.39-3.36.8-5,1.2-1.94,0-3.74-.8-5.64-1.12-1.28-.22-2.56-.56-3.84-.84-2.48-.54-4.93-1.25-7.43-1.72-2.2-.41-4.37-.91-6.54-1.43-3-.73-6.05-1.28-9-2.12-1.37-.38-2.76-.63-4.14-.95-1.81-.43-3.62-.9-5.44-1.28-1.1-.24-1.37-.53-1.22-1.7.28.05.31.34.48.49" transform="translate(-16.65 -26.68)" fill="#e1b885"/><path d="M423.79,240.69a28.39,28.39,0,0,1-3.72,2.63c-2.19,1.45-4.41,2.85-6.71,4.12a4,4,0,0,1-1.8.7,2,2,0,0,1-.43-.45c-.21-.38-.28-.76.29-.89.21,0,.46,0,.46-.3s-.3-.32-.52-.34-.47,0-.52.07c-.49.89-1.4.55-2.11.7a8.43,8.43,0,0,1-2.51.13c-1.23-.09-2.47-.13-3.7-.21a30.13,30.13,0,0,1-4.34-.79,9.86,9.86,0,0,1-3-.81,8.46,8.46,0,0,1,2.68-.12,46.74,46.74,0,0,0,10.77-.15,20,20,0,0,0,2.76-.6.82.82,0,0,0,.64-.78c.19-1.59.39-3.19.63-4.77,1.4-9,2.57-18,3.8-27,.05-.37,1.93-14.2,2.62-19.34l2.25-16.61c.67-5,1.4-9.95,2-14.94.51-4.41,1-8.83,1.46-13.25a29.24,29.24,0,0,0,.39-5c.2-.55,0-1.14.14-1.69,1.68-.4,3.36-.81,5-1.2,3.06-.73,6.13-1.43,9.19-2.17a5.45,5.45,0,0,0,1.78-.57c.61,0,.42.48.38.82q-.66,5-1.34,10c-.44,3.28-.88,6.57-1.33,9.85,0,.29-1.88,13.94-2.46,18.11-1.3,9.35-2.55,18.72-3.89,28.07-.82,5.78-1.74,11.55-2.65,17.32-.48,3.06-1,6.12-1.53,9.18a.86.86,0,0,0-.18.8c-.11.67-.23,1.34-.34,2-.12-.14-.8,4.28-1.11,4.63" transform="translate(-16.65 -26.68)" fill="#c6925b"/><path d="M440.2,136.49a4.31,4.31,0,0,1-2,.86,46.52,46.52,0,0,1-7.12,1.43c-1.39.18-2.77.28-4.16.39-.28,0-.57.15-.86-.14a2.09,2.09,0,0,1,1-.51c3.78-.94,7.46-2.25,11.27-3.09a17.85,17.85,0,0,1,3.31-.68c-.44.36-1,.38-1.5.67-.24.15-.65.17-.64.51S439.89,136.41,440.2,136.49Z" transform="translate(-16.65 -26.68)" fill="#c6925b"/><path d="M353.13,228.77a13.69,13.69,0,0,1,3,1.8,46.62,46.62,0,0,1,4.77,3.37,1.14,1.14,0,0,1,.54.68,4.85,4.85,0,0,1-2.28-.71,14.24,14.24,0,0,0-4.79-1.95,1.94,1.94,0,0,0-.39-1.83A4.11,4.11,0,0,1,353.13,228.77Z" transform="translate(-16.65 -26.68)" fill="#c6925b"/><path d="M365.06,131a55.6,55.6,0,0,1,6.32,2.93c-1.8-.24-3.55-.7-5.35-.89.21-.46,0-.79-.29-1.13S365.13,131.41,365.06,131Z" transform="translate(-16.65 -26.68)" fill="#c6925b"/><path d="M423.9,240.46c0-.81-.63-1.34-.94-2-.18-.37.85-1.07,1.13-.62a14.78,14.78,0,0,0,.75,1.28c.4.52.37.87-.26,1.14-.21.09-.36.31-.62.31Z" transform="translate(-16.65 -26.68)" fill="#c6925b"/><path d="M360.32,178.9a.31.31,0,0,1,.05.1s0,.05,0,.05l-.11-.06Z" transform="translate(-16.65 -26.68)" fill="#e1b885"/><path d="M423.71,240.59l.19-.12.06.08-.17.14Z" transform="translate(-16.65 -26.68)" fill="#c6925b"/><path d="M425.28,141c-1.94,0-3.74-.8-5.64-1.12-1.28-.22-2.56-.56-3.84-.84-2.48-.54-4.93-1.25-7.43-1.72-2.2-.41-4.37-.91-6.54-1.43-3-.73-6.05-1.28-9-2.12-1.37-.38-2.76-.63-4.14-.95-1.81-.43-3.62-.9-5.44-1.28-.88-.19-1.22-.41-1.25-1.09l-.52-.16v0l-.08,0-.58-.17c-.37-.06-9.19-1.05-9.55-1.12a1.16,1.16,0,0,0-1,.51c-.23.27.18.48.3.72s9,1.61,9,2.07l0,0c.31.06.52.32.85.4,3.34.8,6.66,1.72,10,2.52,3.19.76,6.4,1.43,9.6,2.2,1.81.44,3.63.84,5.46,1.23,2.39.51,4.77,1,7.16,1.57,1.64.36,3.29.68,4.94,1,2.49.53,5,1,7.52,1.41C425.34,142.15,425.12,141.56,425.28,141Z" transform="translate(-16.65 -26.68)" fill="#ddd3c4"/><path d="M383,129.85a.74.74,0,0,1,.17-.12c0,.05.06.11,0,.14a.69.69,0,0,1-.15.14C383.06,129.93,383,129.86,383,129.85Z" transform="translate(-16.65 -26.68)" fill="#ddd3c4"/><path d="M392.36,124.14l.05,0-.05,0c0-.14.1-.33-.11-.4s-.2.07-.21.17S392.23,124.09,392.36,124.14Zm-3.9,1.61-.1.08.05,0a.39.39,0,0,1,.1-.08Z" transform="translate(-16.65 -26.68)" fill="#ddd3c4"/><path d="M414.77,211.13c.15,0,.25,0,.28-.14a.2.2,0,0,0-.08-.17.18.18,0,0,0-.24.13C414.71,211,414.76,211.08,414.77,211.13Z" transform="translate(-16.65 -26.68)" fill="#ddd3c4"/><path d="M426.06,204.62a.31.31,0,0,1,.13,0Z" transform="translate(-16.65 -26.68)" fill="#e1b885"/><path d="M425.31,204a1.09,1.09,0,0,1-.08.15A1.09,1.09,0,0,0,425.31,204Z" transform="translate(-16.65 -26.68)" fill="#e1b885"/><path d="M383.09,130c0-.08-.08-.15-.06-.16a.74.74,0,0,1,.17-.12c0,.05.06.11,0,.14A.69.69,0,0,1,383.09,130Z" transform="translate(-16.65 -26.68)" fill="#e1b885"/><path d="M381.45,130.33l.05,0,0,0Z" transform="translate(-16.65 -26.68)" fill="#e1b885"/><path d="M392.36,124.14c-.13,0-.34,0-.32-.23s.11-.2.21-.17.11.26.11.4Z" transform="translate(-16.65 -26.68)" fill="#e1b885"/><path d="M389.71,126c-.14,0-.3-.05-.3-.26,0,0,0,0,.06,0,.21,0,.23.15.24.31Z" transform="translate(-16.65 -26.68)" fill="#e1b885"/><path d="M388.46,125.75l.05,0a.39.39,0,0,0-.1.08l-.05,0Z" transform="translate(-16.65 -26.68)" fill="#e1b885"/><path d="M392.36,124.14l.05,0-.05,0Z" transform="translate(-16.65 -26.68)" fill="#e1b885"/><path d="M414.77,211.13s-.06-.13,0-.18a.18.18,0,0,1,.24-.13.2.2,0,0,1,.08.17C415,211.1,414.92,211.15,414.77,211.13Z" transform="translate(-16.65 -26.68)" fill="#e1b885"/><path d="M411.71,212.23l-.11-.16A.68.68,0,0,1,411.71,212.23Z" transform="translate(-16.65 -26.68)" fill="#e1b885"/><path d="M412.08,212.74a1.4,1.4,0,0,0,.1.16A.76.76,0,0,1,412.08,212.74Z" transform="translate(-16.65 -26.68)" fill="#e1b885"/><path d="M415.35,210.09l.09,0S415.35,210.12,415.35,210.09Z" transform="translate(-16.65 -26.68)" fill="#e1b885"/><path d="M412.26,211.59l.09,0" transform="translate(-16.65 -26.68)" fill="#e1b885"/><path d="M416,209.42l0,.1" transform="translate(-16.65 -26.68)" fill="#e1b885"/><path d="M363.4,178.63a1.42,1.42,0,0,1-.41-.83l1.14.1c-.49.18-.75.34-.7.71Z" transform="translate(-16.65 -26.68)" fill="#e1b885"/><path d="M424,205.43a.87.87,0,0,1-.4-.7C424.26,204.69,424.06,205.11,424,205.43Z" transform="translate(-16.65 -26.68)" fill="#c6925b"/><path d="M423.65,204.74a.24.24,0,0,1-.12-.34A.24.24,0,0,1,423.65,204.74Z" transform="translate(-16.65 -26.68)" fill="#c6925b"/><path d="M330.28,172.69c.35.26.76-.49,1,0a1.22,1.22,0,0,1,.13.38l1.38,6.21a9.42,9.42,0,0,1,.32,2.45c-.32.33-.76,2.18-2.52,1.18C327.52,181.11,331.44,173.55,330.28,172.69Z" transform="translate(-16.65 -26.68)" fill="#f78631"/><path d="M159.26,254.66a35.17,35.17,0,0,0-.9-3.42,11.35,11.35,0,0,0-4.42-5.7,47.3,47.3,0,0,0-8.05-4.11c-1.73-.77-8.63-2.62-10.17-3.43-2.11-1.09-5.73-3.18-6.93-2.05-2.74,2.55-2.36,7.26-.13,10.29a20.76,20.76,0,0,0,5.58,5.28,73,73,0,0,0,8.1,3.61c2.12.92,2,1.85,2.88,4a70.55,70.55,0,0,1,3.24,7.53,11.8,11.8,0,0,1-.5,8.13,46.26,46.26,0,0,0-3.36,9.75c-.4,2.11-.07,5,2.09,6,3.61,1.75,6.31-2.76,7.95-5.27,3-4.55,4.49-10.41,6.12-15.55C161.54,267.21,159.64,256.17,159.26,254.66Z" transform="translate(-16.65 -26.68)" fill="#f4b796"/><path d="M137.59,238.78a18,18,0,0,0-5.7-2.95,3.14,3.14,0,0,0-1.76-.27c0-.09,0-.18-.09.08a2.65,2.65,0,0,0-1,2.77,4.67,4.67,0,0,0,2.08,2.37c.83.54,1.78,1,2.67,1.5a5.24,5.24,0,0,0,1.46.58c.64.07.77-.42.92-1a7.59,7.59,0,0,1,.62-1.65C137,239.8,137.53,239.33,137.59,238.78Z" transform="translate(-16.65 -26.68)" fill="#f4e2d4"/><path d="M350.22,295.9a89.12,89.12,0,0,0,23.16,7.76c5.18.89,10.22,2.48,15.4,3.24.5-4.28,1.1-9.43,1.87-13.77-8.44-2.49-16.79-5.22-25.14-8-4.58-1.54-9.25-2.88-13.86-4.34,0,1.76,0,3.51.05,5.28C351.72,289.11,350.78,292.81,350.22,295.9Z" transform="translate(-16.65 -26.68)" fill="#f4b796"/><path d="M393,292.11a2.2,2.2,0,0,1-.24,1.48,1.63,1.63,0,0,1-.87.57c-2.17.72-4.36-.84-6.34-2a32.87,32.87,0,0,0-5.64-2.46,95.33,95.33,0,0,0-25.66-5.2,6.15,6.15,0,0,1-3-.72,2,2,0,0,1-.73-2.72,2.8,2.8,0,0,1,2.11-.81c3.06-.28,6.14-.36,9.22-.45,5.25-.14,10.57-.28,15.69.91a48.4,48.4,0,0,1,10.63,4.13c1.22.62,3.32,1.28,4,2.46S392.91,290.79,393,292.11Z" transform="translate(-16.65 -26.68)" fill="#acdeff"/><path d="M373.24,187.45a12.88,12.88,0,0,1,2.12-13.95,16.36,16.36,0,0,1,9.13-5.12c.14,0,.27-.08.41-.12a8.64,8.64,0,0,1,3.3.58c.22.09.46.23.44.5s-.32.25-.51.31a2.94,2.94,0,0,0-1.82,1.06,2.47,2.47,0,0,1-.75.76,7.3,7.3,0,0,0-3.54.25,11,11,0,0,0-5.89,3.75A9.74,9.74,0,0,0,374,181.3a10.06,10.06,0,0,0,2.4,6.8,11.14,11.14,0,0,0,6.07,3.87,11.54,11.54,0,0,0,10.84-2.38,9.14,9.14,0,0,0,2.92-4.36,9.73,9.73,0,0,0-.14-6.56,10.21,10.21,0,0,0-4.06-5c.1-.27.18-.55.3-.81a1,1,0,0,1,1.71-.36,14.86,14.86,0,0,1,2.19,2.08,1,1,0,0,0,.55.47,5.86,5.86,0,0,0-1.5-3.5c-.41-.48-.35-.64.27-.78a3.68,3.68,0,0,1,2.44.35c.21.1.3.11.36-.12a1,1,0,0,1,.54.15,15.89,15.89,0,0,1,4.77,4.61c0,.12,0,.23.18.25l0,0a.14.14,0,0,0,.13.19h0c-.14.35.07.65.16,1a12.91,12.91,0,0,1,.31,5.25,13.24,13.24,0,0,1-1.8,4.95,14,14,0,0,1-6.19,5.52,18.21,18.21,0,0,1-8,1.8,19.16,19.16,0,0,1-7.08-1.26,18.53,18.53,0,0,1-6.48-4.13c-.45-.44-.78-1-1.4-1.29v0l-.09-.2h0A.26.26,0,0,0,373.24,187.45Z" transform="translate(-16.65 -26.68)" fill="#d40d01"/><path d="M373.47,187.93c.62.26.95.85,1.4,1.29a18.53,18.53,0,0,0,6.48,4.13,19.16,19.16,0,0,0,7.08,1.26,18.21,18.21,0,0,0,8-1.8,14,14,0,0,0,6.19-5.52,13.24,13.24,0,0,0,1.8-4.95,12.91,12.91,0,0,0-.31-5.25c-.09-.32-.3-.62-.16-1a13,13,0,0,1-1.86,17,16.69,16.69,0,0,1-11.59,4.54,18.79,18.79,0,0,1-14.22-5.7A12.42,12.42,0,0,1,373.47,187.93Z" transform="translate(-16.65 -26.68)" fill="#ba0c03"/><path d="M398.34,171c-.06.23-.15.22-.36.12a3.68,3.68,0,0,0-2.44-.35c-.62.14-.68.3-.27.78a5.86,5.86,0,0,1,1.5,3.5,1,1,0,0,1-.55-.47,14.86,14.86,0,0,0-2.19-2.08,1,1,0,0,0-1.71.36c-.12.26-.2.54-.3.81a5.29,5.29,0,0,0-.91,3.36h0c-1.1-1.05-1.84-2.2-1.08-3.79a3.77,3.77,0,0,0,.2-.75,1,1,0,0,0-.61-1.22,1.41,1.41,0,0,0-1.58.52,4.24,4.24,0,0,1-4.68.57,2.59,2.59,0,0,0,2.19-.83,2.47,2.47,0,0,0,.75-.76,2.94,2.94,0,0,1,1.82-1.06c.19-.06.48,0,.51-.31s-.22-.41-.44-.5a8.64,8.64,0,0,0-3.3-.58l-.45-.1a6,6,0,0,1,4.66-.11c.85.35.94.3,1.11-.62a6.9,6.9,0,0,1,1.6-3.34,1.07,1.07,0,0,1,.78-.46.77.77,0,0,1,.72.22c.2.28-.08.45-.2.62a6.54,6.54,0,0,0-1,2.46c-.06.35,0,.53.39.6a1.2,1.2,0,0,1,1,1.15c-.3-.08-.68-.23-.73.24s.38.37.64.36a9.71,9.71,0,0,1,3,.6h0a.1.1,0,0,0,0,.1A3.44,3.44,0,0,1,398.34,171Z" transform="translate(-16.65 -26.68)" fill="#3b4912"/><path d="M396.47,169.88a9.71,9.71,0,0,0-3-.6c-.26,0-.69.05-.64-.36s.43-.32.73-.24c.76.27,1.53.53,2.28.82C396.05,169.59,396.35,169.6,396.47,169.88Z" transform="translate(-16.65 -26.68)" fill="#d71b13"/><path d="M403.83,176c-.16,0-.18-.13-.18-.25Z" transform="translate(-16.65 -26.68)" fill="#ba0c03"/><path d="M373.24,187.45a.26.26,0,0,1,.14.3C373.26,187.68,373.25,187.57,373.24,187.45Z" transform="translate(-16.65 -26.68)" fill="#ba0c03"/><path d="M396.5,170a.1.1,0,0,1,0-.1S396.52,169.93,396.5,170Z" transform="translate(-16.65 -26.68)" fill="#d71b13"/><path d="M403.94,176.13a.14.14,0,0,1-.13-.19A2.14,2.14,0,0,0,403.94,176.13Z" transform="translate(-16.65 -26.68)" fill="#ba0c03"/><path d="M373.38,187.75l.09.2Z" transform="translate(-16.65 -26.68)" fill="#ba0c03"/><path d="M391.11,177a5.29,5.29,0,0,1,.91-3.36,10.21,10.21,0,0,1,4.06,5,9.73,9.73,0,0,1,.14,6.56,9.14,9.14,0,0,1-2.92,4.36A11.54,11.54,0,0,1,382.46,192a11.14,11.14,0,0,1-6.07-3.87,10.06,10.06,0,0,1-2.4-6.8,9.74,9.74,0,0,1,2.14-5.83,11,11,0,0,1,5.89-3.75,7.3,7.3,0,0,1,3.54-.25,2.59,2.59,0,0,1-2.19.83,4.24,4.24,0,0,0,4.68-.57l2.19.7a3.77,3.77,0,0,1-.2.75c-.76,1.59,0,2.74,1.08,3.79l.05,0Z" transform="translate(-16.65 -26.68)" fill="#d71b13"/><path d="M390.24,172.43l-2.19-.7a1.41,1.41,0,0,1,1.58-.52A1,1,0,0,1,390.24,172.43Z" transform="translate(-16.65 -26.68)" fill="#d40d01"/><path d="M391.11,177l.06,0-.05,0Z" transform="translate(-16.65 -26.68)" fill="#3b4912"/><path d="M388.09,204.5a2,2,0,0,1,.81,1.58Q390.4,217,392,227.94a3.19,3.19,0,0,1-.15,1.16c-.09,0-.14,0-.18.09-5.5.62-11,1.42-16.46,2.1-8.88,1.11-17.73,2.46-26.58,3.71-.71-.86-.48-1.93-.62-2.91q-1.4-9.89-2.76-19.77a4.63,4.63,0,0,1,0-1.7c9-1.25,18-2.48,27-3.76C377.49,206.11,382.78,205.29,388.09,204.5ZM360.2,219c-.26.06-.57.14-.57.45a10.38,10.38,0,0,0,.43,3.13c.1.3.41.28.68.26a6,6,0,0,0,2.89-.14c2.9-.37,2.89-.39,3.29,2.55.45,3.3,0,2.68,3.2,2.31.8-.09,1.61-.16,1.74-1.21.25.22.69.66.67,0a37.51,37.51,0,0,0-.5-3.92l-.35.05c-.22,1.3.45,2.57.19,3.87a10.46,10.46,0,0,1-.69-3.31c-.19-.94.07-1.43,1.17-1.54a12.14,12.14,0,0,0,4.25-.8c.53.62,0,.71-.43.89s-.83-.06-1,.44c.28.37,1.15-.12,1,.73-.23,1.59.37,3,.78,4.51.49,1.76,0,2.53-1.89,2.79L352,233.24c-2.37.33-2.36.33-2.68-2q-1.25-9-2.5-17.91c-.22-1.64,0-1.87,1.64-2.17.77-.14,1.63,0,2.26-.68-1.28,0-2.53.27-3.8.36s-1.49.49-1.31,1.67c1,6.75,1.9,13.52,2.85,20.27.24,1.7.25,1.71,2,1.45,8.9-1.34,17.83-2.45,26.74-3.79,4.29-.64,8.6-1.22,12.92-1.69,1-.1,1.27-.47,1.13-1.46q-1.5-10.32-2.89-20.66c-.15-1.16-.61-1.48-1.75-1.31-3.86.58-7.73,1.09-11.6,1.63a8.16,8.16,0,0,0-2.25.75c1,.79,2.55,4.42,2.45,5.8a2.87,2.87,0,0,0,.88,2.51c.34.31.21.52-.07.75-1.37-.54-2.68.16-4,.18-.47,0-1,.48-1.4-.17l4.42-.61-.05-.38c-.8.11-1.62.17-2.4.35-1.09.25-1.52-.14-1.63-1.23a4.25,4.25,0,0,0-.57-2.49l-.38.07.59,4.28c-.54-.14-.39-.63-.45-1-.17-1-.31-2-.43-3-.07-.55-.2-1-.85-1.15.2-.36.35-.68-.31-.58-.86.14-1.73.25-2.6.38-.44.06-.74.24-.7.75a10.72,10.72,0,0,0,.4,4c.33,1.44-.25,1.69-1.46,1.86C362.87,218.28,361.4,218.08,360.2,219Zm1,4.67,0,.37a5.63,5.63,0,0,0,2.31-.22c1.21-.28,2.07-.16,2.27,1.27a2.73,2.73,0,0,0,.31,0c-.07-.82.13-1.9-1.05-1.92A26.05,26.05,0,0,0,361.22,223.68Zm-.59-6.06.06.36,4.41-.61-.05-.35A27.62,27.62,0,0,0,360.63,217.62Zm3.67-4.31a3.6,3.6,0,0,0,.42,2.58A3.73,3.73,0,0,0,364.3,213.31Zm3.63,15.11,0,.13,3.39-.47,0-.13Z" transform="translate(-16.65 -26.68)" fill="#363635"/><path d="M386.79,199.18a2.73,2.73,0,0,1-1.44.27,9.85,9.85,0,0,0-1.32.14c-4.11.63-8.19,1.36-12.28,2.1-8.07,1.45-16.23,2.37-24.36,3.5a.48.48,0,0,1-.22.08c-1.06.14-1.82-2-2.86-1.74.32,1.59.43,5.52.86,7.09,9-1.25,18-2.48,27-3.76,5.31-.75,10.6-1.57,15.91-2.36-.08-1.74-1-6.12-1-7.86C386.69,196.73,387.12,199.36,386.79,199.18Z" transform="translate(-16.65 -26.68)" fill="#bcc4c7"/><path d="M348.58,235c8.85-1.25,17.7-2.6,26.58-3.71,5.49-.68,11-1.48,16.46-2.1a19.46,19.46,0,0,1,1.12,4.56v.59a22.94,22.94,0,0,0-2.49.06q-19.63,2.68-39.28,5.39c-1.14.16-1.48.64-1.3,1.77.52,3.37,1,6.75,1.42,10.13.16,1.18.32,2.31,1.83,2.54.21,0,.37.45.55.7a2.57,2.57,0,0,1-1.59.26,10.08,10.08,0,0,1-1.76-4.87c-.31-3-1-5.93-1.15-8.91C348.83,239.28,348.92,237.13,348.58,235Z" transform="translate(-16.65 -26.68)" fill="#bcc4c7"/><path d="M359,172.63l-1-7.39c.37-.56.92-.56,1.52-.53.78,0,1.23-.18,1-1.19a18.87,18.87,0,0,1-.6-4c0-1.4-.11-1.62-1.55-1.47s-2.8.34-4.2.51l.18-.46.42-.18,1.28-.2a.82.82,0,0,0,.72.25c2-.28,4.1-.56,6.14-.86a.77.77,0,0,0,.6-.46l1.55-.11a.15.15,0,0,0,.19.05l2.5,2.18.18.64c.12.94.24,1.89.34,2.84a1.05,1.05,0,0,1-1.06,1.32c-1.09.11-2.17.28-3.25.43-.59-.2-.45.17-.38.48s.05.38.08.58a8.91,8.91,0,0,0,.75,5.33c.21.52.09,1.18.64,1.56.86.78,1.91,0,2.82.32l0,.09c.22,1.21-.21,2.58.89,3.56.25.44,0,1.16.75,1.33,1.11.59,2.49.28,3.54,1.06.29,2.19.92,4.33.77,6.57-3.36.25-6.66,1-10,1.18-.26-.75-.86-.46-1.35-.4-2.08.27-4.16.57-6.24.86a42.19,42.19,0,0,1,6-1.1c1-.13,1.44-.61,1.27-1.7-.51-3.35-.87-6.72-1.67-10-.2-.82-.62-1.23-1.48-1.15Z" transform="translate(-16.65 -26.68)" fill="#272828"/><path d="M354.12,158.55c1.4-.17,2.8-.35,4.2-.51s1.52.07,1.55,1.47a18.87,18.87,0,0,0,.6,4c.25,1-.2,1.22-1,1.19-.6,0-1.15,0-1.52.53l-.66-.39c.08-.35,0-.67-.39-.65a3.88,3.88,0,0,0-3,1.05.67.67,0,0,1-.94-.47c-.3-1.06-1.07-1-1.89-.91-5.38.76-10.76,1.56-16.15,2.29-1.12.15-1.67.55-1.6,1.76,0,.78-.23,1.57-.23,2.36a1.93,1.93,0,0,1-2.25,2.21,4.88,4.88,0,0,0-.92.14l-.47-.32,1.82-.33c1.2-.21,1.3-.37,1-1.77-.06,0-.19.08-.19.13a1.11,1.11,0,0,1-1.56,1.09c-1-.3-.31-.93-.14-1.47.24-.79.14-1.5-.82-1.76a8.87,8.87,0,0,1,.35-2.76c.51.2.91.05,1-.51.13-1.21,1-1.36,1.95-1.5,6.32-.84,12.64-1.73,18.95-2.62.61-.08,1.46.05,1.3-1l.66-1.11v0Zm-20.73,7,18-2.5C345.32,163.37,339.4,164.61,333.39,165.6Zm-.71,3.63c.05-1,.4-1.65,0-2.29,0,0-.3,0-.33.08C332,167.65,332.16,168.27,332.68,169.23Z" transform="translate(-16.65 -26.68)" fill="#363635"/><path d="M329.58,169l0-.77c1,.26,1.06,1,.82,1.76-.17.54-.87,1.17.14,1.47a1.11,1.11,0,0,0,1.56-1.09c0-.05.13-.09.19-.13.28,1.4.18,1.56-1,1.77l-1.82.33-.3-.29c.21-.81-.06-1.69.35-2.47C329.83,169.41,330,169.24,329.58,169Z" transform="translate(-16.65 -26.68)" fill="#272828"/><path d="M353.49,254.88c-.21-.15-.66-.34-.87-.49s-.37-.4-.67-.63a2.79,2.79,0,0,1-.86-2.07c-.46-3.38-.9-6.76-1.42-10.13-.18-1.13.16-1.61,1.3-1.77q19.65-2.67,39.28-5.39a22.94,22.94,0,0,1,2.49-.06q.87,6.28,1.75,12.55c-.61.8,0,1.39-1.45,2.62-.4.07-.79.15-1.18.2l-27.74,3.86c-1.87.26-3.75.46-5.62.71-1,.13-1.92.27-2.87.44-.6.1-1.4.55-2,.25A.42.42,0,0,1,353.49,254.88Z" transform="translate(-16.65 -26.68)" fill="#fff"/><path d="M373,178.3c-1.05-.78-2.43-.47-3.54-1.06.92-.17,1.84-.59,2.75,0C372.62,177.5,373.13,177.68,373,178.3Z" transform="translate(-16.65 -26.68)" fill="#363635"/><path d="M368.75,175.91c-1.1-1-.67-2.35-.89-3.56C368.93,173.35,368.58,174.69,368.75,175.91Z" transform="translate(-16.65 -26.68)" fill="#363635"/><path d="M367.82,172.26c-.91-.35-2,.46-2.82-.32C366,171.9,367,171.21,367.82,172.26Z" transform="translate(-16.65 -26.68)" fill="#363635"/><path d="M359,172.63l1.32-.1c.86-.08,1.28.33,1.48,1.15.8,3.31,1.16,6.68,1.67,10,.17,1.09-.24,1.57-1.27,1.7a42.19,42.19,0,0,0-6,1.1c2.08-.29,4.16-.59,6.24-.86.49-.06,1.09-.35,1.35.4-3.14.69-6.34.95-9.51,1.42-.2-1.43-.39-2.87-.59-4.3-.07-.52-.1-1.1-.88-1-.46-1.74.08-2.72,1.83-2.89,1.38-.13,1.77-.66,1.43-2a12.85,12.85,0,0,1-.28-2c-.16-1.55.26-2.11,1.77-2.4C358,172.87,358.49,172.74,359,172.63Zm-2.33,1.75-.23,0,.54,3.92.24-.05Z" transform="translate(-16.65 -26.68)" fill="#363635"/><path d="M352.79,182.16c.78-.09.81.49.88,1,.2,1.43.39,2.87.59,4.3l-.19.19-.52,0A28.25,28.25,0,0,1,352.79,182.16Z" transform="translate(-16.65 -26.68)" fill="#272828"/><path d="M376.07,216.78c.28-.23.41-.44.07-.75a2.87,2.87,0,0,1-.88-2.51c.1-1.38-1.43-5-2.45-5.8a8.16,8.16,0,0,1,2.25-.75c3.87-.54,7.74-1.05,11.6-1.63,1.14-.17,1.6.15,1.75,1.31q1.39,10.33,2.89,20.66c.14,1-.16,1.36-1.13,1.46-4.32.47-8.63,1-12.92,1.69-8.91,1.34-17.84,2.45-26.74,3.79-1.77.26-1.78.25-2-1.45-.95-6.75-1.86-13.52-2.85-20.27-.18-1.18.17-1.59,1.31-1.67s2.52-.33,3.8-.36c-.63.67-1.49.54-2.26.68-1.67.3-1.86.53-1.64,2.17q1.25,9,2.5,17.91c.32,2.31.31,2.31,2.68,2L375.1,230c1.88-.26,2.38-1,1.89-2.79-.41-1.48-1-2.92-.78-4.51.12-.85-.75-.36-1-.73.16-.5.66-.31,1-.44s1-.27.43-.89C376.42,219.38,376.24,218.08,376.07,216.78Zm1.37,3.52a6.8,6.8,0,0,0-.51-3.37A6.1,6.1,0,0,0,377.44,220.3Z" transform="translate(-16.65 -26.68)" fill="#272828"/><path d="M376.07,216.78c.17,1.3.35,2.6.53,3.9a12.14,12.14,0,0,1-4.25.8c-1.1.11-1.36.6-1.17,1.54a10.46,10.46,0,0,0,.69,3.31v0c-.13,1-.94,1.12-1.74,1.21-3.18.37-2.75,1-3.2-2.31-.4-2.94-.39-2.92-3.29-2.55a6,6,0,0,1-2.89.14L360.2,219c1.2-.93,2.67-.73,4-.92,1.21-.17,1.79-.42,1.46-1.86a10.72,10.72,0,0,1-.4-4l3.61-.55c.65.11.78.6.85,1.15.12,1,.26,2,.43,3,.06.35-.09.84.45,1h0c.39.65.93.18,1.4.17C373.39,216.94,374.7,216.24,376.07,216.78Z" transform="translate(-16.65 -26.68)" fill="#fff"/><path d="M361.22,223.68a26.05,26.05,0,0,1,3.89-.5c1.18,0,1,1.1,1.05,1.92a2.73,2.73,0,0,1-.31,0c-.2-1.43-1.06-1.55-2.27-1.27a5.63,5.63,0,0,1-2.31.22Z" transform="translate(-16.65 -26.68)" fill="#272828"/><path d="M370.63,216.78,370,212.5l.38-.07a4.25,4.25,0,0,1,.57,2.49c.11,1.09.54,1.48,1.63,1.23.78-.18,1.6-.24,2.4-.35l.05.38-4.42.61Z" transform="translate(-16.65 -26.68)" fill="#272828"/><path d="M360.63,217.62a27.62,27.62,0,0,1,4.42-.6l.05.35-4.41.61Z" transform="translate(-16.65 -26.68)" fill="#272828"/><path d="M371.86,226.36v0c.26-1.3-.41-2.57-.19-3.87l.35-.05a37.51,37.51,0,0,1,.5,3.92C372.55,227,372.11,226.58,371.86,226.36Z" transform="translate(-16.65 -26.68)" fill="#272828"/><path d="M360.2,219l.54,3.84c-.27,0-.58,0-.68-.26a10.38,10.38,0,0,1-.43-3.13C359.63,219.15,359.94,219.07,360.2,219Z" transform="translate(-16.65 -26.68)" fill="#272828"/><path d="M368.9,211.65l-3.61.55c0-.51.26-.69.7-.75.87-.13,1.74-.24,2.6-.38C369.25,211,369.1,211.29,368.9,211.65Z" transform="translate(-16.65 -26.68)" fill="#272828"/><path d="M364.3,213.31a3.73,3.73,0,0,1,.42,2.58A3.6,3.6,0,0,1,364.3,213.31Z" transform="translate(-16.65 -26.68)" fill="#272828"/><ellipse cx="369.64" cy="228.25" rx="2.42" ry="0.09" transform="translate(-44.5 26.27) rotate(-7.9)" fill="#272828"/><path d="M353.88,165.25a3.88,3.88,0,0,1,3-1.05c.4,0,.47.3.39.65A13.19,13.19,0,0,1,353.88,165.25Z" transform="translate(-16.65 -26.68)" fill="#272828"/><path d="M329.91,165.44c.1-2.23.28-2.44,2.51-2.75l20.66-2.91c.16,1.08-.69.95-1.3,1-6.31.89-12.63,1.78-18.95,2.62-1,.14-1.82.29-1.95,1.5C330.82,165.49,330.42,165.64,329.91,165.44Z" transform="translate(-16.65 -26.68)" fill="#272828"/><path d="M333.39,165.6c6-1,11.93-2.23,18-2.5Z" transform="translate(-16.65 -26.68)" fill="#272828"/><path d="M332.68,169.23c-.52-1-.65-1.58-.35-2.21,0-.07.31-.12.33-.08C333.08,167.58,332.73,168.22,332.68,169.23Z" transform="translate(-16.65 -26.68)" fill="#272828"/><path d="M329.58,169c.39.27.25.44-.1.58A.54.54,0,0,1,329.58,169Z" transform="translate(-16.65 -26.68)" fill="#363635"/><path d="M356.63,174.38l.55,3.91-.24.05-.54-3.92Z" transform="translate(-16.65 -26.68)" fill="#272828"/><path d="M377.44,220.3a6.1,6.1,0,0,1-.51-3.37A6.8,6.8,0,0,1,377.44,220.3Z" transform="translate(-16.65 -26.68)" fill="#363635"/><path d="M373.81,185H374a11.51,11.51,0,0,1,1.76.27,13.92,13.92,0,0,1,4.36,1.5,17,17,0,0,1,3.79,3.49,12.23,12.23,0,0,1,3.24,7.18c.13,1.74-.1,2-1.78,2a9.85,9.85,0,0,0-1.32.14c-4.11.63-8.19,1.36-12.28,2.1-8.41,1.51-16.92,2.44-25.39,3.65-1.84.26-2.12-1.8-2.25-3.22a15.23,15.23,0,0,1,2.13-8.91c1.89-3.2,5-4.63,8.48-5.59,1.13-.31,2.28-.55,3.43-.76,2.76-.5,5.54-.82,8.33-1.14l5.54-.64A13.35,13.35,0,0,1,373.81,185Z" transform="translate(-16.65 -26.68)" fill="#fff"/><path d="M358.55,208c-2.55-1.71-5.07-.8-6.36,1.91a21.59,21.59,0,0,0-1.37,4.42c-.33,1.51-1.08,2.93-1.49,4.44-1.52,5.68-4.11,11.19-3.57,16.95.46,4.94,2.08,10.32,3.5,15.09a10.71,10.71,0,0,0,2.13,6c1.17,1.35,3.45,3.18,5.29,3.35,1.61.15,4.1,0,5.24-1.29,2.28-2.54,2.52-7.69,1.45-10.77-.94-2.72-2-5.41-2.87-8.15-.64-2-1.36-4.13-1-6.22.46-2.63,1.64-5,2.37-7.55a34.07,34.07,0,0,0,1.25-8.14C363.22,214.45,361.53,210,358.55,208Z" transform="translate(-16.65 -26.68)" fill="#acdeff"/><path d="M405.91,252.33c1.9.94,4,2.4,3.86,4.41-.15,2.17-2.77,3.34-5,3.75-5.66,1-11.49.23-17.19-.56-6.15-.86-22.44-5.91-9.83-11.34C386.3,244.88,398.09,248.46,405.91,252.33Z" transform="translate(-16.65 -26.68)" fill="#acdeff"/><path d="M381.81,257.58c1.21,1.56,2.38,3.66,1.46,5.45-1,1.94-3.67,2.05-5.74,1.59-5.15-1.13-9.71-4-14.17-6.8-4.81-3-16.43-13.63-3.69-14C368.36,243.58,376.81,251.18,381.81,257.58Z" transform="translate(-16.65 -26.68)" fill="#acdeff"/></svg>