<svg id="Layer_1" data-name="Layer 1" xmlns="http://www.w3.org/2000/svg" xmlns:xlink="http://www.w3.org/1999/xlink" viewBox="0 0 500 500"><defs><clipPath id="clip-path"><rect id="SVGID" x="10.52" y="18.98" width="481.71" height="481.71" fill="none"/></clipPath><linearGradient id="_ÂÁ_Ï_ÌÌ_È_ËÂÌÚ_62" x1="214.94" y1="238.7" x2="217.4" y2="242.96" gradientUnits="userSpaceOnUse"><stop offset="0" stop-color="#f4e2d4"/><stop offset="0.38" stop-color="#f2e3dd"/><stop offset="1" stop-color="#efe4e8"/></linearGradient><linearGradient id="_ÂÁ_Ï_ÌÌ_È_ËÂÌÚ_62-2" x1="222.72" y1="240.48" x2="225.17" y2="244.73" xlink:href="#_ÂÁ_Ï_ÌÌ_È_ËÂÌÚ_62"/><linearGradient id="_ÂÁ_Ï_ÌÌ_È_ËÂÌÚ_62-3" x1="230.76" y1="242.39" x2="233.22" y2="246.64" xlink:href="#_ÂÁ_Ï_ÌÌ_È_ËÂÌÚ_62"/></defs><g clip-path="url(#clip-path)"><path d="M182.16,262.44c-2.47,4.18-1.15,9.92-.3,14.42s1.63,9.43,2.72,13.83c1.13,4.58,4,8.37,6.07,12.65,1.87,3.85,4.36,8.76,7.31,11.91,5.71,6.12,11.67,12.24,16.65,19.13,5.61,7.76,7.18,17,8.84,26.4.87,4.94.61,10.1,1.76,14.91,1.19,5,1.3,10.15,2,15.36.74,5.45,2.44,10.55,2.94,16.26.17,2-.11,7.67,1.59,8.83,1.42,1,6.92-.37,8.59-.51,5-.43,10.49-.3,15.23-1.93a114.5,114.5,0,0,0,12.28-5.42c4.06-1.95,7.85-3.21,11.79-5.54,2.95-1.74,5.27-1.48,3.62-5-2.67-5.62-6.2-11.17-8.81-17-1.51-3.42-2.67-7-4.33-10.43-1.76-3.6-2.4-7.06-3.77-10.76-3.09-8.37-6.25-16.52-8.22-25.25a81.64,81.64,0,0,1-1.31-11.63c-.37-5,1.19-9.46,1.22-14.27s.65-9.69,1.11-14.6c.27-2.82.91-6.74-.5-9.41-2.43-4.61-7.61-8.29-11.41-11.76-10.73-9.8-23.8-13.89-38.23-13.16-6.47.32-12.94,1.17-19.41,1.44A14.71,14.71,0,0,0,182.16,262.44Z" fill="#f4b796"/><rect x="172.66" y="225.06" width="98.27" height="52.66" rx="10.05" transform="translate(-75.49 406.35) rotate(-76.11)" fill="#362e56"/><rect x="173.65" y="221.33" width="98.27" height="52.66" rx="10.05" transform="translate(-71.11 404.48) rotate(-76.11)" fill="#007be1"/><rect x="200.62" y="208.29" width="45.12" height="75.56" transform="translate(65.6 -46.38) rotate(13.89)" fill="#fff"/><rect x="234.42" y="198.67" width="1.36" height="13.63" rx="0.62" transform="translate(-20.81 384.38) rotate(-76.11)" fill="#362e56"/><path d="M257.83,277.17A95.28,95.28,0,0,1,253.17,260c-.73-4.28-.46-8.82-1.39-13-.14-.64,0-1.82-1.38-2.21-2.88-1-6.35,2.19-7.72,4.56-1.49,2.58-1.53,6.18-1.35,9.08a59.1,59.1,0,0,0,1.17,10.16c.86,3.58.53,6.51-.07,10.06-.83,4.78-2.17,10.41-.84,15.27,1.68,6.13,9.77,11.73,15.09,6.64,2.59-2.47,2.85-6.47,2.89-9.75C259.62,286,259.58,281.79,257.83,277.17Z" fill="#f4b796"/><path d="M183.7,280.36c-.21-2.63-1.89-5.05-2.49-7.58s-1.81-5.22-1.76-8,2.16-4.13,4.09-5.86.76-5.39.54-7.85a5.17,5.17,0,0,1,.85-3.87c.84-1.14,2.67-1.9,3.06-3.13s-.43-3-.59-4.23a5.61,5.61,0,0,1,1.28-4.25,63,63,0,0,0,5.19-9c1-2.26,1.78-6.9,4.77-7.15,3.39-.28,4.62,4.42,4.59,7.1,0,3.13-1.65,5.87-3,8.52a13.6,13.6,0,0,0-.69,1.57c2-1.48,6.25-5.14,8.37-1.77,2.8,4.44-1.84,10.06-5,12.73-1.79,1.52-4,4.09-6.16,5.09A2.47,2.47,0,0,1,199,253c1.47,1.05,1.35,3.12,1.23,4-.42,3-3.24,5.19-5.7,6.57-3.17,1.78-4.9,3.38-5.87,7s-1.78,7.69-4.57,10.27C183.94,280.37,183.88,279.91,183.7,280.36Z" fill="#f4b796"/><path d="M199.11,221c-.09-1-.5-1.88-1.82-1.6-1.11.47-2.88,5.24-3.08,6.31a15.93,15.93,0,0,1,2,.61c.92.4,1.32.23,1.86-.64A7.63,7.63,0,0,0,199.11,221Z" fill="#f4e2d4"/><path d="M204.59,233.35a11.58,11.58,0,0,0-3.19,1.82c-.9.64-1.74,1.39-2.65,2,.83,0,1.31.86,1.8,1.45a1.91,1.91,0,0,0,2.44.63c1.69-.55,4-2.44,3.87-4.35C206.74,233.35,205.42,233.28,204.59,233.35Z" fill="#f4e2d4"/><path d="M194.91,253.73c-1.09.52-1.76.94-1.84,2.18-.06,1,0,2.69,1.49,2.23a11,11,0,0,0,2.71-1.44,2.85,2.85,0,0,0,1-2.85,1,1,0,0,0-1.16-1A8,8,0,0,0,194.91,253.73Z" fill="#f4e2d4"/><path d="M251.58,245.67c-3,.92-3.49,5.27-3,8.11.09.46.25,1.37.69,1.62s3.3-.13,3.33-.43C252.73,254.15,252.11,245.42,251.58,245.67Z" fill="#f4e2d4"/><path d="M228.06,413.32l1.4,2c.86,4.41,2.91,65.85,5.42,85.35h96c-12.62-31.45-41.48-91.75-42.54-94.24s-1.64-5.45-3.38-7.84c-1.12-1.54-1.83-1.18-3.47-.3a52.41,52.41,0,0,1-11.8,4.42c-2.3.6-4.65.75-7,1.28-2.65.62-5.25,1.51-7.9,2.18-5.88,1.49-11.75,3.14-17.71,4.33-3.45.68-6.21,1.1-9.32,2.68C227.7,413.47,227.9,413.26,228.06,413.32Z" fill="#ffa669"/><path d="M236.75,421.15c.29,1.39,6.88,61,9.13,79.54h2.49c-2.28-18.59-8.94-78.62-9.23-80a71,71,0,0,1-1.33-7.89l0-.2-2.43.21,0,.21A72.34,72.34,0,0,0,236.75,421.15Z" fill="#0082fe"/><path d="M263.18,500.69h2.54c-4.14-19.05-16.42-81-16.81-82.3A35.9,35.9,0,0,1,247,409l-2.44,0a37.75,37.75,0,0,0,2,10C247,420.42,259.1,481.76,263.18,500.69Z" fill="#0082fe"/><path d="M257.18,415.34c.53,1.69,1.07,3.44,1.72,5.13,2.37,6.27,17.14,62.44,21.9,80.22h2.59c-4.82-17.91-19.82-74.76-22.21-81.08-.62-1.63-1.15-3.34-1.67-5-.4-1.28-.81-2.6-1.26-3.9a9.78,9.78,0,0,1-.75-4.93l-.66-.14-1.84.5a13.35,13.35,0,0,0,.95,5.38C256.39,412.78,256.79,414.08,257.18,415.34Z" fill="#0082fe"/><path d="M265.89,407.83c.38.94.75,1.88,1.12,2.82.7,1.78,24.31,72.39,30.62,90h2.95c-6.92-20-30.64-89.25-31.3-90.94-.38-.94-.75-1.88-1.12-2.82-.28-.7-.6-1.38-.91-2s-.49-1-.71-1.56c-.82.13-1.65.26-2.47.41.3.76.64,1.49,1,2.2S265.64,407.21,265.89,407.83Z" fill="#0082fe"/><path d="M277.46,406.18l.79,1.44c1.07,2,29.52,73.63,37.33,93.07h2.61c-7.06-17.52-36.69-92.19-37.8-94.24l-.78-1.43c-.41-.76-.8-1.58-1.2-2.45s-.72-1.54-1.11-2.3c-.77.31-1.54.59-2.31.86.42.8.82,1.64,1.21,2.47S277,405.36,277.46,406.18Z" fill="#0082fe"/><path d="M285.77,397.63c-.63-2-2.27-4.22-3.25-6.18s-2-3.87-3-5.82c-.82-1.55-1.66-3-2.49-4.53-1.1-2-1.56-2.49-3.94-1.46a148.44,148.44,0,0,1-20.86,7.07c-6.71,1.83-13.79,3.76-20.7,4.43-.8.08-3.79.33-3.79.33-2.56,0-2.14,1.78-2,3.84s.2,4.23.39,6.39c.35,4,.35,8.17,1.05,12.15.35,2,.62,3.39,2.91,3.58s4.74-.52,6.88-.9a111.46,111.46,0,0,0,17.09-4.5c7.6-2.66,15.1-4.85,22.46-8.14C278.91,402.83,287,401.46,285.77,397.63Z" fill="#007be1"/><path d="M265.69,205.53s10.81-9.43,11.68-10.72c1.08-1.58-5.72-19.54-2-26.34s36.94-13.58,43-10.68c6.7,3.23,14.94,39.73,10,45.13-4.38,4.8-33.94,10.79-40,9.38s-5.52-5.7-7.18-7.94C279.84,202.63,265.69,205.53,265.69,205.53Z" fill="#ffa669"/><path d="M420,306.37a5.82,5.82,0,0,1-4.06-7.15c1.09-3.26,2.35-6.46,3.74-9.6A56,56,0,0,1,428.94,275a36.58,36.58,0,0,1,4.08-3.89,3.89,3.89,0,0,0-.35-1.45c-1-2.2-2.41-3.32-2.86-5.21-.26-1.07.3-2.33.22-3.42a12.94,12.94,0,0,0-1-4.7c-.88-2.2-1.82-3.94-4-4.31s-2.55,1-2.81-1c-.29-2.24,1.69-13.45.54-15.43-2.7-4.67-7.83-.54-9.26,3-2.62,6.56-4.44,14-6.24,20.94-3.38,13-13.09,22.43-23.92,29.81-1.88,1.29-7,5.17-9.28,2.94-1.55-1.51-1.12-5.09-1-7,.35-4.89,1.9-12.07.45-16.53-3.65,1.67-7.18,2.2-10.66,4.39-3,1.88-5.28,3.77-6.77,6.95-2.68,5.72-5.88,13.08-6.2,19.64-.16,3.27.67,6.32.78,9.55.13,3.83-.26,7.78.11,11.66.77,8.14.87,16.16.93,24.32.05,6.92-1.81,14.09-3.76,20.73-1.43,4.88-4.94,8.21-.53,12.16,4.26,3.83,10.67,5.57,16.14,7.08a96,96,0,0,0,14.89,3.08c1.8.18,4.94,1,6.42-.06s1.83-4.21,2.08-5.8c1.27-8.3,2.79-39.63,9.74-48.13,2-2.4,10.85-12.25,12.79-14.59,3.71-4.47,7.58-8.81,11.35-13.22A8.17,8.17,0,0,1,420,306.37Z" fill="#acdeff"/><path d="M344.79,365.29h.43l.43-.4C345.28,365,345.14,365.26,344.79,365.29Z" fill="#362e56"/><path d="M344.79,365.29h0Z" fill="#362e56"/><path d="M380.73,500.69c3.37-29.63,11.65-114.15,10.2-134.25-1.74-.32-17.63-.53-23.45-2.32-8.07-2.49-13.34-4.56-19.51-9.07,0,0-9.94,19.77-11.56,22.68-13.48,24.28-45.8,88.72-56.32,123Z" fill="#007be1"/><path d="M385.48,373.1c-.68-1.63-4.53-2.54-5.83-1.88a5.28,5.28,0,0,0-2.58,4.61c.08,3.41,4.92,5.71,7.44,3.1C385.91,377.49,386.64,375.85,385.48,373.1Z" fill="#0082fe"/><path d="M382.7,375.3a8.69,8.69,0,0,0-1.49-2,.81.81,0,0,0-1,.42c0,.28.42.48.57.72A19.35,19.35,0,0,1,382,376.6c.13.25,0,.67.32.83a.52.52,0,0,0,.78-.29A3.2,3.2,0,0,0,382.7,375.3Z" fill="#362e56"/><path d="M390.93,366.44a205.62,205.62,0,0,1-27.48-6.15c-2.7-1-12.91-5.27-15.18-6.53-2.3,1.72-9.44,16.58-9.57,18.42,11.15,10.41,44.25,25.52,45.91,24.93C385.87,396.66,390.67,370.15,390.93,366.44Z" fill="#004472"/><path d="M188.57,397.15a50.93,50.93,0,0,0-6.72-10.09,53.65,53.65,0,0,1-6.94-10.37c-1.5-2.84-3.62-5.87-4.26-9-.74-3.61-1.94-7.29-2.85-10.91-1.63-6.52-3.18-12.9-4.24-19.71-.95-6-2.42-12.52-6-17.86-1.68-2.48-3.07-5.14-4.72-7.59s-2.82-5.33-4.36-7.8c-.09-1-.13-.61-.23-.19-3.3-.3-6.38,1.23-9.39,2.42-9.48,3.73-17.71,10.07-26.07,15.71-4.68,3.16-10.92,7.66-13.63,12.69a7.07,7.07,0,0,0-.27,5.68c.64,1.84,1.9,3.35,2.67,5.28A77.33,77.33,0,0,0,113.25,366a33.25,33.25,0,0,0,14.07,9.71c3.58,1.42,7.19,3.74,9.14,7.22,3.89,7,6,14.69,9,22,1.31,3.16,2.45,6.4,3.51,9.58.49,1.48.37,4.15,1.42,5.31,1.34,1.47,3.36.51,5,0a37.64,37.64,0,0,0,7.17-3.61c3.91-2.17,8.38-3.51,12.38-5.64C179.27,408.33,191.7,403.29,188.57,397.15Z" fill="#f4b796"/><path d="M142.24,426.62c13.74,40.72,26.49,64.2,32.26,74.07h109c-12.69-16.07-46.16-61.29-91-105.39-2.65-2.62-4.67-6.27-8.13-8.45a22.41,22.41,0,0,1-7.49,8.17c-2.16,1.37-3.85,3.34-6,4.84s-4,2.79-6,4.12a62.81,62.81,0,0,1-18.41,8,27.87,27.87,0,0,0-5.48,2.11c-.77.4-3.39,1-3.82,1.72s1.43,3.25,2,4.26A44.9,44.9,0,0,1,142.24,426.62Z" fill="#004472"/><path d="M107,278.53a19.6,19.6,0,0,0-3.2-3.49c-.93-1-1.86-2.39-3.11-3-3.51-1.57-5.47,1.44-5.37,4.41s1.45,5.37,3.19,7.83c0-.12,0-.23,0-.41,1.78,4.65,5.25,4.52,8.25,2.6C110,284.4,108.7,281.41,107,278.53Z" fill="#f4b796"/><path d="M98.48,284.33a.41.41,0,0,0,.11.17Z" fill="#f4b796"/><path d="M106.89,297.18c-.62-2.56-1.86-4.65-4.5-5.23a19.82,19.82,0,0,0-4.61-.2,30.19,30.19,0,0,0-4.48.62c-1.57.29-4,.8-4.6,1.67.12,3,.83,5,1.15,7.52a34.6,34.6,0,0,1-.12,6.9c-.22,3.29-.37,6.59-.75,9.85-.44,3.7-2,10.22,1.87,12.58,2.9,1.78,5.12,0,7.27-1.94,1.65-1.51,2.43-3.75,3.32-5.77a53.34,53.34,0,0,0,3-8.73c.79-3.2,2.08-6,2.3-9.33C106.93,302.56,107.5,299.7,106.89,297.18Z" fill="#f4b796"/><rect x="73.03" y="270.22" width="101.34" height="54.31" rx="10.05" transform="translate(-192.73 357.41) rotate(-78.16)" fill="#362e56"/><rect x="73.92" y="266.34" width="101.34" height="54.31" rx="10.05" transform="translate(-188.22 355.19) rotate(-78.16)" fill="#007be1"/><rect x="101.67" y="252.87" width="46.53" height="77.92" transform="matrix(0.98, 0.21, -0.21, 0.98, 62.56, -19.43)" fill="#fff"/><rect x="135.03" y="242.54" width="1.4" height="14.06" rx="0.65" transform="translate(-136.39 331.18) rotate(-78.16)" fill="#362e56"/><path d="M101.54,298.3a9.69,9.69,0,0,0-5.11-3.67,40.13,40.13,0,0,0-5.89-1.36c-1.73-.3-3.38,2-3.7,3.37-.38,1.6-.68,3.8,0,5.23.44.88,1.54,1.07,2,1.87-.57.44-1.25.47-1.86.92a7.39,7.39,0,0,0-1.41,1.44,7.72,7.72,0,0,0-1.44,3.81,6.87,6.87,0,0,0,.76,4.26,8.91,8.91,0,0,1,.92,1.79c.21.91-.13,1.08-.78,1.78-1.37,1.48-2.6,2.79-2.89,4.85a7.26,7.26,0,0,0,1.23,5.07,7.94,7.94,0,0,0,3.75,3.61c1.43.56,3.28,1.13,4.64.21s1.54-3.48,1.46-5.05c-.1-2.11-1.15-3.39-1.82-5.26,1.24.63,1.88,1.39,3.45,1a5.59,5.59,0,0,0,3-2.29c1.67-2.82.28-6.45-1.22-9a22.06,22.06,0,0,0-2.73-3.79c.92,0,1.86.79,2.78,1a5.75,5.75,0,0,0,3-.22,5.07,5.07,0,0,0,3.36-4.48A8.85,8.85,0,0,0,101.54,298.3Z" fill="#f4b796"/><path d="M160.48,420.88c7.59-3.18,14.11-8.9,20.57-13.89,2.52-1.95,5.34-3.41,7.77-5.55a21.86,21.86,0,0,0,3.8-3.83c.22-.32.47-.64.73-1-.28-.45-.55-.9-.82-1.35a23.07,23.07,0,0,0-1.76-2.62c-2.75,6.07-8.92,10.13-14.4,14-3.58,2.54-6.76,5.26-10.67,7.3-4.61,2.41-9.48,5-14.53,6.36-3.18.85-6.51,1.1-9.66,2l-1,.32q.72,1.55,1.41,3.12c2.13-.65,4.3-1.14,6.45-1.68C152.42,423.12,156.62,422.5,160.48,420.88Z" fill="#ffce00"/><path d="M98.37,299.47a9.71,9.71,0,0,0-2-1.31c-.79-.28-1.26.18-1.81.68a6.15,6.15,0,0,0-1.45,2.06c-.2.4-.64,2-.15,2.19.12,1,1,1.37,1.58,1.67a11.37,11.37,0,0,0,2.23,1c1.53.4,2.82-1.34,3.17-2.62A3.35,3.35,0,0,0,98.37,299.47Z" fill="#f4e2d4"/><path d="M91.94,312.59c-.93.76-2.71,2.51-2.26,3.83a5.44,5.44,0,0,0,2.59,3.27,2.63,2.63,0,0,0,3.09-1.47,3.65,3.65,0,0,0-.27-3.91C94.38,313.25,93.3,311.49,91.94,312.59Z" fill="#f4e2d4"/><path d="M89,323.78c-.5-.51-.92-.24-1.44.1-.92.61-2,1.35-2.1,2.55a3.81,3.81,0,0,0,.86,1.95,1.74,1.74,0,0,0,1.37.77,2.16,2.16,0,0,0,2.33-1c.5-.85.08-2-.22-2.87A4.31,4.31,0,0,0,89,323.78Z" fill="#f4e2d4"/></g><path d="M311.88,170.62c.24.75,3.17,14.53,4.27,19.38a2.56,2.56,0,0,1-.68,2.82c-3.05,2.46-6.66,3.61-10.4,4.4l-.66.16c-.07-.26-.15-.52-.21-.78q-1.81-8.1-3.63-16.19a1.67,1.67,0,0,0-.59-1.1,5.8,5.8,0,0,0-2.52-1.18c-.66-.08-1.31-.28-2-.38-.45-.07-.4-.24-.2-.52l.28,0c.07.12.14.21.28,0l.4-.06a.15.15,0,0,0,.17.05l1.28-.26a2.52,2.52,0,0,0,1.73-.38l3.56-.81c.29.12.55.15.63-.22l.23-.12a.82.82,0,0,0,1.06-.37c.6,0,1-.48,1.51-.63a8.38,8.38,0,0,0,5-3.49A1.91,1.91,0,0,1,311.88,170.62Z" fill="#dbf2ff"/><path d="M295.28,177.23c-.2.28-.24.46.2.52.67.1,1.32.3,2,.38a5.8,5.8,0,0,1,2.52,1.18,1.67,1.67,0,0,1,.59,1.1q1.8,8.1,3.63,16.19c.06.26.14.52.21.78-.09,1,.41,1.92.48,3a6.07,6.07,0,0,1-1.5-.83,11.56,11.56,0,0,0-5.6-1.2,13.3,13.3,0,0,1-4.65-.53,2.45,2.45,0,0,1-1.74-1.93c-1.34-6.17-2.75-12.33-4.13-18.49-.06-.26-.09-.53-.14-.79.45-.15,1.63-1.07,1.9-1,1.12.09,1.6.94,2.71,1s1.94,1,3.09.65A.45.45,0,0,1,295.28,177.23Z" fill="#faf2f1"/><path d="M295.31,177.45a16.11,16.11,0,0,1-8-.88.56.56,0,0,1-.24-.16.48.48,0,0,1-.07-.2,3.05,3.05,0,0,1,1.43-3.1,19.86,19.86,0,0,1,5.93-2.91,36.66,36.66,0,0,1,8.14-1.85c2.45-.27,5.7-.73,8,.48.24.13,1.78,1.6,1.27,1.91-.12.06-.27.1-.34.2-3.13,4.72-10.08,5.81-15.26,6.42Zm4.32-3.3c.27-.06.54-.1.79-.18a6.3,6.3,0,0,0,3.24-1.75c.35-.41.18-.65-.15-.82a2.6,2.6,0,0,0-1.08-.32,12.2,12.2,0,0,0-7.26,1.83c-.32.21-.67.5-.52.94s.51.52.91.58A10.74,10.74,0,0,0,299.63,174.15Z" fill="#fdfefe"/><path d="M299.63,174.15a10.74,10.74,0,0,1-4.07.28c-.4-.06-.78-.19-.91-.58s.2-.73.52-.94a12.2,12.2,0,0,1,7.26-1.83,2.6,2.6,0,0,1,1.08.32c.33.17.5.41.15.82a6.3,6.3,0,0,1-3.24,1.75C300.17,174.05,299.9,174.09,299.63,174.15Z" fill="#53585f"/><path d="M101.73,244.28s-10.58-9.71-12-10.43c-1.69-.89-23.64,10-30.81,7.06S41.38,205.7,43.6,199.39c2.47-7,50.71-24.13,56.62-19.84,5.25,3.81,14.48,32.53,13.76,38.76s-13.08,8.87-15.13,10.77C97.28,230.53,101.73,244.28,101.73,244.28Z" fill="#0067ad"/><path d="M208,121.44c-4-3-9.18,2.12-9.85,6.32-3-2.87-10.68-3.29-11.74,1.76-1.17,5.56,4.89,9.37,9.1,11.44,2.66,1.31,6,1.57,8.59,2.95,1.09-2.77,3.4-5.14,4.55-7.87C210.45,131.71,212.51,124.86,208,121.44Z" fill="#f78631"/><path d="M169,111.65c1.9,1.29,3.74,2.66,5.6,4,1.18.89,2.58,2.45,4,3,0,0,1.29,1.19,2.09.81-1.1-1.39-2.87-2.46-4.21-3.7s-2.82-3-4.23-4.41-7.94-9.68-9.94-8.13C162.77,106.79,166.2,109.72,169,111.65Z" fill="#362e56"/><path d="M179.67,135.07c-1.45-.13-16.45,5.26-18.48,6.11-1.1.46-3,2.54-1.46,3.6S180,136.11,179.67,135.07Z" fill="#362e56"/><path d="M188,85.89c-2.67,1.44-.69,5-.27,7.52.31,1.89,4.27,18.12,5.28,18.83C193.51,110.9,190.63,86.06,188,85.89Z" fill="#362e56"/><path d="M218.11,90.88c-2.36.47-8.6,17.57-7.9,20.43C211.59,109.59,221.3,90.26,218.11,90.88Z" fill="#362e56"/><path d="M218,104.18c.61-.08,3.69-3.43,5-4.81.7-.71,3.85-3.56,3.66-4.56-.52-2.73-3.32.58-3.86,1.38C221.42,98.27,217.58,104.1,218,104.18Z" fill="#362e56"/><path d="M217.19,123.62c.41.56,4.57-.11,6-.32,1.94-.29,9.55-2,11.35-2.25,2.14-.36,5.34-1.59,5.31-2.37C238.48,114.91,217.15,122.51,217.19,123.62Z" fill="#362e56"/><path d="M218.74,133.81c-.23.58,13.26,6.7,13.09,3.51C231.73,136.49,222.16,133.15,218.74,133.81Z" fill="#362e56"/><path d="M188.65,148.16c-.51-.36-9.61,11.32-6.47,11.9C183,160.16,188.49,151.64,188.65,148.16Z" fill="#362e56"/><path d="M160.34,116.39c1.45.81,5.91,2.4,6.73,1.88-.34-1.15-1.83-1.77-2.9-2.22s-3.43-2.15-4.39-2.22C157.23,113.62,159.22,115.77,160.34,116.39Z" fill="#362e56"/><path d="M135.48,281.51c-2.18-4.54-9.12-2.32-11.65,1.1-1.38-3.94-8-7.82-11.23-3.82-3.59,4.41,0,10.57,2.83,14.34,1.77,2.39,4.58,4.14,6.29,6.56,2.22-2,5.37-3,7.64-4.9C133,291.77,137.94,286.64,135.48,281.51Z" fill="#f78631"/><path d="M37.18,390.82c-1.45-.12-16.45,5.27-18.49,6.12-1.09.45-3,2.54-1.45,3.6S37.52,391.86,37.18,390.82Z" fill="#362e56"/><path d="M45.54,341.64c-2.68,1.45-.69,5-.27,7.53.3,1.88,4.27,18.12,5.28,18.83C51,366.65,48.14,341.81,45.54,341.64Z" fill="#362e56"/><path d="M75.61,346.64c-2.36.46-8.6,17.57-7.89,20.42C69.1,365.34,78.8,346,75.61,346.64Z" fill="#362e56"/><path d="M74.7,379.38c.41.56,4.57-.12,6-.33,2-.29,9.56-1.94,11.35-2.24,2.15-.36,5.35-1.6,5.32-2.38C96,370.67,74.66,378.27,74.7,379.38Z" fill="#362e56"/><path d="M46.15,403.92c-.5-.36-9.6,11.32-6.46,11.9C40.51,415.91,46,407.4,46.15,403.92Z" fill="#362e56"/><path d="M96.31,209.4a4.32,4.32,0,0,0,.89.92c.24.21.22.32,0,.51-2.62,2.31-5.19,4.68-7.9,6.88A22.72,22.72,0,0,1,83.53,221a26.79,26.79,0,0,1-6.84,1.76c-2.52.34-5,.71-7.56,1.06-.46.06-.45.06-.48-.42s-.07-.78-.1-1.17a3.08,3.08,0,0,0-.14-.84c0-.12,0-.25,0-.37A20.53,20.53,0,0,0,67,216.59a25.87,25.87,0,0,0-2.34-4.17,23.09,23.09,0,0,0-2.19-2.84l-.76-.92c.72-.67,1.51-1.24,2.27-1.85,1.79-1.46,3.62-2.87,5.41-4.33a24.27,24.27,0,0,1,6-3.81,25.65,25.65,0,0,1,4.87-1.34c2-.38,4-.79,6-1.18l4-.78c.13,0,.27-.06.31.14a4.2,4.2,0,0,0,.15,1.12c0,.11,0,.23,0,.34a31.27,31.27,0,0,0,1.6,5.75,21.38,21.38,0,0,0,3.47,6A4.1,4.1,0,0,0,96.31,209.4Zm-12.26,9.88c.45-.24,1-.47,1.5-.76s.72-.58,1.12-.77a11.57,11.57,0,0,0,2.6-1.82c2-1.73,3.93-3.49,5.9-5.23.2-.18.18-.26,0-.42a16.88,16.88,0,0,1-3.52-4.7,21.05,21.05,0,0,1-1.32-3.23,25.3,25.3,0,0,1-1.13-5c0-.26-.07-.35-.38-.29-2.24.46-4.5.87-6.75,1.33a32.21,32.21,0,0,0-6,1.49,19.08,19.08,0,0,0-3,1.56,38.86,38.86,0,0,0-3.16,2.42L64,208.53c-.24.19-.26.31,0,.55a25.83,25.83,0,0,1,5,8.07,15.44,15.44,0,0,1,1,4.79c0,.28.09.33.36.29,2.24-.33,4.48-.66,6.72-.95A23.07,23.07,0,0,0,84.05,219.28Z" fill="#46aff7"/><path d="M90.59,196.63a4.2,4.2,0,0,1-.15-1.12A22.22,22.22,0,0,1,93.76,192a7.56,7.56,0,0,1,4-1.9,4.31,4.31,0,0,1,4.24,2.49,9,9,0,0,1,.66,5,15.68,15.68,0,0,1-.85,3.67,19.87,19.87,0,0,1-2.69,5.22,17.4,17.4,0,0,1-2.52,2.76,1.23,1.23,0,0,1-.33.23,4.1,4.1,0,0,1-.61-.64,2,2,0,0,0,.44-.26,14.89,14.89,0,0,0,2.6-2.94,18.24,18.24,0,0,0,3.13-8.07,7.55,7.55,0,0,0-.6-4.65,3.33,3.33,0,0,0-3.06-1.93,6.19,6.19,0,0,0-3.91,1.71,20.31,20.31,0,0,0-3.36,3.63A1.27,1.27,0,0,1,90.59,196.63Z" fill="#78caff" stroke="#78caff" stroke-miterlimit="10" stroke-width="2"/><path d="M84.05,219.28a23.07,23.07,0,0,1-7,2c-2.24.29-4.48.62-6.72.95-.27,0-.35,0-.36-.29a15.44,15.44,0,0,0-1-4.79,25.83,25.83,0,0,0-5-8.07c-.22-.24-.2-.36,0-.55l5.87-4.67A38.86,38.86,0,0,1,73,201.44a19.08,19.08,0,0,1,3-1.56,32.21,32.21,0,0,1,6-1.49c2.25-.46,4.51-.87,6.75-1.33.31-.06.35,0,.38.29a25.3,25.3,0,0,0,1.13,5,21.05,21.05,0,0,0,1.32,3.23,16.88,16.88,0,0,0,3.52,4.7c.18.16.2.24,0,.42-2,1.74-3.92,3.5-5.9,5.23a11.57,11.57,0,0,1-2.6,1.82c-.4.19-.72.54-1.12.77S84.5,219,84.05,219.28Zm-7.2-1.14c-.09-.32-.29-.23-.5-.17-.61.19-1.23.37-1.85.54l-2.28.62c7.71,1.28,15.65-2,19.27-8.9-.06,0-.11,0-.14.06a33.69,33.69,0,0,1-4.11,2.83c-1.08.66-2.19,1.27-3.32,1.84a40.8,40.8,0,0,1-5.33,2.23,5.91,5.91,0,0,1-1.33.51.24.24,0,0,0-.3.14C76.92,217.93,77,218.05,76.85,218.14ZM70,213.57A55.56,55.56,0,0,0,88.6,205c-.09,0-.12,0-.14,0-.92.23-1.82.52-2.72.82C84.66,206.18,73.59,211,70,213.57Zm7.51,4.29c-.07.13-.18.26-.1.45s.14.2.26.12a.39.39,0,0,0,.13-.43C77.77,217.88,77.67,217.82,77.51,217.86Z" fill="#acdeff"/><path d="M87.6,218.4c-.06-.08-.13-.05-.19,0s-.15.1-.09.2a.14.14,0,0,0,.18.08A.22.22,0,0,0,87.6,218.4Z" fill="#b7c8f3"/><path d="M78.34,217.32s.16-.09.25-.13A40.8,40.8,0,0,0,83.92,215c1.13-.57,2.24-1.18,3.32-1.84a33.69,33.69,0,0,0,4.11-2.83s.08,0,.14-.06c-3.62,6.88-11.56,10.18-19.27,8.9l2.28-.62c.62-.17,1.24-.35,1.85-.54" fill="#46aff7"/><path d="M81.63,207.31c1.35-.53,2.73-1,4.11-1.5.9-.3,1.8-.59,2.72-.82,0,0,.05,0,.14,0A55.56,55.56,0,0,1,70,213.57a2,2,0,0,0,.48-.35l.59-.4c.37-.25.75-.51,1.13-.75.76-.49,1.54-1,2.32-1.41a47,47,0,0,1,4.87-2.43C80.13,207.91,80.88,207.61,81.63,207.31Z" fill="#46aff7"/><path d="M73.24,205c.09,0,.21,0,.24-.17l.26-.14a26.62,26.62,0,0,1,3-1.63,28.88,28.88,0,0,1,6-1.92,27.62,27.62,0,0,1,4-.44,2.32,2.32,0,0,1-.93.39c-1.47.53-2.91,1.11-4.37,1.67-2.66,1-5.22,2.28-7.79,3.49-1.2.56-2.36,1.23-3.52,1.87-.85.48-1.67,1-2.52,1.47A29.47,29.47,0,0,1,73.11,205Z" fill="#46aff7"/><path d="M69.92,213c0-.07-.08-.14-.17-.07a.19.19,0,0,0-.08.25c0,.08.1.12.18.08A.19.19,0,0,0,69.92,213Z" fill="#fefefe"/><path d="M87.6,218.4a.22.22,0,0,1-.1.26.14.14,0,0,1-.18-.08c-.06-.1,0-.16.09-.2S87.54,218.32,87.6,218.4Z" fill="#849dda"/><path d="M69.92,213a.19.19,0,0,1-.07.26c-.08,0-.14,0-.18-.08a.19.19,0,0,1,.08-.25C69.84,212.86,69.88,212.93,69.92,213Z" fill="#b7c8f3"/><path d="M69,222.66a3.22,3.22,0,0,1,.19.9,15.23,15.23,0,0,1-7-.83,18.67,18.67,0,0,1-6.94-4.06,10,10,0,0,1-2.36-3.28,4.82,4.82,0,0,1,.7-5.15,6.27,6.27,0,0,1,3.32-1.52,16.78,16.78,0,0,1,4.37-.09c.13,0,.26.06.37,0,.26.35.53.69.79,1h-.38a19.41,19.41,0,0,0-4-.13,6.6,6.6,0,0,0-3.57,1.19,3.45,3.45,0,0,0-1.11,3.73,6.88,6.88,0,0,0,1.8,3.07,16,16,0,0,0,4.5,3.3,18.55,18.55,0,0,0,4.69,1.67A12.58,12.58,0,0,0,69,222.66Z" fill="#78caff" stroke="#78caff" stroke-miterlimit="10" stroke-width="2"/><circle cx="59.43" cy="390.56" r="15.27" fill="#fff" stroke="#f27520" stroke-miterlimit="10"/><g id="VSK2kL.tif"><path d="M62.86,382.23v0h.28Z" fill="#f27520"/><path d="M67.66,389.07a1.13,1.13,0,0,0-1-.77,8,8,0,0,0-.85,0h-4v-4.61a1.53,1.53,0,0,0-1-1.37H58.39a1.26,1.26,0,0,0-1,.6,1.19,1.19,0,0,0-.18.64v4.73H52.54a1.5,1.5,0,0,0-.88.29,1.09,1.09,0,0,0-.46.74v2.43a1.8,1.8,0,0,0,.21.63,1,1,0,0,0,.85.54c.28,0,.56,0,.84,0h4v4.54a1.82,1.82,0,0,0,.12.65,1.11,1.11,0,0,0,1,.75c.37,0,.74,0,1.1,0h1a1.75,1.75,0,0,0,1-.34,1.06,1.06,0,0,0,.42-.89c0-1.53,0-3.06,0-4.59v-.13h4.54a1.7,1.7,0,0,0,.71-.14,1.09,1.09,0,0,0,.62-.61v-3.1Z" fill="#f27520"/></g><circle cx="216.17" cy="240.83" r="2.46" fill="url(#_ÂÁ_Ï_ÌÌ_È_ËÂÌÚ_62)"/><circle cx="223.94" cy="242.6" r="2.46" fill="url(#_ÂÁ_Ï_ÌÌ_È_ËÂÌÚ_62-2)"/><circle cx="231.99" cy="244.51" r="2.46" fill="url(#_ÂÁ_Ï_ÌÌ_È_ËÂÌÚ_62-3)"/><path d="M442.57,278.19c2.67-.28,3.55,1.25,2.47,3.61a23.9,23.9,0,0,1-2.2,3.57c-.83,1.18-1.35,2.44-2.14,3.64-3,4.52-17.69,19.61-21.79,22.45a16,16,0,0,1-5.35,3.43c-1.61.53-4.21,1-5.42.46-1.05-.46-2.42-1.47-2.23-2.77.38-2.58,3.74-6.27,6.47-8.05,2.42-1.56,18.9-19.09,20.63-20.94C435.38,281.06,439.44,278.52,442.57,278.19Z" fill="#acdeff"/><path d="M437.05,265.47c2.84.29,3.74,2.3,2.56,4.81a23.27,23.27,0,0,1-2.39,3.67c-.91,1.18-1.48,2.54-2.33,3.76-3.22,4.6-19.08,18.81-23.47,21.17a13,13,0,0,1-5.73,2.76c-1.72.24-4.48.18-5.75-.74-1.11-.79-2.54-2.29-2.32-3.77.44-2.94,4.07-6.47,7-7.91C407.2,288,425,271.3,426.83,269.54,429.39,267.14,433.73,265.12,437.05,265.47Z" fill="#acdeff"/><path d="M461.48,191.87c1.71-1.4,9.77-6.89,8-9.49-3.62-1.25-13.87,12.17-17.32,16.39a13.78,13.78,0,0,0,4.41-2.57C458.28,194.81,459.77,193.27,461.48,191.87Z" fill="#362e56"/><path d="M479.16,219.56c1.53.54,7.83,3.6,9.6,1.05.22-3.23-13.1-3.91-17.34-4.28a7.16,7.16,0,0,0,3.1,1.89C476,218.73,477.63,219,479.16,219.56Z" fill="#362e56"/><path d="M483.73,208.39c2.16.1,6.72-.66,8.16-2.49-2.21-5-12.8-1.4-15.66-1-3.68.55-7.4,1.32-11,2a30.15,30.15,0,0,0-8.44,2.74c0,.28-.09.38-.15.4,1,.9,14.29-1,18.78-1.31A69.94,69.94,0,0,1,483.73,208.39Z" fill="#362e56"/><path d="M469.65,236c-.08-3.16-13.13-12.16-15.7-13.4.55,1.88,4.23,5.64,5.87,7.39C462.92,233.32,468.49,237.31,469.65,236Z" fill="#362e56"/><path d="M381.45,189.54h0a5.52,5.52,0,0,0-1.8-.34c-.39-.08-.75.25-1,.51s.17.49.3.73a5,5,0,0,0,1.48,1.5c3.34.8,6.66,1.72,10,2.52,3.19.76,6.4,1.43,9.6,2.2q2.71.66,5.46,1.23c2.39.51,4.77,1,7.16,1.57,1.64.36,3.29.68,4.94,1,2.49.53,5,.95,7.52,1.41a29.17,29.17,0,0,1-.39,5c-.45,4.42-.95,8.84-1.46,13.25-.58,5-1.31,10-2,14.95l-2.25,16.6L417,267.17c-.16.29-.37.57-.17.93l-.11.67c-.06-.19-.22,1.94-.27,2.31-1.23,9-2.4,18-3.8,27-.24,1.58-.44,3.18-.63,4.77a.82.82,0,0,1-.64.78,18.6,18.6,0,0,1-2.76.6,46.74,46.74,0,0,1-10.77.15,8.46,8.46,0,0,0-2.68.12,9.86,9.86,0,0,0,3,.81,30.13,30.13,0,0,0,4.34.79c1.23.08,2.47.12,3.7.21a8.43,8.43,0,0,0,2.51-.13c.71-.15,1.62.19,2.11-.7.05-.09.34-.08.52-.07s.52,0,.52.34-.25.26-.46.3c-.57.13-.5.51-.29.89a2,2,0,0,0,.43.45c-.12.26-.36.29-.6.33a31.28,31.28,0,0,1-6.91.26,70.16,70.16,0,0,1-8-1.18c-2.3-.39-4.56-1-6.83-1.59-2.67-.68-5.34-1.37-8-2.09-2.16-.59-4.34-1.07-6.47-1.76-1-.33-8-3.41-8-2.78-2.77-1-5.43-2.26-8.13-3.42-2-.85-3.9-1.82-5.94-2.52-.18-.06-.49-.05-.5-.31s.3-.24.48-.3a9.57,9.57,0,0,0,1.78-.82,14.24,14.24,0,0,1,4.79,1.95,4.85,4.85,0,0,0,2.28.71,1.14,1.14,0,0,0-.54-.68,48.23,48.23,0,0,0-4.77-3.37,13.69,13.69,0,0,0-3-1.8c.51-3.71,2-13.73,1.94-13.9-.32-.74.75-7.77,1-10.55.26-3,.81-5.9,1-8.86.2-2.57.7-5.11.89-7.68.14-1.92.43-3.81.64-5.72,0-.41.36-1.83.33-2.07a2,2,0,0,1,0-.55c.67-5,1.25-10,1.83-15.05,1.16-10,2.66-20,3.92-30.07.11-.87.42-1.29,1.29-1.28,1.8.19,3.55.65,5.35.89a55.6,55.6,0,0,0-6.32-2.93c-.2-.68.31-1.19.41-1.79a3.52,3.52,0,0,1,2.3-2.58,56.7,56.7,0,0,1,10.15-3.44c3.15-.84,6.33-1.53,9.53-2.14a5.07,5.07,0,0,1,1.94.13c2.72.47,5.4,1.09,8.09,1.7.94.22,1.91.37,2.86.57,2.77.57,5.57,1,8.32,1.73,1.6.42,3.24.67,4.86,1a42,42,0,0,1,5,1.06c2.54.86,5.18,1.23,7.75,2,4.19,1.18,8.52,1.83,12.66,3.23,1.07.36,2.18.6,3.22,1.06.25.11.65.12.7.43s-.39.45-.61.66a.59.59,0,0,1-.58.17,17.85,17.85,0,0,0-3.31.68c-3.81.84-7.49,2.15-11.27,3.1a2,2,0,0,0-1,.5c.29.29.58.16.86.14,1.39-.11,2.77-.21,4.16-.39a45.34,45.34,0,0,0,7.12-1.43,4.29,4.29,0,0,0,2-.85,2.72,2.72,0,0,1,1.09.57,5.45,5.45,0,0,1-1.78.57c-3.06.74-6.13,1.44-9.19,2.17-1.68.39-3.36.8-5,1.2-1.94-.05-3.74-.8-5.64-1.12-1.28-.22-2.56-.56-3.84-.84-2.48-.54-4.93-1.25-7.43-1.72-2.2-.4-4.37-.91-6.54-1.43-3-.73-6.05-1.28-9-2.11-1.37-.39-2.76-.64-4.14-1-1.81-.43-3.62-.9-5.44-1.28-1.1-.24-1.37-.52-1.22-1.7.28.05.31.34.48.49" fill="#e1b885"/><path d="M423.79,299.9a28.39,28.39,0,0,1-3.72,2.63c-2.19,1.45-4.41,2.85-6.71,4.12a4,4,0,0,1-1.8.7,2,2,0,0,1-.43-.45c-.21-.38-.28-.76.29-.89.21,0,.46,0,.46-.3s-.3-.32-.52-.34-.47,0-.52.07c-.49.89-1.4.55-2.11.7a8.43,8.43,0,0,1-2.51.13c-1.23-.09-2.47-.13-3.7-.21a30.13,30.13,0,0,1-4.34-.79,9.86,9.86,0,0,1-3-.81,8.46,8.46,0,0,1,2.68-.12,46.74,46.74,0,0,0,10.77-.15,18.6,18.6,0,0,0,2.76-.6.82.82,0,0,0,.64-.78c.19-1.59.39-3.19.63-4.77,1.4-9,2.57-18,3.8-27,.05-.37,1.93-14.2,2.62-19.34l2.25-16.6c.67-5,1.4-10,2-14.95.51-4.41,1-8.83,1.46-13.25a29.17,29.17,0,0,0,.39-5c.2-.55,0-1.13.14-1.69,1.68-.4,3.36-.81,5-1.2,3.06-.73,6.13-1.43,9.19-2.17a5.45,5.45,0,0,0,1.78-.57c.61,0,.42.48.38.82q-.66,5-1.34,10T439,217c0,.29-1.88,13.94-2.46,18.11-1.3,9.35-2.55,18.72-3.89,28.07-.82,5.78-1.74,11.55-2.65,17.32-.48,3.06-1,6.12-1.53,9.18a.86.86,0,0,0-.18.8c-.11.67-.23,1.35-.34,2-.12-.14-.8,4.28-1.11,4.63" fill="#c6925b"/><path d="M440.2,195.71a4.29,4.29,0,0,1-2,.85,45.34,45.34,0,0,1-7.12,1.43c-1.39.18-2.77.28-4.16.39-.28,0-.57.15-.86-.14a2,2,0,0,1,1-.5c3.78-1,7.46-2.26,11.27-3.1a17.85,17.85,0,0,1,3.31-.68c-.44.36-1,.38-1.5.67-.24.15-.65.17-.64.51S439.89,195.62,440.2,195.71Z" fill="#c6925b"/><path d="M353.13,288a13.69,13.69,0,0,1,3,1.8,48.23,48.23,0,0,1,4.77,3.37,1.14,1.14,0,0,1,.54.68,4.85,4.85,0,0,1-2.28-.71,14.24,14.24,0,0,0-4.79-1.95,1.94,1.94,0,0,0-.39-1.83A4,4,0,0,1,353.13,288Z" fill="#c6925b"/><path d="M365.06,190.21a55.6,55.6,0,0,1,6.32,2.93c-1.8-.24-3.55-.7-5.35-.89.21-.46,0-.79-.29-1.12S365.13,190.63,365.06,190.21Z" fill="#c6925b"/><path d="M423.9,299.68c0-.82-.63-1.35-.94-2-.18-.37.85-1.08,1.13-.63a14.78,14.78,0,0,0,.75,1.28c.4.52.37.88-.26,1.14-.21.1-.36.31-.62.31Z" fill="#c6925b"/><path d="M360.32,238.11a.31.31,0,0,1,.05.1s0,0,0,0a.6.6,0,0,1-.11-.06Z" fill="#e1b885"/><path d="M423.71,299.8l.19-.12.06.08-.17.14Z" fill="#c6925b"/><path d="M425.28,200.22c-1.94-.05-3.74-.8-5.64-1.12-1.28-.22-2.56-.56-3.84-.84-2.48-.54-4.93-1.25-7.43-1.72-2.2-.4-4.37-.91-6.54-1.43-3-.73-6.05-1.28-9-2.11-1.37-.39-2.76-.64-4.14-1-1.81-.43-3.62-.9-5.44-1.28-.88-.19-1.22-.41-1.25-1.08l-.52-.17v0l-.08,0-.58-.17c-.37-.06-9.19-1-9.55-1.12a1.16,1.16,0,0,0-1,.51c-.23.27.18.48.3.72s9,1.61,9,2.07l0,0c.31.06.52.32.85.4,3.34.8,6.66,1.72,10,2.52,3.19.76,6.4,1.43,9.6,2.2q2.71.66,5.46,1.23c2.39.51,4.77,1,7.16,1.57,1.64.36,3.29.68,4.94,1,2.49.53,5,.95,7.52,1.41C425.34,201.36,425.12,200.78,425.28,200.22Z" fill="#ddd3c4"/><path d="M383,189.06a.74.74,0,0,1,.17-.12c0,.05.06.11,0,.14a.69.69,0,0,1-.15.14C383.06,189.14,383,189.07,383,189.06Z" fill="#ddd3c4"/><path d="M392.36,183.35l.05,0-.05,0c0-.14.1-.32-.11-.4s-.2.07-.21.17S392.23,183.31,392.36,183.35Zm-3.9,1.61-.1.08.05.05a.39.39,0,0,1,.1-.08Z" fill="#ddd3c4"/><path d="M414.77,270.34c.15,0,.25,0,.28-.13A.21.21,0,0,0,415,270a.18.18,0,0,0-.24.13S414.76,270.29,414.77,270.34Z" fill="#ddd3c4"/><path d="M426.06,263.83a.31.31,0,0,1,.13,0Z" fill="#e1b885"/><path d="M425.31,263.21a1.09,1.09,0,0,1-.08.15A1.09,1.09,0,0,0,425.31,263.21Z" fill="#e1b885"/><path d="M383.09,189.22c0-.08-.08-.15-.06-.16a.74.74,0,0,1,.17-.12c0,.05.06.11,0,.14A.69.69,0,0,1,383.09,189.22Z" fill="#e1b885"/><path d="M381.45,189.54l.05,0,0,0Z" fill="#e1b885"/><path d="M392.36,183.35c-.13,0-.34,0-.32-.23s.11-.2.21-.17.11.26.11.4Z" fill="#e1b885"/><path d="M389.71,185.22c-.14,0-.3-.05-.3-.26,0,0,0,0,.06,0,.21,0,.23.15.24.31Z" fill="#e1b885"/><path d="M388.46,185l.05,0a.39.39,0,0,0-.1.08l-.05-.05Z" fill="#e1b885"/><path d="M392.36,183.35l.05,0-.05,0Z" fill="#e1b885"/><path d="M414.77,270.34s-.06-.13,0-.18A.18.18,0,0,1,415,270a.21.21,0,0,1,.08.18C415,270.31,414.92,270.36,414.77,270.34Z" fill="#e1b885"/><path d="M411.71,271.44l-.11-.16A.68.68,0,0,1,411.71,271.44Z" fill="#e1b885"/><path d="M412.08,272a1.4,1.4,0,0,0,.1.16A.76.76,0,0,1,412.08,272Z" fill="#e1b885"/><path d="M415.35,269.3l.09.05S415.35,269.33,415.35,269.3Z" fill="#e1b885"/><path d="M412.26,270.8l.09.05" fill="#e1b885"/><path d="M416,268.63l0,.11" fill="#e1b885"/><path d="M363.4,237.84A1.42,1.42,0,0,1,363,237l1.14.1c-.49.18-.75.34-.7.71Z" fill="#e1b885"/><path d="M424,264.64a.86.86,0,0,1-.4-.7C424.26,263.91,424.06,264.32,424,264.64Z" fill="#c6925b"/><path d="M423.65,264a.24.24,0,0,1-.12-.34A.24.24,0,0,1,423.65,264Z" fill="#c6925b"/><path d="M330.28,231.9c.35.27.76-.48,1,0a1.22,1.22,0,0,1,.13.38l1.38,6.21a9.42,9.42,0,0,1,.32,2.45c-.32.33-.76,2.18-2.52,1.18C327.52,240.32,331.44,232.77,330.28,231.9Z" fill="#f78631"/><path d="M159.26,313.87a35.17,35.17,0,0,0-.9-3.42,11.33,11.33,0,0,0-4.42-5.69,46.63,46.63,0,0,0-8.05-4.12c-1.73-.77-8.63-2.62-10.17-3.42-2.11-1.1-5.73-3.19-6.93-2.06-2.74,2.55-2.36,7.27-.13,10.29a20.76,20.76,0,0,0,5.58,5.28,73,73,0,0,0,8.1,3.61c2.12.93,2,1.85,2.88,4a69.84,69.84,0,0,1,3.24,7.54A11.78,11.78,0,0,1,148,334a46.26,46.26,0,0,0-3.36,9.75c-.4,2.11-.07,5,2.09,6,3.61,1.75,6.31-2.76,7.95-5.27,3-4.54,4.49-10.41,6.12-15.55C161.54,326.43,159.64,315.38,159.26,313.87Z" fill="#f4b796"/><path d="M137.59,298a18,18,0,0,0-5.7-2.95,3.14,3.14,0,0,0-1.76-.27c0-.09,0-.17-.09.08a2.66,2.66,0,0,0-1,2.78,4.68,4.68,0,0,0,2.08,2.36c.83.54,1.78,1,2.67,1.5a5,5,0,0,0,1.46.58c.64.07.77-.42.92-1a7.59,7.59,0,0,1,.62-1.65C137,299,137.53,298.54,137.59,298Z" fill="#f4e2d4"/><path d="M350.22,355.11a89.12,89.12,0,0,0,23.16,7.76c5.18.89,10.22,2.48,15.4,3.24.5-4.28,1.1-9.43,1.87-13.76-8.44-2.5-16.79-5.23-25.14-8-4.58-1.54-9.25-2.88-13.86-4.34,0,1.76,0,3.52.05,5.28C351.72,348.32,350.78,352,350.22,355.11Z" fill="#f4b796"/><path d="M393,351.32a2.2,2.2,0,0,1-.24,1.48,1.63,1.63,0,0,1-.87.57c-2.17.72-4.36-.84-6.34-2a32.87,32.87,0,0,0-5.64-2.46,95.33,95.33,0,0,0-25.66-5.2,6,6,0,0,1-3-.72,2,2,0,0,1-.73-2.72,2.84,2.84,0,0,1,2.11-.81c3.06-.28,6.14-.36,9.22-.45,5.25-.14,10.57-.28,15.69.91a48.4,48.4,0,0,1,10.63,4.13c1.22.62,3.32,1.28,4,2.47S392.91,350,393,351.32Z" fill="#acdeff"/><path d="M373.24,246.66a12.88,12.88,0,0,1,2.12-13.95,16.36,16.36,0,0,1,9.13-5.12c.14,0,.27-.08.41-.12a8.64,8.64,0,0,1,3.3.58c.22.1.46.23.44.5s-.32.26-.51.31a2.94,2.94,0,0,0-1.82,1.06,2.47,2.47,0,0,1-.75.76,7.3,7.3,0,0,0-3.54.25,11,11,0,0,0-5.89,3.75,9.74,9.74,0,0,0-2.14,5.83,10.06,10.06,0,0,0,2.4,6.8,11.14,11.14,0,0,0,6.07,3.87,11.54,11.54,0,0,0,10.84-2.38,9.14,9.14,0,0,0,2.92-4.36,9.7,9.7,0,0,0-.14-6.55,10.23,10.23,0,0,0-4.06-5.06c.1-.27.18-.55.3-.8a1,1,0,0,1,1.71-.37,14.86,14.86,0,0,1,2.19,2.08,1,1,0,0,0,.55.47,5.86,5.86,0,0,0-1.5-3.5c-.41-.48-.35-.64.27-.78a3.68,3.68,0,0,1,2.44.35c.21.1.3.11.36-.12a1,1,0,0,1,.54.15,15.89,15.89,0,0,1,4.77,4.61c0,.12,0,.23.18.25l0,0a.14.14,0,0,0,.13.19h0c-.14.35.07.65.16,1a13,13,0,0,1,.31,5.26,13.25,13.25,0,0,1-1.8,4.94,14,14,0,0,1-6.19,5.52,18.36,18.36,0,0,1-8,1.81,19.37,19.37,0,0,1-7.08-1.27,18.65,18.65,0,0,1-6.48-4.12c-.45-.45-.78-1-1.4-1.3v0l-.09-.19h0A.26.26,0,0,0,373.24,246.66Z" fill="#d40d01"/><path d="M373.47,247.14c.62.26.95.85,1.4,1.3a18.65,18.65,0,0,0,6.48,4.12,19.37,19.37,0,0,0,7.08,1.27,18.36,18.36,0,0,0,8-1.81,14,14,0,0,0,6.19-5.52,13.25,13.25,0,0,0,1.8-4.94,13,13,0,0,0-.31-5.26c-.09-.32-.3-.62-.16-1a13,13,0,0,1-1.86,17,16.64,16.64,0,0,1-11.59,4.54,18.79,18.79,0,0,1-14.22-5.7A12.42,12.42,0,0,1,373.47,247.14Z" fill="#ba0c03"/><path d="M398.34,230.16c-.06.23-.15.22-.36.12a3.68,3.68,0,0,0-2.44-.35c-.62.14-.68.3-.27.78a5.86,5.86,0,0,1,1.5,3.5,1,1,0,0,1-.55-.47,14.86,14.86,0,0,0-2.19-2.08,1,1,0,0,0-1.71.37c-.12.25-.2.53-.3.8a5.29,5.29,0,0,0-.91,3.36h0c-1.1-1.05-1.84-2.2-1.08-3.79a3.77,3.77,0,0,0,.2-.75,1,1,0,0,0-.61-1.22,1.41,1.41,0,0,0-1.58.52,4.24,4.24,0,0,1-4.68.57,2.59,2.59,0,0,0,2.19-.83,2.47,2.47,0,0,0,.75-.76,2.94,2.94,0,0,1,1.82-1.06c.19-.05.48,0,.51-.31s-.22-.4-.44-.5a8.64,8.64,0,0,0-3.3-.58l-.45-.1a6,6,0,0,1,4.66-.11c.85.35.94.3,1.11-.62a6.9,6.9,0,0,1,1.6-3.34,1.07,1.07,0,0,1,.78-.46.77.77,0,0,1,.72.22c.2.28-.08.45-.2.63a6.43,6.43,0,0,0-1,2.45c-.06.35,0,.53.39.61a1.18,1.18,0,0,1,1,1.14c-.3-.08-.68-.22-.73.24s.38.37.64.36a9.72,9.72,0,0,1,3,.61h0a.1.1,0,0,0,0,.1A3.44,3.44,0,0,1,398.34,230.16Z" fill="#3b4912"/><path d="M396.47,229.1a9.72,9.72,0,0,0-3-.61c-.26,0-.69,0-.64-.36s.43-.32.73-.24c.76.27,1.53.53,2.28.82C396.05,228.8,396.35,228.81,396.47,229.1Z" fill="#d71b13"/><path d="M403.83,235.17c-.16,0-.18-.13-.18-.25Z" fill="#ba0c03"/><path d="M373.24,246.66a.26.26,0,0,1,.14.3C373.26,246.89,373.25,246.78,373.24,246.66Z" fill="#ba0c03"/><path d="M396.5,229.19a.1.1,0,0,1,0-.1S396.52,229.14,396.5,229.19Z" fill="#d71b13"/><path d="M403.94,235.34a.14.14,0,0,1-.13-.19A2.14,2.14,0,0,0,403.94,235.34Z" fill="#ba0c03"/><path d="M373.38,247l.09.19Z" fill="#ba0c03"/><path d="M391.11,236.19a5.29,5.29,0,0,1,.91-3.36,10.23,10.23,0,0,1,4.06,5.06,9.7,9.7,0,0,1,.14,6.55,9.14,9.14,0,0,1-2.92,4.36,11.54,11.54,0,0,1-10.84,2.38,11.14,11.14,0,0,1-6.07-3.87,10.06,10.06,0,0,1-2.4-6.8,9.74,9.74,0,0,1,2.14-5.83,11,11,0,0,1,5.89-3.75,7.3,7.3,0,0,1,3.54-.25,2.59,2.59,0,0,1-2.19.83,4.24,4.24,0,0,0,4.68-.57l2.19.7a3.77,3.77,0,0,1-.2.75c-.76,1.59,0,2.74,1.08,3.79l.05,0Z" fill="#d71b13"/><path d="M390.24,231.64l-2.19-.7a1.41,1.41,0,0,1,1.58-.52A1,1,0,0,1,390.24,231.64Z" fill="#d40d01"/><path d="M391.11,236.19l.06,0-.05,0Z" fill="#3b4912"/><path d="M388.09,263.71a2,2,0,0,1,.81,1.58q1.5,10.93,3.05,21.86a3.19,3.19,0,0,1-.15,1.16c-.09,0-.14,0-.18.09-5.5.62-11,1.42-16.46,2.1-8.88,1.11-17.73,2.47-26.58,3.72-.71-.87-.48-1.94-.62-2.92q-1.4-9.89-2.76-19.77a4.63,4.63,0,0,1,0-1.7c9-1.25,18-2.48,27-3.76C377.49,265.32,382.78,264.5,388.09,263.71ZM360.2,278.22c-.26.06-.57.14-.57.45a10.38,10.38,0,0,0,.43,3.13c.1.3.41.28.68.26a6,6,0,0,0,2.89-.14c2.9-.37,2.89-.39,3.29,2.55.45,3.3,0,2.68,3.2,2.31.8-.09,1.61-.16,1.74-1.21.25.22.69.66.67,0a37.51,37.51,0,0,0-.5-3.92l-.35.05c-.22,1.3.45,2.57.19,3.87a10.46,10.46,0,0,1-.69-3.31c-.19-.94.07-1.43,1.17-1.54a12.14,12.14,0,0,0,4.25-.8c.53.62,0,.72-.43.89s-.83-.06-1,.44c.28.37,1.15-.12,1,.73-.23,1.59.37,3,.78,4.51.49,1.76,0,2.53-1.89,2.79L352,292.45c-2.37.33-2.36.33-2.68-2q-1.25-9-2.5-17.91c-.22-1.64,0-1.87,1.64-2.17.77-.14,1.63,0,2.26-.68-1.28,0-2.53.27-3.8.36s-1.49.49-1.31,1.68c1,6.74,1.9,13.51,2.85,20.26.24,1.7.25,1.72,2,1.45,8.9-1.33,17.83-2.45,26.74-3.79,4.29-.64,8.6-1.22,12.92-1.69,1-.1,1.27-.47,1.13-1.46q-1.5-10.32-2.89-20.66c-.15-1.16-.61-1.48-1.75-1.31-3.86.58-7.73,1.09-11.6,1.63a7.87,7.87,0,0,0-2.25.76c1,.78,2.55,4.42,2.45,5.79a2.87,2.87,0,0,0,.88,2.51c.34.31.21.53-.07.75-1.37-.54-2.68.16-4,.18-.47,0-1,.49-1.4-.17l4.42-.61L375,275c-.8.11-1.62.17-2.4.35-1.09.25-1.52-.14-1.63-1.22a4.26,4.26,0,0,0-.57-2.5l-.38.07.59,4.28c-.54-.14-.39-.63-.45-1-.17-1-.31-2-.43-3-.07-.56-.2-1-.85-1.16.2-.36.35-.68-.31-.57l-2.6.37c-.44.06-.74.24-.7.75a10.7,10.7,0,0,0,.4,4c.33,1.44-.25,1.69-1.46,1.86C362.87,277.5,361.4,277.29,360.2,278.22Zm1,4.67,0,.37a5.46,5.46,0,0,0,2.31-.22c1.21-.28,2.07-.16,2.27,1.27h.31c-.07-.82.13-1.9-1.05-1.91A26,26,0,0,0,361.22,282.89Zm-.59-6.06.06.36,4.41-.61-.05-.35A27.62,27.62,0,0,0,360.63,276.83Zm3.67-4.31a3.6,3.6,0,0,0,.42,2.58A3.73,3.73,0,0,0,364.3,272.52Zm3.63,15.11,0,.13,3.39-.47,0-.13Z" fill="#363635"/><path d="M386.79,258.39a2.73,2.73,0,0,1-1.44.27,11.82,11.82,0,0,0-1.32.14c-4.11.63-8.19,1.36-12.28,2.1-8.07,1.45-16.23,2.37-24.36,3.5a.48.48,0,0,1-.22.08c-1.06.14-1.82-2-2.86-1.74.32,1.59.43,5.52.86,7.09,9-1.25,18-2.48,27-3.76,5.31-.75,10.6-1.57,15.91-2.36-.08-1.74-1-6.12-1-7.86C386.69,255.94,387.12,258.57,386.79,258.39Z" fill="#bcc4c7"/><path d="M348.58,294.22c8.85-1.25,17.7-2.61,26.58-3.72,5.49-.68,11-1.48,16.46-2.1a19.46,19.46,0,0,1,1.12,4.56v.59a22.94,22.94,0,0,0-2.49.06Q370.62,296.29,351,299c-1.14.16-1.48.64-1.3,1.77.52,3.37,1,6.75,1.42,10.13.16,1.19.32,2.31,1.83,2.54.21,0,.37.45.55.7a2.57,2.57,0,0,1-1.59.26,10,10,0,0,1-1.76-4.87c-.31-3-1-5.93-1.15-8.91C348.83,298.49,348.92,296.34,348.58,294.22Z" fill="#bcc4c7"/><path d="M359,231.84l-1-7.39c.37-.56.92-.56,1.52-.53.78,0,1.23-.18,1-1.19a18.87,18.87,0,0,1-.6-4c0-1.39-.11-1.62-1.55-1.47l-4.2.51.18-.46.42-.18,1.28-.19a.84.84,0,0,0,.72.24c2-.28,4.1-.56,6.14-.86a.77.77,0,0,0,.6-.46l1.55-.11a.15.15,0,0,0,.19,0l2.5,2.18.18.64c.12.95.24,1.89.34,2.84a1.06,1.06,0,0,1-1.06,1.33c-1.09.1-2.17.28-3.25.42-.59-.2-.45.17-.38.48s.05.39.08.58a8.91,8.91,0,0,0,.75,5.33c.21.52.09,1.18.64,1.56.86.78,1.91,0,2.82.32l0,.09c.22,1.21-.21,2.58.89,3.56.25.44,0,1.16.75,1.33,1.11.59,2.49.28,3.54,1.06.29,2.19.92,4.33.77,6.57-3.36.25-6.66,1-10,1.18-.26-.75-.86-.46-1.35-.4-2.08.27-4.16.57-6.24.86a42.19,42.19,0,0,1,6-1.1c1-.13,1.44-.61,1.27-1.7-.51-3.35-.87-6.72-1.67-10-.2-.82-.62-1.23-1.48-1.15Z" fill="#272828"/><path d="M354.12,217.76l4.2-.51c1.44-.15,1.52.08,1.55,1.47a18.87,18.87,0,0,0,.6,4c.25,1-.2,1.22-1,1.19-.6,0-1.15,0-1.52.53l-.66-.39c.08-.35,0-.67-.39-.65a3.88,3.88,0,0,0-3,1.05.67.67,0,0,1-.94-.47c-.3-1.06-1.07-1-1.89-.91-5.38.76-10.76,1.56-16.15,2.29-1.12.15-1.67.55-1.6,1.76,0,.78-.23,1.58-.23,2.36a1.93,1.93,0,0,1-2.25,2.21,4.88,4.88,0,0,0-.92.14l-.47-.32,1.82-.33c1.2-.2,1.3-.37,1-1.77-.06,0-.19.08-.19.13a1.1,1.1,0,0,1-1.56,1.09c-1-.3-.31-.93-.14-1.47.24-.79.14-1.5-.82-1.76a8.91,8.91,0,0,1,.35-2.76c.51.2.91,0,1-.51.13-1.21,1-1.36,1.95-1.5,6.32-.84,12.64-1.73,18.95-2.62.61-.08,1.46,0,1.3-1l.66-1.11v0Zm-20.73,7.05,18-2.5C345.32,222.58,339.4,223.82,333.39,224.81Zm-.71,3.63c.05-1,.4-1.65,0-2.29,0,0-.3,0-.33.08C332,226.86,332.16,227.48,332.68,228.44Z" fill="#363635"/><path d="M329.58,228.18l0-.77c1,.26,1.06,1,.82,1.76-.17.54-.87,1.17.14,1.47a1.1,1.1,0,0,0,1.56-1.09c0-.05.13-.09.19-.13.28,1.4.18,1.57-1,1.77l-1.82.33-.3-.29c.21-.81-.06-1.69.35-2.47C329.83,228.62,330,228.45,329.58,228.18Z" fill="#272828"/><path d="M353.49,314.09c-.21-.15-.66-.34-.87-.49s-.37-.39-.67-.63a2.79,2.79,0,0,1-.86-2.07c-.46-3.38-.9-6.76-1.42-10.13-.18-1.13.16-1.61,1.3-1.77q19.65-2.67,39.28-5.39a22.94,22.94,0,0,1,2.49-.06q.87,6.29,1.75,12.55c-.61.8,0,1.39-1.45,2.62-.4.07-.79.15-1.18.2l-27.74,3.86c-1.87.26-3.75.46-5.62.71-1,.13-1.92.27-2.87.44-.6.1-1.4.55-2,.25A.42.42,0,0,1,353.49,314.09Z" fill="#fff"/><path d="M373,237.51c-1.05-.78-2.43-.47-3.54-1.06.92-.17,1.84-.59,2.75,0C372.62,236.71,373.13,236.9,373,237.51Z" fill="#363635"/><path d="M368.75,235.12c-1.1-1-.67-2.35-.89-3.56C368.93,232.56,368.58,233.9,368.75,235.12Z" fill="#363635"/><path d="M367.82,231.47c-.91-.35-2,.46-2.82-.32C366,231.11,367,230.42,367.82,231.47Z" fill="#363635"/><path d="M359,231.84l1.32-.1c.86-.08,1.28.33,1.48,1.15.8,3.31,1.16,6.68,1.67,10,.17,1.09-.24,1.57-1.27,1.7a42.19,42.19,0,0,0-6,1.1c2.08-.29,4.16-.59,6.24-.86.49-.06,1.09-.35,1.35.4-3.14.69-6.34,1-9.51,1.42-.2-1.43-.39-2.86-.59-4.3-.07-.52-.1-1.09-.88-1-.46-1.74.08-2.72,1.83-2.89,1.38-.13,1.77-.66,1.43-1.95a12.68,12.68,0,0,1-.28-2c-.16-1.55.26-2.11,1.77-2.39C358,232.08,358.49,232,359,231.84Zm-2.33,1.75-.23,0,.54,3.92.24,0Z" fill="#363635"/><path d="M352.79,241.37c.78-.08.81.49.88,1,.2,1.44.39,2.87.59,4.3l-.19.19-.52,0A28.25,28.25,0,0,1,352.79,241.37Z" fill="#272828"/><path d="M376.07,276c.28-.22.41-.44.07-.75a2.87,2.87,0,0,1-.88-2.51c.1-1.37-1.43-5-2.45-5.79a7.87,7.87,0,0,1,2.25-.76c3.87-.54,7.74-1.05,11.6-1.63,1.14-.17,1.6.15,1.75,1.31q1.39,10.33,2.89,20.66c.14,1-.16,1.36-1.13,1.46-4.32.47-8.63,1-12.92,1.69-8.91,1.34-17.84,2.46-26.74,3.79-1.77.27-1.78.25-2-1.45-.95-6.75-1.86-13.52-2.85-20.26-.18-1.19.17-1.6,1.31-1.68s2.52-.33,3.8-.36c-.63.67-1.49.54-2.26.68-1.67.3-1.86.53-1.64,2.17q1.25,9,2.5,17.91c.32,2.31.31,2.31,2.68,2l23.07-3.2c1.88-.26,2.38-1,1.89-2.79-.41-1.48-1-2.92-.78-4.51.12-.85-.75-.36-1-.73.16-.5.66-.31,1-.44s1-.27.43-.89C376.42,278.59,376.24,277.29,376.07,276Zm1.37,3.52a6.75,6.75,0,0,0-.51-3.36A6.08,6.08,0,0,0,377.44,279.51Z" fill="#272828"/><path d="M376.07,276c.17,1.3.35,2.6.53,3.9a12.14,12.14,0,0,1-4.25.8c-1.1.11-1.36.6-1.17,1.54a10.46,10.46,0,0,0,.69,3.31v0c-.13,1.05-.94,1.12-1.74,1.21-3.18.37-2.75,1-3.2-2.31-.4-2.94-.39-2.92-3.29-2.55a6,6,0,0,1-2.89.14l-.54-3.84c1.2-.93,2.67-.72,4-.92,1.21-.17,1.79-.42,1.46-1.86a10.7,10.7,0,0,1-.4-4l3.61-.55c.65.11.78.6.85,1.16.12,1,.26,2,.43,3,.06.35-.09.84.45,1h0c.39.66.93.18,1.4.17C373.39,276.15,374.7,275.45,376.07,276Z" fill="#fff"/><path d="M361.22,282.89a26,26,0,0,1,3.89-.49c1.18,0,1,1.09,1.05,1.91h-.31c-.2-1.43-1.06-1.55-2.27-1.27a5.46,5.46,0,0,1-2.31.22Z" fill="#272828"/><path d="M370.63,276l-.59-4.28.38-.07a4.26,4.26,0,0,1,.57,2.5c.11,1.08.54,1.47,1.63,1.22.78-.18,1.6-.24,2.4-.35l.05.38-4.42.61Z" fill="#272828"/><path d="M360.63,276.83a27.62,27.62,0,0,1,4.42-.6l.05.35-4.41.61Z" fill="#272828"/><path d="M371.86,285.57v0c.26-1.3-.41-2.57-.19-3.87l.35-.05a37.51,37.51,0,0,1,.5,3.92C372.55,286.23,372.11,285.79,371.86,285.57Z" fill="#272828"/><path d="M360.2,278.22l.54,3.84c-.27,0-.58,0-.68-.26a10.38,10.38,0,0,1-.43-3.13C359.63,278.36,359.94,278.28,360.2,278.22Z" fill="#272828"/><path d="M368.9,270.86l-3.61.55c0-.51.26-.69.7-.75l2.6-.37C369.25,270.18,369.1,270.5,368.9,270.86Z" fill="#272828"/><path d="M364.3,272.52a3.73,3.73,0,0,1,.42,2.58A3.6,3.6,0,0,1,364.3,272.52Z" fill="#272828"/><ellipse cx="369.64" cy="287.46" rx="2.42" ry="0.09" transform="translate(-35.99 53.51) rotate(-7.9)" fill="#272828"/><path d="M353.88,224.46a3.88,3.88,0,0,1,3-1.05c.4,0,.47.3.39.65A12.78,12.78,0,0,1,353.88,224.46Z" fill="#272828"/><path d="M329.91,224.65c.1-2.23.28-2.44,2.51-2.75L353.08,219c.16,1.08-.69.95-1.3,1-6.31.89-12.63,1.78-18.95,2.62-1,.14-1.82.29-1.95,1.5C330.82,224.7,330.42,224.85,329.91,224.65Z" fill="#272828"/><path d="M333.39,224.81c6-1,11.93-2.23,18-2.5Z" fill="#272828"/><path d="M332.68,228.44c-.52-1-.65-1.58-.35-2.21,0-.07.31-.12.33-.08C333.08,226.79,332.73,227.43,332.68,228.44Z" fill="#272828"/><path d="M329.58,228.18c.39.27.25.44-.1.58A.54.54,0,0,1,329.58,228.18Z" fill="#363635"/><path d="M356.63,233.59l.55,3.92-.24,0-.54-3.92Z" fill="#272828"/><path d="M377.44,279.51a6.08,6.08,0,0,1-.51-3.36A6.75,6.75,0,0,1,377.44,279.51Z" fill="#363635"/><path d="M373.81,244.17H374a11.51,11.51,0,0,1,1.76.27,14.18,14.18,0,0,1,4.36,1.5,17.2,17.2,0,0,1,3.79,3.49,12.23,12.23,0,0,1,3.24,7.18c.13,1.74-.1,2-1.78,2.05a11.82,11.82,0,0,0-1.32.14c-4.11.63-8.19,1.36-12.28,2.1-8.41,1.51-16.92,2.44-25.39,3.65-1.84.26-2.12-1.8-2.25-3.21a15.27,15.27,0,0,1,2.13-8.92c1.89-3.2,5-4.63,8.48-5.59,1.13-.31,2.28-.55,3.43-.76,2.76-.5,5.54-.82,8.33-1.14l5.54-.64A11.88,11.88,0,0,1,373.81,244.17Z" fill="#fff"/><path d="M358.55,267.18c-2.55-1.71-5.07-.8-6.36,1.91a21.59,21.59,0,0,0-1.37,4.42c-.33,1.51-1.08,2.94-1.49,4.44-1.52,5.68-4.11,11.19-3.57,16.95.46,4.94,2.08,10.32,3.5,15.09a10.71,10.71,0,0,0,2.13,6c1.17,1.35,3.45,3.18,5.29,3.35,1.61.15,4.1,0,5.24-1.29,2.28-2.54,2.52-7.69,1.45-10.77-.94-2.72-2-5.41-2.87-8.15-.64-2-1.36-4.13-1-6.22.46-2.63,1.64-5,2.37-7.55a34.07,34.07,0,0,0,1.25-8.14C363.22,273.66,361.53,269.17,358.55,267.18Z" fill="#acdeff"/><path d="M405.91,311.54c1.9.94,4,2.4,3.86,4.41-.15,2.17-2.77,3.34-5,3.75-5.66,1-11.49.23-17.19-.56-6.15-.86-22.44-5.91-9.83-11.34C386.3,304.09,398.09,307.67,405.91,311.54Z" fill="#acdeff"/><path d="M381.81,316.79c1.21,1.56,2.38,3.66,1.46,5.45s-3.67,2.05-5.74,1.59c-5.15-1.13-9.71-4-14.17-6.8-4.81-3-16.43-13.63-3.69-14C368.36,302.79,376.81,310.39,381.81,316.79Z" fill="#acdeff"/></svg>