<svg xmlns="http://www.w3.org/2000/svg" viewBox="0 0 738.55 321.75"><title>GetUp-Logo-RGB</title><path d="M77.37,287.25q0-45.31,25.94-73.5t74.11-28.18A123.69,123.69,0,0,1,205.73,189q14.39,3.36,23.32,9.68l-6,44.31-25.23-1.86-.71-21.16q0-4.29-2.89-5a69.38,69.38,0,0,0-21.14-3.12q-26.38,0-42,19.87T115.51,285q0,50.07,41.94,50.05,13.58,0,20.9-2.34c1.78-.46,2.91-1.84,3.37-4.1l4.54-30.9H160l6.28-21.19h71.17l-2.55,17.4-9.55,1.45c-2.71.23-4.14,1.42-4.28,3.51l-6.87,51.4q-25.41,10.89-62.19,11-38.79,0-56.7-20.14T77.37,287.25" transform="translate(-51.33 -136.55)" style="fill:#5a5a5f"/><path d="M270.29,289.27q39.3-5.38,39.3-21.09,0-9-11.5-9c-6.68,0-12.53,2.71-17.56,8.08s-8.46,12.74-10.24,22m-38.07,22q0-35.9,20.23-56.65t50.48-20.75q19.32,0,29.21,8.07t9.9,22.88a36.72,36.72,0,0,1-6,20.85,40,40,0,0,1-16.94,14.11,112.06,112.06,0,0,1-22.92,7.88A239.53,239.53,0,0,1,268.84,312q1.4,23.07,23.6,23.06,14.08,0,34.55-8.5l5.25,23q-25.69,11.65-49.31,11.74-26.4,0-38.55-13.48t-12.16-36.49" transform="translate(-51.33 -136.55)" style="fill:#5a5a5f"/><path d="M336.23,261.52l-8.06-18.72c23-.86,29.27-7.34,34.94-13s10-14.74,13.06-27.44h22.11L393.53,234c-.15,1.46.4,2.19,1.64,2.19H424.6l-3.38,25.32H390l-7.85,54.73a52,52,0,0,0-.7,7.39c0,4.1,1.05,7,3.12,8.78s5.62,2.63,10.64,2.63a56.27,56.27,0,0,0,19.07-3.7l4.3,20.82a93.09,93.09,0,0,1-39.68,9.11q-18,0-26.07-6.43t-8-20.92a79.4,79.4,0,0,1,.71-10.07l8.67-60.11c.31-1.49-.16-2.23-1.38-2.23Z" transform="translate(-51.33 -136.55)" style="fill:#5a5a5f"/><path d="M422.6,206l2.34-17.41h74L496.61,206l-15.93,1.83c-1.79.16-2.87.49-3.27,1a9,9,0,0,0-1.05,3.5l-11.27,78.58a110.73,110.73,0,0,0-1.4,16.48q0,13.17,6.43,19.14t20.92,6q18.54,0,27.42-9.51t12-31.85l11.19-78.8c.32-1.75.28-2.95-.11-3.54s-1.39-1-3-1.17L524,206l2.46-17.41h69L593,206l-16.17,1.83c-1.78.16-2.85.51-3.25,1.09a8.13,8.13,0,0,0-.81,3.38L560.63,297.7q-4.75,33.09-22.72,48.35T488,361.28q-30.68,0-45.79-12.31t-15.11-37.76a112.17,112.17,0,0,1,1.17-14.53l11.71-84.42c.46-3-.48-4.54-2.79-4.71Z" transform="translate(-51.33 -136.55)" style="fill:#5a5a5f"/><path d="M554.54,386c-43.61-4.08-88.36-5.34-134.89-5.34-129.46,0-253.53,23.36-368.32,77.65a1321.48,1321.48,0,0,1,368.32-52.43c44.19,0,87.87,2.27,131,6.57Z" transform="translate(-51.33 -136.55)" style="fill:#ff671f"/><path d="M597.36,418A1329.05,1329.05,0,0,1,788,458.3l-8.18-13.92c-58.67-27.75-117.66-43.63-178.56-52.68Z" transform="translate(-51.33 -136.55)" style="fill:#ff671f"/><path d="M656.55,233.91q-20.35,0-43.74,20.67l-.81-.23,2.91-18.15H567.23l-2.56,17.28,11.63,4.24c1.94.62,2.67,2.26,2.2,4.94L563.73,367.9,557.07,413c12.54,1.26,24.72,2.78,34.35,4.08l9.88-67.39c3.81,2.59,6.85,4.5,9.18,5.8a53.2,53.2,0,0,0,10.07,3.85,48.07,48.07,0,0,0,13.66,1.92q15.72,0,27.35-7.94a50.35,50.35,0,0,0,17.59-20.67,121.25,121.25,0,0,0,8.73-25.81,126.8,126.8,0,0,0,2.79-26.56q0-46.41-34.12-46.39m-4.89,74.66A45.72,45.72,0,0,1,643,327.11c-4.2,5.28-9.31,7.94-15.35,7.94q-11.76,0-22.69-9.42l6.41-44.86q20-18,30.23-18Q654,262.67,654,286.31a102.42,102.42,0,0,1-2.38,22.26" transform="translate(-51.33 -136.55)" style="fill:#5a5a5f"/><path d="M716.84,347.05a22.73,22.73,0,1,1-17.2,2.43,21.88,21.88,0,0,1,17.2-2.43M725,324.88l-3.62-.94,18-140.38a224.33,224.33,0,0,1,4.49-26.41q3.09-12,10.85-17.2t18.33-2.46q10,2.58,14.28,10.67t1.28,19.55q-2.05,8-8.13,22.55Z" transform="translate(-51.33 -136.55)" style="fill:#ff671f"/></svg>