<?xml version="1.0" encoding="utf-8" ?>
<!-- Generator: Adobe Illustrator 24.1.0, SVG Export Plug-In . SVG Version: 6.00 Build 0)  -->
<svg version="1.1" id="Layer_1" xmlns="http://www.w3.org/2000/svg" xmlns:xlink="http://www.w3.org/1999/xlink" x="0px" y="0px" viewBox="0 0 500 440.8" style="enable-background:new 0 0 500 440.8;" xml:space="preserve">
	<style type="text/css">
	.st0{clip-path:url(#SVGID_2_);}
	.st1{fill:#F4B796;}
	.st2{fill:#362E56;}
	.st3{fill:#007BE1;}
	.st4{fill:#FFFFFF;}
	.st5{fill:#F4E2D4;}
	.st6{fill:#FFA669;}
	.st7{fill:#0082FE;}
	.st8{fill:#004472;}
	.st9{fill:#ACDEFF;}
	.st10{fill:#A8503B;}
	.st11{fill:#893C1E;}
	.st12{fill:#FFCE00;}
	.st13{fill:#EF9178;}
	.st14{fill:#DBF2FF;}
	.st15{fill:#FAF2F1;}
	.st16{fill:#FDFEFE;}
	.st17{fill:#53585F;}
	.st18{fill:#F78631;}
	.st19{fill:#46AFF7;}
	.st20{fill:#78CAFF;stroke:#78CAFF;stroke-width:2;stroke-miterlimit:10;}
	.st21{fill:#B7C8F3;}
	.st22{fill:#FEFEFE;}
	.st23{fill:#849DDA;}
	.st24{fill:#FFFFFF;stroke:#F27520;stroke-miterlimit:10;}
	.st25{fill:#F35516;}
	.st26{fill:url(#SVGID_3_);}
	.st27{fill:url(#SVGID_4_);}
	.st28{fill:url(#SVGID_5_);}
	.st29{fill:#E1B885;}
	.st30{fill:#C6925B;}
	.st31{fill:#DDD3C4;}
	.st32{fill:#363635;}
	.st33{fill:#BCC4C7;}
	.st34{fill:#272828;}
	.st35{fill:#F78631;stroke:#F27520;stroke-miterlimit:10;}
	.st36{fill:#354208;}
	.st37{fill:#C6683E;}
</style>
	<g>
		<defs>
			<rect id="SVGID_1_" x="1.2" y="-56.8" width="497.6" height="497.6" />
		</defs>
		<clipPath id="SVGID_2_">
			<use xlink:href="#SVGID_1_" style="overflow:visible;" />
		</clipPath>
		<g class="st0">
			<path class="st1" d="M178.5,194.7c-2.6,4.3-1.2,10.2-0.3,14.9s1.7,9.7,2.8,14.3c1.2,4.7,4.1,8.6,6.3,13.1c1.9,4,4.5,9,7.6,12.3
			c5.9,6.3,12.1,12.6,17.2,19.8c5.8,8,7.4,17.6,9.1,27.3c0.9,5.1,0.6,10.4,1.8,15.4c1.2,5.2,1.4,10.5,2.1,15.9
			c0.8,5.6,2.5,10.9,3,16.8c0.2,2-0.1,7.9,1.6,9.1c1.5,1,7.1-0.4,8.9-0.5c5.1-0.4,10.8-0.3,15.7-2c4.3-1.6,8.6-3.5,12.7-5.6
			c4.2-2,8.1-3.3,12.2-5.7c3-1.8,5.4-1.5,3.7-5.1c-2.8-5.8-6.4-11.5-9.1-17.6c-1.6-3.5-2.8-7.2-4.5-10.8c-1.8-3.7-2.5-7.3-3.9-11.1
			c-3.2-8.6-6.5-17.1-8.5-26.1c-0.7-4-1.2-8-1.4-12c-0.4-5.1,1.2-9.8,1.2-14.7s0.7-10,1.2-15.1c0.3-2.9,0.9-7-0.5-9.7
			c-2.5-4.8-7.9-8.6-11.8-12.1c-11.1-10.1-24.6-14.3-39.5-13.6c-6.7,0.3-13.4,1.2-20,1.5C183.6,192.9,180.9,193.5,178.5,194.7z" />
			<path class="st2" d="M183.3,215.9l19.4-78.4c1.4-5.6,7-9,12.6-7.6L248,138c5.6,1.4,9,7,7.6,12.6L236.2,229c-1.4,5.6-7,9-12.6,7.6
			l-32.7-8.1C185.4,227.1,182,221.5,183.3,215.9z" />
			<path class="st3" d="M184.4,212.1l19.4-78.4c1.4-5.6,7-9,12.6-7.6l32.7,8.1c5.6,1.4,9,7,7.6,12.6l-19.4,78.4
			c-1.4,5.6-7,9-12.6,7.6l-32.7-8.1C186.4,223.3,183,217.7,184.4,212.1z" />

			<rect x="181.8" y="154.5" transform="matrix(0.2401 -0.9708 0.9708 0.2401 -4.7231 349.5057)" class="st4" width="78.1" height="46.6" />
			<path class="st2" d="M226.3,134.2l0-0.1c0.1-0.3,0.4-0.6,0.8-0.5l12.4,3.1c0.3,0.1,0.6,0.4,0.5,0.8l0,0.1
			c-0.1,0.3-0.4,0.6-0.8,0.5l-12.4-3.1C226.5,134.9,226.3,134.6,226.3,134.2z" />
			<path class="st1" d="M256.7,209.9c-2.2-5.7-3.8-11.7-4.8-17.7c-0.8-4.4-0.5-9.1-1.4-13.4c-0.1-0.7,0-1.9-1.4-2.3
			c-3-1-6.6,2.3-8,4.7c-1.5,2.7-1.6,6.4-1.4,9.4c0.1,3.5,0.5,7,1.2,10.5c0.9,3.7,0.6,6.7-0.1,10.4c-0.9,4.9-2.2,10.8-0.9,15.8
			c1.7,6.3,10.1,12.1,15.6,6.9c2.7-2.6,2.9-6.7,3-10.1C258.5,219,258.5,214.7,256.7,209.9z" />
			<path class="st1" d="M180.1,213.2c-0.2-2.7-2-5.2-2.6-7.8s-1.9-5.4-1.8-8.3s2.2-4.3,4.2-6.1s0.8-5.6,0.6-8.1
			c-0.3-1.4,0.1-2.8,0.9-4c0.9-1.2,2.8-2,3.2-3.2s-0.4-3.1-0.6-4.4c-0.2-1.6,0.3-3.2,1.3-4.4c2-2.9,3.8-6.1,5.4-9.3
			c1.1-2.3,1.8-7.1,4.9-7.4c3.5-0.3,4.8,4.6,4.7,7.3c0,3.2-1.7,6.1-3.1,8.8c-0.3,0.5-0.5,1.1-0.7,1.6c2-1.5,6.4-5.3,8.6-1.8
			c2.9,4.6-1.9,10.4-5.1,13.1c-1.8,1.6-4.1,4.2-6.4,5.3c0.8-0.3,1.6-0.1,2.3,0.3c1.5,1.1,1.4,3.2,1.3,4.1c-0.4,3.1-3.4,5.4-5.9,6.8
			c-3.3,1.8-5.1,3.5-6.1,7.3s-1.8,7.9-4.7,10.6C180.3,213.2,180.3,212.7,180.1,213.2z" />
			<path class="st5" d="M196,151.9c-0.1-1.1-0.5-1.9-1.9-1.6c-1.1,0.5-3,5.4-3.2,6.5c0.7,0.2,1.4,0.4,2.1,0.6c1,0.4,1.4,0.2,1.9-0.7
			C195.8,155.2,196.2,153.5,196,151.9z" />
			<path class="st5" d="M201.7,164.6c-1.2,0.4-2.3,1.1-3.3,1.9c-0.9,0.7-1.8,1.4-2.7,2c0.9,0,1.4,0.9,1.9,1.5
			c0.6,0.8,1.6,1.1,2.5,0.6c1.8-0.6,4.2-2.5,4-4.5C203.9,164.6,202.5,164.6,201.7,164.6z" />
			<path class="st5" d="M191.7,185.7c-1.1,0.5-1.8,1-1.9,2.3c-0.1,1.1,0,2.8,1.5,2.3c1-0.4,1.9-0.9,2.8-1.5c0.9-0.7,1.3-1.8,1.1-2.9
			c0-0.6-0.6-1-1.1-1c0,0,0,0-0.1,0C193.2,185,192.4,185.3,191.7,185.7z" />
			<path class="st5" d="M250.2,177.4c-3.1,0.9-3.6,5.4-3.1,8.4c0.1,0.5,0.2,1.4,0.7,1.7s3.4-0.1,3.4-0.4
			C251.4,186.1,250.8,177.1,250.2,177.4z" />
			<path class="st6" d="M225.9,350.5l1.4,2.1c0.9,4.5,3,68,5.6,88.2h99.2c-13-32.5-42.9-94.8-44-97.4s-1.7-5.6-3.5-8.1
			c-1.2-1.6-1.9-1.2-3.6-0.3c-3.9,2-8,3.5-12.2,4.6c-2.4,0.6-4.8,0.8-7.2,1.3c-2.7,0.6-5.4,1.5-8.2,2.2c-6.1,1.5-12.1,3.2-18.3,4.5
			c-3.6,0.7-6.4,1.1-9.6,2.8C225.5,350.7,225.8,350.5,225.9,350.5z" />
			<path class="st7" d="M234.9,358.6c0.3,1.4,7.1,63,9.4,82.2h2.6c-2.4-19.2-9.2-81.2-9.5-82.7c-0.6-2.7-1.1-5.4-1.4-8.1v-0.2
			l-2.5,0.2v0.2C233.8,353.1,234.3,355.9,234.9,358.6z" />
			<path class="st7" d="M262.2,440.8h2.6c-4.3-19.7-17-83.7-17.4-85c-1.1-3.1-1.8-6.4-2-9.7h-2.5c0.2,3.5,0.9,7,2.1,10.4
			C245.5,357.9,258,421.2,262.2,440.8z" />
			<path class="st7" d="M256,352.6c0.5,1.7,1.1,3.5,1.8,5.3c2.5,6.5,17.7,64.5,22.6,82.9h2.7c-5-18.5-20.5-77.2-22.9-83.8
			c-0.6-1.7-1.2-3.5-1.7-5.2c-0.4-1.3-0.8-2.7-1.3-4c-0.7-1.6-1-3.4-0.8-5.1l-0.7-0.2c-0.6,0.2-1.3,0.4-1.9,0.5c0,1.9,0.3,3.8,1,5.6
			C255.2,350,255.6,351.3,256,352.6z" />
			<path class="st7" d="M265,344.9l1.1,2.9c0.7,1.8,25.1,74.8,31.6,93h3c-7.1-20.7-31.6-92.2-32.3-93.9l-1.1-2.9
			c-0.3-0.7-0.6-1.4-0.9-2.1s-0.5-1.1-0.7-1.6c-0.9,0.1-1.7,0.3-2.5,0.4c0.3,0.8,0.6,1.5,1,2.3S264.7,344.2,265,344.9z" />
			<path class="st7" d="M277,343.2l0.8,1.5c1.1,2,30.5,76.1,38.6,96.1h2.6c-7.3-18.1-37.9-95.2-39-97.4l-0.8-1.5
			c-0.4-0.8-0.8-1.6-1.2-2.5s-0.8-1.6-1.1-2.4c-0.8,0.3-1.6,0.6-2.4,0.9c0.4,0.8,0.9,1.7,1.2,2.5S276.5,342.3,277,343.2z" />
			<path class="st3" d="M285.5,334.3c-0.6-2.1-2.3-4.4-3.4-6.4s-2.1-4-3.1-6c-0.8-1.6-1.7-3.1-2.6-4.7c-1.1-2.1-1.6-2.6-4.1-1.5
			c-7,3-14.2,5.4-21.6,7.3c-6.9,1.9-14.2,3.9-21.4,4.6l-3.9,0.3c-2.6,0-2.2,1.8-2,4s0.2,4.4,0.4,6.6c0.4,4.1,0.4,8.4,1.1,12.5
			c0.4,2,0.6,3.5,3,3.7s4.9-0.5,7.1-0.9c6-1.1,11.9-2.6,17.6-4.6c7.9-2.8,15.6-5,23.2-8.4C278.4,339.7,286.8,338.3,285.5,334.3z" />
			<path class="st8" d="M264.8,135.9c0,0,11.2-9.7,12.1-11.1c1.1-1.6-5.9-20.2-2.1-27.2s38.2-14,44.4-11c6.9,3.3,15.4,41,10.4,46.6
			c-4.5,5-35.1,11.1-41.4,9.7s-5.7-5.9-7.4-8.2C279.4,132.9,264.8,135.9,264.8,135.9z" />
			<path class="st9" d="M424.2,240.1c-3.2-0.9-5.1-4.2-4.2-7.4c0,0,0,0,0,0c1.1-3.4,2.4-6.7,3.9-9.9c2.4-5.5,5.6-10.6,9.6-15.1
			c1.3-1.4,2.7-2.8,4.2-4c0-0.5-0.1-1-0.4-1.5c-1.1-2.3-2.5-3.4-3-5.4c-0.3-1.1,0.3-2.4,0.2-3.5c0-1.7-0.4-3.3-1-4.9
			c-0.9-2.3-1.9-4.1-4.2-4.4s-2.6,1-2.9-1c-0.3-2.3,1.7-13.9,0.6-15.9c-2.8-4.8-8.1-0.6-9.6,3.1c-2.7,6.8-4.6,14.4-6.5,21.6
			c-3.5,13.4-13.5,23.2-24.7,30.8c-2,1.3-7.2,5.3-9.6,3c-1.6-1.6-1.2-5.3-1-7.2c0.4-5.1,2-12.5,0.5-17.1c-3.8,1.7-7.4,2.3-11,4.5
			c-3.1,1.9-5.5,3.9-7,7.2c-2.8,5.9-6.1,13.5-6.4,20.3c-0.2,3.4,0.7,6.5,0.8,9.9c0.1,4-0.3,8,0.1,12.1c0.8,8.4,0.9,16.7,1,25.1
			c0.1,7.1-1.9,14.5-3.9,21.4c-1.5,5-5.1,8.5-0.5,12.6s11,5.8,16.7,7.3c5,1.5,10.2,2.5,15.4,3.2c1.9,0.2,5.1,1,6.6,0s1.9-4.4,2.1-6
			c1.3-8.6,2.9-40.9,10.1-49.7c2-2.5,11.2-12.7,13.2-15.1c3.8-4.6,7.8-9.1,11.7-13.7C424.8,240.2,424.5,240.1,424.2,240.1z" />
			<path class="st2" d="M346.5,300.9h0.5l0.4-0.4C347,300.7,346.9,300.9,346.5,300.9z" />
			<path class="st2" d="M346.5,300.9L346.5,300.9z" />
			<path class="st3" d="M383.6,440.8c3.5-30.6,12-117.9,10.5-138.7c-1.8-0.3-18.2-0.5-24.2-2.4c-8.3-2.6-13.8-4.7-20.2-9.4
			c0,0-10.3,20.4-11.9,23.4c-13.9,25.1-47.3,91.6-58.2,127L383.6,440.8z" />
			<path class="st8" d="M394.2,302.1c-11.5-1.7-25.4-5.2-28.4-6.4c-2.8-1-13.3-5.5-15.7-6.7c-2.4,1.8-9.8,17.1-9.9,19
			c11.5,10.8,45.7,26.4,47.4,25.8C388.9,333.3,393.9,306,394.2,302.1z" />
			<path class="st7" d="M388.5,309c-0.7-1.7-4.7-2.6-6-1.9c-1.7,1-2.7,2.8-2.7,4.8c0.1,3.5,5.1,5.9,7.7,3.2
			C389,313.5,389.7,311.8,388.5,309z" />
			<path class="st2" d="M385.6,311.3c-0.4-0.7-0.9-1.4-1.5-2c-0.3-0.2-1,0.1-1,0.4s0.4,0.5,0.6,0.7c0.5,0.7,0.9,1.4,1.3,2.2
			c0.1,0.3,0.1,0.7,0.3,0.9c0.3,0.2,0.6,0.1,0.8-0.2c0,0,0-0.1,0.1-0.1C386.2,312.5,386,311.8,385.6,311.3z" />
			<path class="st10" d="M185.1,333.8c-1.9-3.7-4.2-7.2-6.9-10.4c-2.8-3.3-5.2-6.9-7.2-10.7c-1.6-2.9-3.8-6.1-4.4-9.3
			c-0.8-3.7-2-7.5-2.9-11.3c-1.7-6.7-3.3-13.3-4.4-20.4c-1-6.2-2.5-12.9-6.2-18.4c-1.7-2.6-3.2-5.3-4.9-7.8s-2.9-5.5-4.5-8.1
			c-0.1-1.1-0.1-0.6-0.2-0.2c-3.4-0.3-6.6,1.3-9.7,2.5c-9.8,3.9-18.3,10.4-26.9,16.2c-4.8,3.3-11.3,7.9-14.1,13.1
			c-0.9,1.8-1,4-0.3,5.9c0.7,1.9,2,3.5,2.8,5.5c2.9,7.7,7,14.9,12.1,21.3c4,4.8,8.9,7.8,14.5,10c3.7,1.5,7.4,3.9,9.4,7.5
			c4,7.2,6.2,15.2,9.3,22.8c1.4,3.3,2.5,6.6,3.6,9.9c0.5,1.5,0.4,4.3,1.5,5.5c1.4,1.5,3.5,0.5,5.2,0c2.8-0.9,4.9-2.3,7.4-3.7
			c4-2.2,8.6-3.6,12.8-5.8C175.5,345.4,188.4,340.2,185.1,333.8z" />
			<path class="st8" d="M137.3,364.3c14.2,42.1,27.4,66.3,33.3,76.5h112.6c-13.1-16.6-47.7-63.3-94-108.9c-2.7-2.7-4.8-6.5-8.4-8.7
			c-1.8,3.4-4.5,6.3-7.7,8.4c-2.2,1.4-4,3.5-6.2,5s-4.1,2.9-6.2,4.3c-5.8,3.8-12.3,6.5-19,8.2c-2,0.5-3.9,1.3-5.7,2.2
			c-0.8,0.4-3.5,1-4,1.8c-0.5,0.9,1.5,3.4,2,4.4C135.3,359.7,136.4,361.9,137.3,364.3z" />
			<path class="st10" d="M100.8,211.3c-1-1.3-2.1-2.5-3.3-3.6c-1-1-1.9-2.5-3.2-3c-3.6-1.6-5.7,1.5-5.6,4.6s1.5,5.6,3.3,8.1
			c0-0.1,0-0.2,0-0.4c1.8,4.8,5.4,4.7,8.5,2.7C104,217.4,102.6,214.3,100.8,211.3z" />
			<path class="st1" d="M92.1,217.3c0,0.1,0.1,0.1,0.1,0.2L92.1,217.3z" />
			<path class="st11" d="M100.8,230.6c-0.6-2.6-1.9-4.8-4.7-5.4c-1.6-0.3-3.2-0.3-4.8-0.2c-1.6,0.1-3.1,0.3-4.6,0.6
			c-1.6,0.3-4.2,0.8-4.8,1.7c0.1,3.1,0.9,5.2,1.2,7.8c0.2,2.4,0.2,4.8-0.1,7.1c-0.2,3.4-0.4,6.8-0.8,10.2c-0.4,3.8-2,10.6,1.9,13
			c3,1.8,5.3,0,7.5-2c1.7-1.6,2.5-3.9,3.4-6c1.3-2.9,2.3-5.9,3.1-9c0.8-3.3,2.2-6.2,2.4-9.6C100.8,236.1,101.4,233.2,100.8,230.6z" />
			<path class="st2" d="M82.1,266.1l17.2-82.1c1.2-5.6,6.7-9.2,12.3-8l34.6,7.3c5.6,1.2,9.2,6.7,8,12.3L137,277.6
			c-1.2,5.6-6.7,9.2-12.3,8l-34.6-7.3C84.5,277.2,80.9,271.7,82.1,266.1z" />
			<path class="st3" d="M83,262.1l17.2-82.1c1.2-5.6,6.7-9.2,12.3-8l34.6,7.3c5.6,1.2,9.2,6.7,8,12.3l-17.2,82.1
			c-1.2,5.6-6.7,9.2-12.3,8L91,274.3C85.4,273.2,81.8,267.7,83,262.1z" />

			<rect x="79.2" y="201" transform="matrix(0.2052 -0.9787 0.9787 0.2052 -125.358 295.7454)" class="st4" width="80.5" height="48.1" />
			<path class="st2" d="M123.4,179.9L123.4,179.9c0.1-0.5,0.5-0.7,0.8-0.6l12.9,2.7c0.4,0.1,0.6,0.4,0.5,0.8l0,0.1
			c-0.1,0.4-0.4,0.6-0.8,0.5l-12.9-2.7C123.6,180.7,123.3,180.3,123.4,179.9z" />
			<path class="st10" d="M95.2,231.7c-1.3-1.8-3.1-3.1-5.2-3.8c-2-0.6-4-1.1-6.1-1.4c-1.8-0.3-3.5,2.1-3.8,3.5
			c-0.4,1.6-0.7,3.9,0,5.4c0.5,0.9,1.6,1.1,2.1,1.9c-0.6,0.4-1.3,0.5-1.9,1c-0.5,0.4-1,0.9-1.5,1.5c-0.8,1.2-1.4,2.5-1.5,3.9
			c-0.2,1.5,0,3.1,0.8,4.4c0.4,0.6,0.7,1.2,0.9,1.8c0.2,0.9-0.1,1.1-0.8,1.8c-1.4,1.5-2.7,2.9-3,5c-0.2,1.8,0.2,3.7,1.3,5.2
			c1.1,1.7,2.1,3,3.9,3.7c1.5,0.6,3.4,1.2,4.8,0.2s1.6-3.6,1.5-5.2c-0.1-2.2-1.2-3.5-1.9-5.4c1.3,0.7,1.9,1.4,3.6,1.1
			c1.3-0.4,2.4-1.2,3.1-2.4c1.7-2.9,0.3-6.7-1.3-9.3c-0.8-1.4-1.7-2.7-2.8-3.9c1,0,1.9,0.8,2.9,1c1,0.2,2.1,0.1,3.1-0.2
			c2-0.7,3.4-2.5,3.5-4.6C96.8,235.2,96.3,233.3,95.2,231.7z" />
			<path class="st12" d="M156.1,358.4c7.8-3.3,14.6-9.2,21.2-14.4c2.6-2,5.5-3.5,8-5.7c1.5-1.2,2.8-2.5,3.9-4c0.2-0.3,0.5-0.7,0.8-1
			c-0.3-0.5-0.6-0.9-0.8-1.4c-0.5-0.9-1.2-1.8-1.8-2.7c-2.9,6.3-9.2,10.5-14.9,14.5c-3.7,2.6-7,5.4-11,7.5c-4.8,2.5-9.8,5.2-15,6.6
			c-3.3,0.9-6.7,1.1-10,2.1l-1.1,0.3c0.5,1.1,1,2.1,1.4,3.2c2.2-0.7,4.4-1.2,6.7-1.7C147.8,360.7,152.1,360,156.1,358.4z" />
			<path class="st13" d="M92,232.9c-0.6-0.5-1.3-1-2-1.4c-0.8-0.3-1.3,0.2-1.9,0.7c-0.6,0.6-1.2,1.3-1.5,2.1c-0.2,0.4-0.7,2-0.2,2.3
			c0.1,1,1,1.4,1.6,1.7c0.7,0.4,1.5,0.7,2.3,1c1.6,0.4,2.9-1.4,3.3-2.7C94,235.1,93.2,233.9,92,232.9z" />
			<path class="st13" d="M85.3,246.5c-1,0.8-2.8,2.6-2.3,4c0.4,1.4,1.4,2.6,2.7,3.4c1.3,0.4,2.6-0.3,3.2-1.5c0.7-1.3,0.6-2.8-0.3-4
			C87.8,247.2,86.7,245.4,85.3,246.5z" />
			<path class="st13" d="M82.2,258c-0.5-0.5-1-0.2-1.5,0.1c-1,0.6-2.1,1.4-2.2,2.6c0.1,0.7,0.4,1.4,0.9,2c0.3,0.5,0.8,0.8,1.4,0.8
			c1,0.2,1.9-0.2,2.4-1.1c0.5-0.9,0.1-2.1-0.2-3C82.9,259,82.6,258.5,82.2,258z" />
		</g>
	</g>
	<path class="st14" d="M312.8,100.5c0.2,0.8,3.3,15,4.4,20c0.4,1,0.1,2.2-0.7,2.9c-3.1,2.5-6.9,3.7-10.7,4.5l-0.7,0.2
	c-0.1-0.3-0.1-0.5-0.2-0.8c-1.2-5.6-2.5-11.1-3.8-16.7c0-0.4-0.3-0.8-0.6-1.1c-0.8-0.6-1.6-1-2.6-1.2c-0.7-0.1-1.4-0.3-2-0.4
	c-0.5-0.1-0.4-0.2-0.2-0.5h0.3c0.1,0.1,0.1,0.2,0.3,0l0.4-0.1c0.1,0.1,0.1,0.1,0.2,0.1l1.3-0.3c0.6,0.1,1.3,0,1.8-0.4l3.7-0.8
	c0.3,0.1,0.6,0.2,0.6-0.2l0.2-0.1c0.4,0.2,0.9,0,1.1-0.4c0.6,0,1-0.5,1.6-0.7c2.1-0.5,4-1.8,5.2-3.6
	C312.4,100.7,312.6,100.6,312.8,100.5z" />
	<path class="st15" d="M295.6,107.4c-0.2,0.3-0.2,0.5,0.2,0.5c0.7,0.1,1.4,0.3,2,0.4c1,0.2,1.8,0.6,2.6,1.2c0.3,0.3,0.6,0.7,0.6,1.1
	c1.3,5.6,2.5,11.2,3.8,16.7c0.1,0.3,0.1,0.5,0.2,0.8c-0.1,1,0.4,2,0.5,3.1c-0.6-0.2-1.1-0.5-1.6-0.9c-1.8-0.9-3.8-1.3-5.8-1.2
	c-1.6,0.1-3.2-0.1-4.8-0.5c-0.9-0.3-1.6-1-1.8-2c-1.4-6.4-2.8-12.7-4.3-19.1c-0.1-0.3-0.1-0.5-0.1-0.8c0.5-0.2,1.7-1.1,2-1.1
	c1.2,0.1,1.7,1,2.8,1s2,1,3.2,0.7C295.3,107.2,295.5,107.2,295.6,107.4z" />
	<path class="st16" d="M295.6,107.6c-2.8,0.4-5.6,0.1-8.2-0.9c-0.1,0-0.2-0.1-0.2-0.2c0-0.1-0.1-0.1-0.1-0.2
	c-0.2-1.3,0.4-2.5,1.5-3.2c1.9-1.3,3.9-2.4,6.1-3c2.7-1,5.5-1.6,8.4-1.9c2.5-0.3,5.9-0.8,8.2,0.5c0.2,0.1,1.8,1.7,1.3,2
	c-0.1,0.1-0.3,0.1-0.3,0.2c-3.2,4.9-10.4,6-15.8,6.6L295.6,107.6z M300.1,104.2c0.3,0,0.6-0.1,0.8-0.2c1.3-0.3,2.4-0.9,3.4-1.8
	c0.4-0.4,0.2-0.7-0.2-0.9c-0.3-0.2-0.7-0.3-1.1-0.3c-2.6-0.2-5.3,0.5-7.5,1.9c-0.3,0.2-0.7,0.5-0.5,1s0.5,0.5,1,0.6
	C297.3,104.7,298.7,104.6,300.1,104.2z" />
	<path class="st17" d="M300.1,104.2c-1.4,0.4-2.8,0.5-4.2,0.3c-0.4-0.1-0.8-0.2-1-0.6s0.2-0.8,0.5-1c2.2-1.4,4.9-2.1,7.5-1.9
	c0.4,0,0.8,0.1,1.1,0.3c0.3,0.2,0.5,0.4,0.2,0.9c-0.9,0.9-2.1,1.5-3.4,1.8C300.7,104,300.4,104.1,300.1,104.2z" />
	<path class="st8" d="M95.4,175.9c0,0-10.9-10-12.3-10.8c-1.8-0.9-24.4,10.3-31.8,7.3s-18.2-36.4-15.9-42.9
	c2.5-7.2,52.4-24.9,58.5-20.5c5.4,3.9,15,33.6,14.2,40s-13.5,9.2-15.6,11.1C90.8,161.7,95.4,175.9,95.4,175.9z" />
	<path class="st18" d="M247.2,43.9c-4.2-3.1-9.5,2.2-10.2,6.5c-3.1-3-11-3.4-12.1,1.8c-1.2,5.8,5,9.7,9.4,11.8c2.8,1.3,6.2,1.6,8.9,3
	c1.1-2.8,3.5-5.3,4.7-8.1C249.7,54.5,251.9,47.5,247.2,43.9z" />
	<path class="st2" d="M206.9,33.8c2,1.3,3.9,2.8,5.8,4.2c1.2,0.9,2.7,2.5,4.1,3c0,0,1.3,1.2,2.2,0.8c-1.1-1.4-3-2.5-4.4-3.8
	s-2.9-3.1-4.4-4.5s-8.2-10-10.3-8.4C200.5,28.8,204,31.8,206.9,33.8z" />
	<path class="st2" d="M217.9,58c-1.5-0.1-17,5.4-19.1,6.3c-1.1,0.5-3.1,2.6-1.5,3.7S218.3,59.1,217.9,58z" />
	<path class="st2" d="M226.6,7.2c-2.8,1.5-0.7,5.1-0.3,7.8c0.3,1.9,4.4,18.7,5.4,19.5C232.2,33,229.2,7.4,226.6,7.2z" />
	<path class="st2" d="M257.6,12.4c-2.4,0.5-8.9,18.1-8.2,21.1C250.9,31.7,260.9,11.7,257.6,12.4z" />
	<path class="st2" d="M257.5,26.1c0.6-0.1,3.8-3.5,5.2-5c0.7-0.7,4-3.7,3.8-4.7c-0.5-2.8-3.4,0.6-4,1.4C261.1,20,257.1,26,257.5,26.1
	z" />
	<path class="st2" d="M256.7,46.2c0.4,0.6,4.7-0.1,6.2-0.3c2-0.3,9.9-2,11.7-2.3c2.2-0.4,5.5-1.6,5.5-2.5
	C278.7,37.2,256.7,45,256.7,46.2z" />
	<path class="st2" d="M258.3,56.7c-0.2,0.6,13.7,6.9,13.5,3.6C271.7,59.5,261.8,56,258.3,56.7z" />
	<path class="st2" d="M227.2,71.5c-0.5-0.4-9.9,11.7-6.7,12.3C221.4,83.9,227.1,75.1,227.2,71.5z" />
	<path class="st2" d="M198,38.7c1.5,0.8,6.1,2.5,6.9,1.9c-0.4-1.2-1.9-1.8-3-2.3s-3.5-2.2-4.5-2.3C194.8,35.8,196.8,38.1,198,38.7z" />
	<path class="st2" d="M17.8,303.1c2,1.3,3.9,2.8,5.8,4.2c1.2,0.9,2.7,2.5,4.1,3c0,0,1.4,1.2,2.2,0.8c-1.1-1.4-3-2.5-4.4-3.8
	s-2.9-3.1-4.4-4.5s-8.2-10-10.3-8.4C11.3,298.1,14.8,301.1,17.8,303.1z" />
	<path class="st2" d="M28.7,327.3c-1.5-0.1-17,5.4-19.1,6.3c-1.1,0.5-3.1,2.6-1.5,3.7S29.1,328.4,28.7,327.3z" />
	<path class="st2" d="M37.4,276.5c-2.8,1.5-0.7,5.1-0.3,7.8c0.3,2,4.4,18.7,5.5,19.5C43,302.3,40.1,276.7,37.4,276.5z" />
	<path class="st2" d="M68.4,281.7c-2.4,0.5-8.9,18.1-8.2,21.1C61.7,301,71.7,281,68.4,281.7z" />
	<path class="st2" d="M68.3,295.4c0.6-0.1,3.8-3.5,5.2-5c0.7-0.7,4-3.7,3.8-4.7c-0.5-2.8-3.4,0.6-4,1.4
	C71.9,289.3,67.9,295.3,68.3,295.4z" />
	<path class="st2" d="M67.5,315.5c0.4,0.6,4.7-0.1,6.2-0.3c2-0.3,9.9-2,11.7-2.3c2.2-0.4,5.5-1.6,5.5-2.5
	C89.5,306.5,67.5,314.3,67.5,315.5z" />
	<path class="st2" d="M69.1,326c-0.2,0.6,13.7,6.9,13.5,3.6C82.5,328.8,72.6,325.3,69.1,326z" />
	<path class="st2" d="M38,340.8c-0.5-0.4-9.9,11.7-6.7,12.3C32.2,353.2,37.8,344.4,38,340.8z" />
	<path class="st2" d="M8.8,308c1.5,0.8,6.1,2.5,7,1.9c-0.4-1.2-1.9-1.8-3-2.3s-3.6-2.2-4.5-2.3C5.6,305.1,7.6,307.4,8.8,308z" />
	<path class="st19" d="M89.8,139.9c0.3,0.4,0.6,0.7,0.9,0.9c0.2,0.2,0.2,0.3,0,0.5c-2.7,2.4-5.4,4.8-8.2,7.1c-1.8,1.4-3.8,2.6-6,3.4
	c-2.3,0.9-4.6,1.5-7.1,1.8c-2.6,0.4-5.2,0.7-7.8,1.1c-0.5,0.1-0.5,0.1-0.5-0.4s-0.1-0.8-0.1-1.2c0-0.3,0-0.6-0.1-0.9
	c0-0.1,0-0.3,0-0.4c-0.3-1.6-0.8-3.1-1.5-4.6c-0.7-1.5-1.5-2.9-2.4-4.3c-0.7-1-1.4-2-2.3-2.9l-0.8-1c0.7-0.7,1.5-1.3,2.3-1.9
	c1.9-1.5,3.7-3,5.6-4.5c1.9-1.6,3.9-2.9,6.2-3.9c1.6-0.6,3.3-1.1,5-1.4c2.1-0.4,4.1-0.8,6.2-1.2l4.1-0.8c0.1,0,0.3-0.1,0.3,0.1
	c0,0.4,0.1,0.8,0.2,1.2c0,0.1,0,0.2,0,0.3c0.4,2.1,1,4.1,1.7,6c0.8,2.3,2.1,4.4,3.6,6.2C89.4,139.5,89.6,139.7,89.8,139.9z
	 M77.2,150.1c0.5-0.2,1-0.5,1.6-0.8s0.8-0.6,1.2-0.8c1-0.5,1.9-1.1,2.7-1.9c2-1.8,4.1-3.6,6.1-5.4c0.2-0.2,0.2-0.3,0-0.4
	c-1.5-1.4-2.7-3-3.7-4.8c-0.5-1.1-1-2.2-1.4-3.3c-0.6-1.7-1-3.4-1.2-5.2c0-0.3-0.1-0.4-0.4-0.3c-2.3,0.5-4.7,0.9-7,1.4
	c-2.1,0.3-4.2,0.8-6.2,1.5c-1.1,0.4-2.1,1-3.1,1.6c-1.1,0.8-2.2,1.6-3.3,2.5l-6,4.8c-0.2,0.2-0.3,0.3,0,0.6c0.7,0.8,1.4,1.7,2.1,2.6
	c1.3,1.8,2.3,3.7,3.1,5.8c0.6,1.6,0.9,3.3,1,4.9c0,0.3,0.1,0.3,0.4,0.3c2.3-0.3,4.6-0.7,6.9-1C72.4,151.9,74.9,151.2,77.2,150.1z" />
	<path class="st20" d="M83.9,126.7c-0.1-0.4-0.2-0.8-0.2-1.2c1-1.3,2.2-2.6,3.4-3.6c1.2-1.1,2.6-1.8,4.2-2c1.9-0.1,3.6,0.9,4.4,2.6
	c0.7,1.6,0.9,3.4,0.7,5.1c-0.1,1.3-0.4,2.6-0.9,3.8c-0.7,1.9-1.6,3.7-2.8,5.4c-0.8,1-1.6,2-2.6,2.9c-0.1,0.1-0.2,0.2-0.3,0.2
	c-0.2-0.2-0.4-0.4-0.6-0.7c0.2-0.1,0.3-0.2,0.4-0.3c1-0.9,1.9-1.9,2.7-3c1.7-2.5,2.8-5.3,3.2-8.3c0.3-1.6,0.1-3.3-0.6-4.8
	c-0.6-1.2-1.8-2-3.2-2c-1.5,0.1-2.9,0.7-4,1.8c-1.3,1.1-2.5,2.4-3.5,3.8C84.2,126.5,84.1,126.6,83.9,126.7z" />
	<path class="st9" d="M77.2,150.1c-2.3,1.1-4.8,1.8-7.3,2.1c-2.3,0.3-4.6,0.6-6.9,1c-0.3,0-0.4,0-0.4-0.3c-0.1-1.7-0.4-3.4-1-4.9
	c-0.8-2-1.8-4-3.1-5.8c-0.6-0.9-1.3-1.8-2.1-2.6c-0.2-0.2-0.2-0.4,0-0.6l6.1-4.8c1-0.9,2.1-1.7,3.3-2.5c1-0.6,2-1.2,3.1-1.6
	c2-0.7,4.1-1.2,6.2-1.5c2.3-0.5,4.7-0.9,7-1.4c0.3-0.1,0.4,0,0.4,0.3c0.2,1.8,0.6,3.5,1.2,5.2c0.3,1.2,0.8,2.3,1.3,3.4
	c0.9,1.8,2.1,3.5,3.6,4.9c0.2,0.2,0.2,0.3,0,0.4c-2,1.8-4.1,3.6-6.1,5.4c-0.8,0.8-1.7,1.4-2.7,1.9c-0.4,0.2-0.7,0.6-1.2,0.8
	S77.6,149.9,77.2,150.1z M69.7,148.9c-0.1-0.3-0.3-0.2-0.5-0.2c-0.6,0.2-1.3,0.4-1.9,0.6s-1.5,0.4-2.4,0.6c8,1.3,16.2-2.1,19.9-9.2
	l-0.1,0.1c-1.3,1.1-2.8,2.1-4.2,2.9c-1.1,0.7-2.3,1.3-3.4,1.9c-1.8,0.9-3.6,1.7-5.5,2.3c-0.4,0.2-0.9,0.4-1.4,0.5
	c-0.1,0-0.3,0-0.3,0.1C69.8,148.7,69.8,148.8,69.7,148.9L69.7,148.9z M62.6,144.2c6.9-1.7,13.4-4.7,19.2-8.9h-0.1
	c-1,0.2-1.9,0.5-2.8,0.9C77.8,136.6,66.4,141.5,62.6,144.2z M70.4,148.6c-0.1,0.1-0.2,0.3-0.1,0.5s0.2,0.2,0.3,0.1
	c0.1-0.1,0.2-0.3,0.2-0.4C70.7,148.7,70.6,148.6,70.4,148.6z" />
	<path class="st21" d="M80.8,149.2c-0.1-0.1-0.1-0.1-0.2,0s-0.2,0.1-0.1,0.2c0,0.1,0.1,0.1,0.2,0.1c0,0,0,0,0,0
	C80.8,149.4,80.8,149.3,80.8,149.2z" />
	<path class="st19" d="M71.3,148.1c0-0.1,0.2-0.1,0.3-0.1c1.9-0.6,3.7-1.4,5.5-2.3c1.2-0.6,2.3-1.2,3.4-1.9c1.5-0.9,2.9-1.9,4.2-2.9
	l0.1-0.1c-3.7,7.1-11.9,10.5-19.9,9.2c0.8-0.2,1.6-0.4,2.4-0.6s1.3-0.4,1.9-0.6" />
	<path class="st19" d="M74.7,137.7c1.4-0.6,2.8-1.1,4.2-1.6c0.9-0.3,1.9-0.6,2.8-0.9h0.1c-5.8,4.1-12.3,7.1-19.2,8.9
	c0.2-0.1,0.4-0.2,0.5-0.4l0.6-0.4l1.2-0.8c0.8-0.5,1.6-1,2.4-1.5c1.6-0.9,3.3-1.8,5-2.5C73.1,138.4,73.9,138.1,74.7,137.7z" />
	<path class="st19" d="M66,135.3c0.1,0,0.2-0.1,0.2-0.2l0.3-0.1c1-0.6,2-1.2,3.1-1.7c2-0.9,4-1.6,6.2-2c1.4-0.3,2.8-0.4,4.2-0.5
	c-0.3,0.2-0.6,0.3-1,0.4c-1.5,0.6-3,1.1-4.5,1.7c-2.8,1.1-5.4,2.4-8,3.6c-1.2,0.6-2.4,1.3-3.6,1.9c-0.9,0.5-1.7,1-2.6,1.5
	c1.7-1.8,3.6-3.4,5.7-4.7L66,135.3z" />
	<path class="st22" d="M62.6,143.6c0-0.1-0.1-0.1-0.2-0.1c-0.1,0.1-0.1,0.2-0.1,0.3c0,0.1,0.1,0.1,0.2,0.1
	C62.6,143.8,62.6,143.7,62.6,143.6C62.6,143.6,62.6,143.6,62.6,143.6z" />
	<path class="st23" d="M80.8,149.2c0,0.1,0,0.2-0.1,0.3c-0.1,0-0.2,0-0.2-0.1c0,0,0,0,0,0c-0.1-0.1,0-0.2,0.1-0.2
	S80.8,149.1,80.8,149.2z" />
	<path class="st21" d="M62.6,143.6c0.1,0.1,0,0.2-0.1,0.3c0,0,0,0,0,0c-0.1,0.1-0.1,0-0.2-0.1c-0.1-0.1,0-0.2,0.1-0.3
	C62.5,143.5,62.5,143.5,62.6,143.6z" />
	<path class="st20" d="M61.6,153.6c0.1,0.3,0.2,0.6,0.2,0.9c-2.4,0.3-4.9,0-7.2-0.9c-2.7-0.9-5.1-2.3-7.2-4.2c-1-1-1.9-2.1-2.5-3.4
	c-0.8-1.8-0.5-3.8,0.7-5.3c1-0.9,2.1-1.4,3.4-1.6c1.5-0.2,3-0.3,4.5-0.1c0.1,0,0.3,0.1,0.4,0c0.3,0.4,0.5,0.7,0.8,1.1
	c-0.1,0-0.3,0-0.4,0c-1.4-0.2-2.8-0.2-4.2-0.1c-1.3,0-2.6,0.5-3.7,1.2c-1.1,0.9-1.6,2.5-1.2,3.9c0.3,1.2,1,2.3,1.9,3.2
	c1.3,1.4,2.9,2.5,4.6,3.4c1.5,0.8,3.2,1.4,4.8,1.7C58.4,153.8,60,153.8,61.6,153.6z" />
	<ellipse transform="matrix(3.327792e-02 -0.9994 0.9994 3.327792e-02 -274.9648 360.3275)" class="st24" cx="48.8" cy="322.3" rx="15.8" ry="15.8" />
	<g id="VSK2kL.tif">
		<path class="st25" d="M52.3,313.7L52.3,313.7h0.3H52.3z" />
		<path class="st25" d="M57.3,320.8c-0.1-0.4-0.5-0.7-1-0.8c-0.3,0-0.6,0-0.9,0h-4.1v-4.8c0-0.6-0.5-1.2-1.1-1.4h-2.5
		c-0.4,0-0.9,0.2-1.1,0.6c-0.1,0.2-0.2,0.4-0.2,0.7c0,1,0,2,0,3v1.8h-4.8c-0.3,0-0.6,0.1-0.9,0.3c-0.3,0.2-0.4,0.5-0.5,0.8v2.5
		c0,0.2,0.1,0.4,0.2,0.6c0.2,0.3,0.5,0.5,0.9,0.6c0.3,0,0.6,0,0.9,0h4.2v4.7c0,0.2,0,0.5,0.1,0.7c0.2,0.4,0.5,0.7,1,0.8
		c0.4,0,0.8,0,1.1,0h1c0.4,0,0.7-0.1,1-0.4c0.3-0.2,0.5-0.6,0.4-0.9c0-1.6,0-3.2,0-4.7v-0.1h4.8c0.3,0,0.5,0,0.7-0.1
		c0.3-0.1,0.5-0.3,0.6-0.6L57.3,320.8L57.3,320.8z" />
	</g>
	<linearGradient id="SVGID_3_" gradientUnits="userSpaceOnUse" x1="212.3684" y1="269.8291" x2="214.8984" y2="265.4391" gradientTransform="matrix(1 0 0 -1 0 440)">
		<stop offset="0" style="stop-color:#F4E2D4" />
		<stop offset="0.38" style="stop-color:#F2E3DD" />
		<stop offset="1" style="stop-color:#EFE4E8" />
	</linearGradient>
	<circle class="st26" cx="213.6" cy="172.4" r="2.5" />
	<linearGradient id="SVGID_4_" gradientUnits="userSpaceOnUse" x1="220.4015" y1="268.0011" x2="222.9315" y2="263.6111" gradientTransform="matrix(1 0 0 -1 0 440)">
		<stop offset="0" style="stop-color:#F4E2D4" />
		<stop offset="0.38" style="stop-color:#F2E3DD" />
		<stop offset="1" style="stop-color:#EFE4E8" />
	</linearGradient>
	<circle class="st27" cx="221.7" cy="174.2" r="2.5" />
	<linearGradient id="SVGID_5_" gradientUnits="userSpaceOnUse" x1="228.7099" y1="266.0302" x2="231.2501" y2="261.6299" gradientTransform="matrix(1 0 0 -1 0 440)">
		<stop offset="0" style="stop-color:#F4E2D4" />
		<stop offset="0.38" style="stop-color:#F2E3DD" />
		<stop offset="1" style="stop-color:#EFE4E8" />
	</linearGradient>
	<circle class="st28" cx="230" cy="176.2" r="2.5" />
	<path class="st9" d="M447.5,211c2.8-0.3,3.7,1.3,2.5,3.7c-0.7,1.3-1.4,2.5-2.3,3.7c-0.9,1.2-1.4,2.5-2.2,3.8
	c-3.1,4.7-18.3,20.3-22.5,23.2c-1.6,1.5-3.5,2.7-5.5,3.6c-1.7,0.6-4.4,1-5.6,0.5c-1.1-0.5-2.5-1.5-2.3-2.9c0.4-2.7,3.9-6.5,6.7-8.3
	c2.5-1.6,19.5-19.7,21.3-21.6C440.1,213.9,444.3,211.3,447.5,211z" />
	<path class="st9" d="M441.8,197.8c2.9,0.3,3.9,2.4,2.6,5c-0.7,1.3-1.5,2.6-2.5,3.8c-0.9,1.2-1.5,2.6-2.4,3.9
	c-3.3,4.8-19.7,19.4-24.2,21.9c-1.7,1.4-3.7,2.4-5.9,2.9c-1.8,0.2-4.6,0.2-5.9-0.8c-1.1-0.8-2.6-2.4-2.4-3.9c0.5-3,4.2-6.7,7.2-8.2
	c2.7-1.3,21-18.5,23-20.3C433.9,199.5,438.4,197.4,441.8,197.8z" />
	<path class="st2" d="M467,121.8c1.8-1.4,10.1-7.1,8.3-9.8c-3.7-1.3-14.3,12.6-17.9,16.9c1.7-0.6,3.2-1.5,4.6-2.7
	C463.7,124.8,465.3,123.2,467,121.8z" />
	<path class="st2" d="M485.3,150.4c1.6,0.6,8.1,3.7,9.9,1.1c0.2-3.3-13.5-4-17.9-4.4c0.9,0.9,2,1.6,3.2,2
	C482.1,149.5,483.7,149.9,485.3,150.4z" />
	<path class="st2" d="M490,138.9c2.2,0.1,7-0.7,8.4-2.6c-2.3-5.2-13.2-1.4-16.2-1c-3.8,0.6-7.6,1.4-11.4,2.1c-3,0.5-6,1.5-8.7,2.8
	c0,0.3-0.1,0.4-0.1,0.4c1.1,0.9,14.8-1,19.4-1.4C484.3,138.9,487.1,138.8,490,138.9z" />
	<path class="st2" d="M475.5,167.4c-0.1-3.3-13.6-12.6-16.2-13.8c0.6,1.9,4.4,5.8,6.1,7.6C468.5,164.6,474.3,168.7,475.5,167.4z" />
	<path class="st29" d="M388.5,126.4L388.5,126.4c-0.6-0.3-1.2-0.4-1.8-0.5c-0.4,0-0.8,0.2-1,0.5c-0.3,0.3,0.1,0.5,0.3,0.8
	c0.4,0.6,0.8,1.2,1.4,1.6c3.4,1,6.8,2.2,10.2,3.2s6.5,1.9,9.8,2.9c1.9,0.6,3.7,1.1,5.6,1.6c2.4,0.7,4.9,1.4,7.3,2.1
	c1.7,0.5,3.4,0.9,5,1.4c2.5,0.7,5.1,1.3,7.7,1.9c-0.1,1.7-0.3,3.5-0.7,5.2c-0.7,4.5-1.5,9.1-2.3,13.6c-0.9,5.1-2,10.2-3,15.3
	c-1.1,5.7-2.2,11.3-3.4,17c-1,5.3-2.1,10.5-3.1,15.8c-0.2,0.3-0.4,0.6-0.2,1l-0.1,0.7c-0.2,0.8-0.3,1.6-0.4,2.4
	c-1.8,9.2-3.6,18.4-5.6,27.6c-0.4,1.6-0.7,3.2-1,4.9c0,0.4-0.3,0.7-0.7,0.8c-1,0.2-1.9,0.4-2.9,0.4c-3.7,0.3-7.4,0.1-11.1-0.5
	c-0.9-0.2-1.9-0.2-2.8,0c1,0.5,2,0.8,3.1,1c1.4,0.5,2.9,0.8,4.4,1.1c1.3,0.2,2.5,0.3,3.8,0.4c0.9,0.1,1.7,0.1,2.6,0
	c0.7-0.1,1.7,0.3,2.2-0.6c0.1-0.1,0.4-0.1,0.5,0s0.5,0,0.5,0.4s-0.3,0.2-0.5,0.3c-0.6,0.1-0.5,0.5-0.4,0.9c0.1,0.2,0.3,0.3,0.4,0.5
	c-0.1,0.2-0.4,0.3-0.6,0.3c-2.4,0.2-4.8,0.2-7.1-0.2c-2.8-0.4-5.5-1-8.2-1.7c-2.4-0.6-4.6-1.3-6.9-2.1c-2.7-0.9-5.4-1.8-8.1-2.7
	c-2.2-0.7-4.4-1.4-6.5-2.2c-1-0.4-8-4-8.1-3.4c-2.8-1.2-5.5-2.7-8.2-4c-2-1-3.9-2.1-6-3c-0.2-0.1-0.5-0.1-0.5-0.4s0.3-0.2,0.5-0.3
	c0.7-0.2,1.3-0.4,1.9-0.7c1.7,0.5,3.4,1.3,4.8,2.3c0.7,0.5,1.5,0.8,2.3,0.9c-0.1-0.3-0.3-0.6-0.5-0.7c-1.5-1.3-3.1-2.6-4.7-3.8
	c-0.9-0.8-1.9-1.5-3-2c0.8-3.8,2.9-14,2.9-14.2c-0.3-0.8,1.2-8,1.7-10.8c0.5-3,1.2-6,1.6-9.1c0.4-2.6,1-5.2,1.4-7.9
	c0.3-2,0.7-3.9,1-5.9c0.1-0.4,0.5-1.9,0.5-2.1c0-0.2,0-0.4,0.1-0.6c1-5.1,1.9-10.3,2.8-15.4c1.8-10.3,4-20.5,5.9-30.8
	c0.2-0.9,0.5-1.3,1.4-1.2c1.9,0.3,3.6,0.9,5.5,1.2c-2-1.3-4.2-2.4-6.3-3.4c-0.2-0.7,0.4-1.2,0.5-1.8c0.3-1.2,1.3-2.2,2.5-2.5
	c3.5-1.3,7-2.3,10.7-2.9c3.3-0.7,6.6-1.2,10-1.6c0.7,0,1.4,0,2,0.2c2.8,0.7,5.5,1.5,8.2,2.3c1,0.3,1.9,0.5,2.9,0.8
	c2.8,0.8,5.7,1.4,8.5,2.3c1.6,0.5,3.3,0.9,5,1.3c1.7,0.4,3.4,0.8,5.1,1.4c2.6,1,5.3,1.6,7.9,2.5c4.2,1.5,8.7,2.4,12.9,4.1
	c1.1,0.4,2.2,0.8,3.2,1.3c0.3,0.1,0.7,0.2,0.7,0.5s-0.4,0.4-0.7,0.6c-0.2,0.1-0.4,0.2-0.6,0.1c-1.2,0.1-2.3,0.2-3.5,0.5
	c-4,0.6-7.9,1.7-11.8,2.5c-0.4,0-0.8,0.2-1.1,0.5c0.3,0.3,0.6,0.2,0.9,0.2c1.4,0,2.9,0,4.3-0.1c2.5-0.1,5-0.5,7.4-1
	c0.8-0.1,1.5-0.3,2.1-0.8c0.4,0.1,0.8,0.4,1.1,0.7c-0.6,0.3-1.2,0.4-1.9,0.5c-3.2,0.6-6.4,1.1-9.6,1.7l-5.3,0.9
	c-2-0.2-3.8-1.1-5.8-1.5c-1.3-0.3-2.6-0.7-3.9-1.1c-2.5-0.7-5-1.6-7.5-2.2c-2.2-0.6-4.5-1.2-6.6-1.9c-3-0.9-6.2-1.7-9.2-2.7
	c-1.4-0.5-2.8-0.8-4.2-1.2c-1.8-0.6-3.7-1.1-5.5-1.7c-1.1-0.3-1.4-0.6-1.2-1.8c0.3,0.1,0.3,0.4,0.5,0.5" />
	<path class="st30" d="M425.3,242.8c-1.3,0.9-2.6,1.8-4,2.5c-2.4,1.4-4.7,2.7-7.2,3.8c-0.6,0.4-1.2,0.6-1.9,0.6
	c-0.2-0.1-0.3-0.3-0.4-0.5c-0.2-0.4-0.2-0.8,0.4-0.9c0.2,0,0.5,0,0.5-0.3s-0.3-0.4-0.5-0.4s-0.5-0.1-0.5,0c-0.6,0.9-1.5,0.5-2.2,0.6
	c-0.9,0.1-1.7,0.1-2.6,0c-1.3-0.2-2.5-0.3-3.8-0.4c-1.5-0.2-3-0.6-4.4-1.1c-1.1-0.2-2.1-0.5-3.1-1c0.9-0.2,1.9-0.2,2.8,0
	c3.7,0.6,7.4,0.8,11.1,0.5c1-0.1,1.9-0.2,2.9-0.4c0.4-0.1,0.7-0.4,0.7-0.8c0.3-1.6,0.6-3.3,1-4.9c2-9.1,3.8-18.4,5.6-27.6
	c0.1-0.4,2.9-14.5,3.9-19.8c1.1-5.7,2.2-11.3,3.4-17c1-5.1,2.1-10.2,3-15.3c0.8-4.5,1.6-9,2.3-13.6c0.4-1.7,0.6-3.4,0.7-5.2
	c0.2-0.6,0-1.2,0.3-1.7l5.3-0.9c3.2-0.6,6.4-1.1,9.6-1.7c0.6,0,1.3-0.2,1.9-0.5c0.6,0.1,0.4,0.5,0.3,0.9c-0.7,3.4-1.3,6.8-2,10.2
	c-0.7,3.4-1.3,6.8-2,10.1c-0.1,0.3-2.8,14.2-3.7,18.5c-1.9,9.6-3.8,19.1-5.8,28.7c-1.2,5.9-2.5,11.8-3.8,17.7
	c-0.7,3.1-1.4,6.2-2.2,9.4c-0.2,0.2-0.3,0.5-0.2,0.8l-0.6,2.1c-0.1-0.1-1.1,4.4-1.4,4.7" />
	<path class="st30" d="M448.7,136.4c-0.6,0.4-1.4,0.7-2.1,0.8c-2.4,0.5-4.9,0.9-7.4,1c-1.4,0.1-2.9,0.1-4.3,0.1
	c-0.3,0-0.6,0.1-0.9-0.2c0.3-0.3,0.7-0.4,1.1-0.5c4-0.7,7.8-1.9,11.8-2.5c1.1-0.3,2.3-0.4,3.5-0.5c-0.5,0.3-1.1,0.3-1.6,0.6
	c-0.3,0.1-0.7,0.1-0.7,0.5S448.4,136.3,448.7,136.4z" />
	<path class="st30" d="M353.2,226.1c1.1,0.5,2.1,1.2,3,2c1.6,1.2,3.2,2.4,4.7,3.8c0.3,0.2,0.4,0.4,0.5,0.7c-0.8-0.1-1.6-0.4-2.3-0.9
	c-1.5-1.1-3.1-1.8-4.8-2.3c0.2-0.6,0.1-1.4-0.3-1.9C353.6,227.1,353.3,226.6,353.2,226.1z" />
	<path class="st30" d="M371.6,126c2.2,1,4.3,2.2,6.3,3.4c-1.9-0.4-3.6-0.9-5.5-1.2c0.2-0.5,0-0.8-0.2-1.2S371.6,126.5,371.6,126z" />
	<path class="st30" d="M425.4,242.6c0-0.8-0.6-1.4-0.8-2.1c-0.1-0.4,1-1.1,1.2-0.6s0.4,0.9,0.7,1.4s0.3,0.9-0.3,1.2
	C425.9,242.5,425.7,242.7,425.4,242.6L425.4,242.6z" />
	<path class="st29" d="M363.7,175.1c0,0,0,0.1,0,0.1c0,0,0,0.1,0,0.1l-0.1-0.1L363.7,175.1z" />
	<path class="st30" d="M425.2,242.7l0.2-0.1l0.1,0.1l-0.2,0.1L425.2,242.7z" />
	<path class="st31" d="M433.1,140.1c-2-0.2-3.8-1.1-5.8-1.5c-1.3-0.3-2.6-0.7-3.9-1.1c-2.5-0.7-5-1.6-7.5-2.2
	c-2.2-0.6-4.5-1.2-6.6-1.9c-3-0.9-6.2-1.7-9.2-2.7c-1.4-0.5-2.8-0.8-4.2-1.2c-1.8-0.6-3.7-1.1-5.5-1.7c-0.9-0.2-1.2-0.5-1.2-1.2
	l-0.5-0.2l0,0h-0.1l-0.6-0.2c-0.4-0.1-9.4-1.7-9.8-1.8c-0.4,0-0.8,0.1-1.1,0.5c-0.3,0.3,0.1,0.5,0.3,0.8s9.2,2.2,9.2,2.7l0,0
	c0.3,0.1,0.5,0.4,0.9,0.5c3.4,1,6.8,2.2,10.2,3.2s6.5,1.9,9.8,2.9c1.9,0.6,3.7,1.1,5.6,1.6c2.4,0.7,4.9,1.4,7.3,2.1
	c1.7,0.5,3.4,0.9,5,1.4c2.5,0.7,5.1,1.3,7.7,1.9C433,141.3,432.9,140.7,433.1,140.1z" />
	<path class="st31" d="M390.2,126c0.1,0,0.1-0.1,0.2-0.1c0,0,0,0.1,0,0.1c0,0.1-0.1,0.1-0.2,0.1C390.2,126.1,390.2,126,390.2,126z" />
	<path class="st31" d="M400.2,120.7L400.2,120.7L400.2,120.7c0-0.2,0.1-0.3-0.1-0.4c-0.1,0-0.2,0-0.2,0.1c0,0,0,0,0,0.1
	C399.8,120.7,400,120.6,400.2,120.7z M396.1,122.1l-0.1,0.1l0,0L396.1,122.1L396.1,122.1z" />
	<path class="st31" d="M417.8,211.8c0.1,0,0.2,0,0.3-0.1c0-0.1,0-0.1-0.1-0.2c-0.1,0-0.2,0-0.3,0.1c0,0,0,0,0,0
	C417.8,211.6,417.8,211.7,417.8,211.8z" />
	<path class="st29" d="M429.9,205.8c0,0,0.1,0,0.1,0H429.9z" />
	<path class="st29" d="M429.1,205.1l-0.1,0.1L429.1,205.1z" />
	<path class="st29" d="M390.2,126.1c0-0.1-0.1-0.2,0-0.2c0.1,0,0.1-0.1,0.2-0.1c0,0,0,0.1,0,0.1C390.3,126.1,390.3,126.1,390.2,126.1
	z" />
	<path class="st29" d="M388.5,126.4L388.5,126.4L388.5,126.4z" />
	<path class="st29" d="M400.2,120.7c-0.1,0-0.4,0-0.3-0.2c0-0.1,0.1-0.2,0.2-0.2c0,0,0,0,0.1,0C400.3,120.3,400.2,120.5,400.2,120.7
	L400.2,120.7z" />
	<path class="st29" d="M397.3,122.4c-0.1,0-0.3-0.1-0.3-0.3c0,0,0,0,0.1,0C397.3,122.2,397.3,122.3,397.3,122.4L397.3,122.4z" />
	<path class="st29" d="M396,122.1L396,122.1L396,122.1L396,122.1L396,122.1z" />
	<path class="st29" d="M400.2,120.7L400.2,120.7L400.2,120.7z" />
	<path class="st29" d="M417.8,211.8c0-0.1-0.1-0.1,0-0.2c0-0.1,0.1-0.2,0.2-0.1c0,0,0,0,0,0c0.1,0,0.1,0.1,0.1,0.2
	C418.1,211.8,418,211.8,417.8,211.8z" />
	<path class="st29" d="M414.6,212.7l-0.1-0.2C414.5,212.6,414.6,212.7,414.6,212.7z" />
	<path class="st29" d="M415,213.3l0.1,0.2C415,213.4,415,213.3,415,213.3z" />
	<path class="st29" d="M418.5,210.7L418.5,210.7C418.6,210.8,418.5,210.8,418.5,210.7z" />
	<path class="st29" d="M415.2,212.1L415.2,212.1" />
	<path class="st29" d="M419.2,210.1v0.1" />
	<path class="st29" d="M366.9,175c-0.2-0.2-0.4-0.6-0.4-0.9l1.2,0.2C367.2,174.4,366.9,174.6,366.9,175L366.9,175z" />
	<path class="st30" d="M427.7,206.5c-0.2-0.2-0.4-0.5-0.4-0.8C428,205.7,427.8,206.1,427.7,206.5z" />
	<path class="st30" d="M427.4,205.7c-0.1-0.1-0.2-0.2-0.1-0.3c0,0,0,0,0,0C427.4,205.4,427.5,205.6,427.4,205.7
	C427.4,205.7,427.4,205.7,427.4,205.7z" />
	<path class="st32" d="M391.2,196c0.5,0.4,0.8,1,0.8,1.6c1,7.5,2.1,15.1,3.1,22.6c0,0.4,0,0.8-0.1,1.2c-0.1,0-0.2,0-0.2,0.1
	c0,0,0,0,0,0c-5.7,0.6-11.3,1.5-17,2.2c-9.2,1.1-18.3,2.5-27.5,3.8c-0.7-0.9-0.5-2-0.6-3c-1-6.8-1.9-13.6-2.9-20.4
	c-0.1-0.6-0.1-1.2,0-1.8c9.3-1.3,18.6-2.6,27.9-3.9C380.3,197.7,385.7,196.8,391.2,196z M362.4,211c-0.3,0.1-0.6,0.1-0.6,0.5
	c0,1.1,0.1,2.2,0.5,3.2c0.1,0.3,0.4,0.3,0.7,0.3c1,0.2,2,0.1,3-0.1c3-0.4,3-0.4,3.4,2.6c0.5,3.4,0,2.8,3.3,2.4
	c0.8-0.1,1.7-0.2,1.8-1.2c0.2,0.2,0.7,0.7,0.7,0c-0.1-1.4-0.3-2.7-0.5-4.1l-0.4,0.1c-0.2,1.3,0.5,2.6,0.2,4
	c-0.6-1.1-0.5-2.3-0.7-3.4c-0.2-1,0.1-1.5,1.2-1.6c1.5,0,3-0.3,4.4-0.8c0.5,0.6,0,0.7-0.4,0.9s-0.9-0.1-1,0.5
	c0.3,0.4,1.2-0.1,1.1,0.8c-0.2,1.6,0.4,3.1,0.8,4.7c0.5,1.8,0,2.6-2,2.9l-23.8,3.3c-2.4,0.3-2.4,0.3-2.8-2.1
	c-0.9-6.2-1.7-12.3-2.6-18.5c-0.2-1.7,0-1.9,1.7-2.2c0.8-0.1,1.7,0,2.3-0.7c-1.3,0-2.6,0.3-3.9,0.4s-1.5,0.5-1.4,1.7
	c1,7,2,14,3,20.9c0.2,1.8,0.3,1.8,2.1,1.5c9.2-1.4,18.4-2.5,27.6-3.9c4.4-0.7,8.9-1.3,13.4-1.8c1-0.1,1.3-0.5,1.2-1.5
	c-1-7.1-2-14.2-3-21.4c-0.2-1.2-0.6-1.5-1.8-1.4c-4,0.6-8,1.1-12,1.7c-0.8,0.1-1.6,0.4-2.3,0.8c1,0.8,2.6,4.6,2.5,6
	c-0.1,1,0.2,1.9,0.9,2.6c0.4,0.3,0.2,0.5-0.1,0.8c-1.4-0.6-2.8,0.2-4.1,0.2c-0.5,0-1,0.5-1.5-0.2l4.6-0.6v-0.4
	c-0.8,0.1-1.7,0.2-2.5,0.4c-1.1,0.3-1.6-0.1-1.7-1.3c0.1-0.9-0.1-1.8-0.6-2.6l-0.4,0.1l0.6,4.4c-0.6-0.1-0.4-0.6-0.5-1
	c-0.2-1-0.3-2.1-0.5-3.1c-0.1-0.6-0.2-1.1-0.9-1.2c0.2-0.4,0.4-0.7-0.3-0.6c-0.9,0.1-1.8,0.3-2.7,0.4c-0.5,0.1-0.8,0.2-0.7,0.8
	c-0.1,1.4,0,2.8,0.4,4.1c0.3,1.5-0.3,1.8-1.5,1.9C365.2,210.2,363.6,210,362.4,211z M363.5,215.8v0.4c0.8,0.1,1.6,0,2.4-0.2
	c1.2-0.3,2.1-0.2,2.4,1.3h0.3c-0.1-0.9,0.1-2-1.1-2C366.1,215.4,364.8,215.5,363.5,215.8L363.5,215.8z M362.9,209.6l0.1,0.4l4.6-0.6
	l0-0.4C365.9,209,364.4,209.2,362.9,209.6L362.9,209.6z M366.7,205.1c-0.2,0.9,0,1.9,0.4,2.7C367.3,206.9,367.1,205.9,366.7,205.1
	L366.7,205.1z M370.4,220.7v0.1l3.5-0.5v-0.1L370.4,220.7z" />
	<path class="st33" d="M389.9,190.5c-0.5,0.2-1,0.3-1.5,0.3c-0.5,0-0.9,0.1-1.4,0.1c-4.2,0.6-8.5,1.4-12.7,2.2
	c-8.3,1.5-16.8,2.4-25.2,3.6c-0.1,0.1-0.1,0.1-0.2,0.1c-1.1,0.1-1.9-2.1-3-1.8c0.3,1.6,0.5,5.7,0.9,7.3c9.3-1.3,18.6-2.6,27.9-3.9
	c5.5-0.8,11-1.6,16.4-2.4c-0.1-1.8-1-6.3-1.1-8.1C389.8,188,390.2,190.7,389.9,190.5z" />
	<path class="st33" d="M350.4,227.5c9.1-1.3,18.3-2.7,27.5-3.8c5.7-0.7,11.3-1.5,17-2.2c0.6,1.5,1,3.1,1.2,4.7v0.6
	c-0.9,0-1.7,0-2.6,0.1c-13.5,1.8-27.1,3.7-40.6,5.6c-1.2,0.2-1.5,0.7-1.4,1.8c0.5,3.5,1,7,1.5,10.5c0.2,1.2,0.3,2.4,1.9,2.6
	c0.2,0,0.4,0.5,0.6,0.7c-0.5,0.3-1.1,0.4-1.6,0.3c-1-1.5-1.7-3.2-1.8-5c-0.3-3.1-1-6.1-1.2-9.2C350.7,231.9,350.8,229.7,350.4,227.5
	z" />
	<path class="st34" d="M361.1,163.1l-1-7.6c0.4-0.6,1-0.6,1.6-0.6c0.8,0,1.3-0.2,1-1.2c-0.4-1.4-0.6-2.7-0.6-4.1
	c0-1.4-0.1-1.7-1.6-1.5s-2.9,0.4-4.3,0.5l0.2-0.5l0.4-0.2l1.3-0.2c0.2,0.2,0.5,0.3,0.7,0.3l6.3-0.9c0.3,0,0.5-0.2,0.6-0.5l1.6-0.1
	c0,0.1,0.1,0.1,0.2,0.1l2.6,2.2l0.2,0.7c0.1,1,0.2,2,0.3,2.9c0.2,0.6-0.2,1.2-0.8,1.3c-0.1,0-0.2,0-0.3,0c-1.1,0.1-2.2,0.3-3.4,0.4
	c-0.6-0.2-0.5,0.2-0.4,0.5s0,0.4,0.1,0.6c-0.3,1.9,0,3.8,0.8,5.5c0.2,0.5,0.1,1.2,0.7,1.6c0.9,0.8,2,0,2.9,0.3l0,0.1
	c0.2,1.2-0.2,2.7,0.9,3.7c0.3,0.5,0,1.2,0.8,1.4c1.1,0.6,2.6,0.3,3.7,1.1c0.3,2.3,1,4.5,0.8,6.8c-3.5,0.3-6.9,1.1-10.4,1.2
	c-0.3-0.8-0.9-0.5-1.4-0.4c-2.1,0.3-4.3,0.6-6.5,0.9c2-0.5,4.1-0.9,6.2-1.1c1.1-0.1,1.5-0.6,1.3-1.8c-0.5-3.5-0.9-6.9-1.7-10.4
	c0-0.7-0.7-1.3-1.4-1.2c0,0-0.1,0-0.1,0C362,163,361.6,163,361.1,163.1z" />
	<path class="st32" d="M356.1,148.5c1.5-0.2,2.9-0.4,4.3-0.5s1.6,0.1,1.6,1.5c0.1,1.4,0.3,2.8,0.6,4.1c0.2,1-0.2,1.3-1,1.2
	c-0.6,0-1.2,0-1.6,0.6l-0.7-0.4c0.1-0.4,0-0.7-0.4-0.7c-1.2-0.1-2.3,0.3-3.1,1.1c-0.3,0.2-0.8,0-0.9-0.3c0-0.1,0-0.1-0.1-0.2
	c-0.3-1.1-1.1-1.1-1.9-0.9c-5.6,0.8-11.1,1.6-16.7,2.4c-1.2,0.1-1.7,0.6-1.7,1.8c0,0.8-0.2,1.6-0.2,2.4c0,1.6-0.8,2.3-2.3,2.3
	c-0.3,0-0.6,0.1-0.9,0.1l-0.5-0.3l1.9-0.3c1.2-0.2,1.3-0.4,1.1-1.8c-0.1,0-0.2,0.1-0.2,0.1c0,0.6-0.4,1.2-1.1,1.2
	c-0.2,0-0.4,0-0.6-0.1c-1-0.3-0.3-1-0.1-1.5c0.2-0.8,0.1-1.5-0.9-1.8c0-1,0.1-1.9,0.4-2.9c0.5,0.2,1,0.1,1-0.5c0.1-1.3,1-1.4,2-1.6
	c6.5-0.9,13-1.8,19.6-2.7c0.6-0.1,1.5,0,1.3-1.1l0.7-1.1l0,0L356.1,148.5z M334.7,155.8l18.6-2.6C347,153.5,340.9,154.8,334.7,155.8
	z M334,159.6c0-1,0.4-1.7,0-2.4c0,0-0.3,0-0.3,0.1C333.3,157.9,333.5,158.6,334,159.6L334,159.6z" />
	<path class="st34" d="M330.8,159.3v-0.8c1,0.3,1.1,1,0.9,1.8c-0.2,0.6-0.9,1.2,0.1,1.5c0.6,0.3,1.2,0,1.5-0.6
	c0.1-0.2,0.1-0.4,0.1-0.6c0-0.1,0.1-0.1,0.2-0.1c0.3,1.4,0.2,1.6-1.1,1.8l-1.9,0.3l-0.3-0.3c0.2-0.8,0-1.7,0.4-2.6
	C331,159.8,331.2,159.6,330.8,159.3z" />
	<path class="st14" d="M355.5,248c-0.2-0.2-0.7-0.4-0.9-0.5s-0.4-0.4-0.7-0.6c-0.6-0.6-0.9-1.3-0.9-2.1c-0.5-3.5-0.9-7-1.5-10.5
	c-0.2-1.2,0.2-1.7,1.4-1.8c13.5-1.9,27.1-3.7,40.6-5.6c0.9-0.1,1.7-0.1,2.6-0.1l1.8,13c-0.6,0.8,0,1.4-1.5,2.7
	c-0.4,0.1-0.8,0.2-1.2,0.2l-28.7,4c-1.9,0.3-3.9,0.5-5.8,0.7c-1,0.1-2,0.3-3,0.4c-0.6,0.1-1.4,0.6-2.1,0.3L355.5,248z" />
	<path class="st32" d="M375.7,168.9c-1.1-0.8-2.5-0.5-3.7-1.1c1-0.2,1.9-0.6,2.8,0C375.2,168.1,375.8,168.3,375.7,168.9z" />
	<path class="st32" d="M371.2,166.5c-1.1-1-0.7-2.4-0.9-3.7C371.4,163.8,371.1,165.2,371.2,166.5z" />
	<path class="st32" d="M370.3,162.7c-0.9-0.4-2,0.5-2.9-0.3C368.4,162.3,369.4,161.6,370.3,162.7z" />
	<path class="st32" d="M361.1,163.1c0.5,0,0.9-0.1,1.4-0.1c0.7-0.1,1.4,0.3,1.5,1c0,0,0,0.1,0,0.1c0.8,3.4,1.2,6.9,1.7,10.4
	c0.2,1.1-0.2,1.6-1.3,1.8c-2.1,0.2-4.1,0.6-6.2,1.1c2.1-0.3,4.3-0.6,6.5-0.9c0.5-0.1,1.1-0.4,1.4,0.4c-3.2,0.7-6.5,1-9.8,1.5
	c-0.2-1.5-0.4-3-0.6-4.4c-0.1-0.5-0.1-1.1-0.9-1.1c-0.5-1.8,0.1-2.8,1.9-3c1.4-0.1,1.8-0.7,1.5-2c-0.2-0.7-0.2-1.3-0.3-2
	c-0.2-1.6,0.3-2.2,1.8-2.5C360.2,163.3,360.6,163.2,361.1,163.1z M358.7,164.9h-0.2l0.6,4h0.2L358.7,164.9z" />
	<path class="st34" d="M354.8,172.9c0.8-0.1,0.8,0.5,0.9,1.1c0.2,1.5,0.4,3,0.6,4.4l-0.2,0.2h-0.5
	C355.1,176.7,354.8,174.8,354.8,172.9z" />
	<path class="st34" d="M378.8,208.7c0.3-0.2,0.4-0.4,0.1-0.8c-0.7-0.7-1-1.6-0.9-2.6c0.1-1.4-1.5-5.2-2.5-6c0.7-0.4,1.5-0.6,2.3-0.8
	c4-0.6,8-1.1,12-1.7c1.2-0.2,1.6,0.2,1.8,1.4c1,7.1,2,14.2,3,21.4c0.1,1-0.2,1.4-1.2,1.5c-4.5,0.5-8.9,1.1-13.4,1.8
	c-9.2,1.4-18.4,2.5-27.6,3.9c-1.8,0.3-1.8,0.3-2.1-1.5c-1-7-1.9-14-3-20.9c-0.2-1.2,0.2-1.6,1.4-1.7s2.6-0.3,3.9-0.4
	c-0.6,0.7-1.5,0.6-2.3,0.7c-1.7,0.3-1.9,0.5-1.7,2.2c0.9,6.2,1.7,12.3,2.6,18.5c0.3,2.4,0.3,2.4,2.8,2.1l23.8-3.3
	c1.9-0.3,2.5-1.1,2-2.9c-0.4-1.5-1-3-0.8-4.7c0.1-0.9-0.8-0.4-1.1-0.8c0.2-0.5,0.7-0.3,1-0.5s1-0.3,0.4-0.9
	C379.2,211.4,379,210,378.8,208.7z M380.2,212.3c0.1-1.2-0.1-2.4-0.5-3.5C379.5,210,379.7,211.2,380.2,212.3L380.2,212.3z" />
	<path class="st4" d="M378.8,208.7c0.2,1.4,0.4,2.7,0.5,4c-1.4,0.5-2.9,0.8-4.4,0.8c-1.1,0.1-1.4,0.6-1.2,1.6
	c0.2,1.1,0.1,2.4,0.7,3.4l0,0c-0.1,1.1-1,1.2-1.8,1.2c-3.3,0.4-2.8,1-3.3-2.4c-0.4-3-0.4-3-3.4-2.6c-1,0.3-2,0.3-3,0.1l-0.6-4
	c1.2-1,2.8-0.8,4.2-1c1.2-0.2,1.9-0.4,1.5-1.9c-0.4-1.3-0.5-2.8-0.4-4.1l3.7-0.6c0.7,0.1,0.8,0.6,0.9,1.2c0.1,1,0.3,2.1,0.5,3.1
	c0.1,0.4-0.1,0.9,0.5,1l0,0c0.4,0.7,1,0.2,1.5,0.2C376,208.9,377.4,208.1,378.8,208.7z" />
	<path class="st34" d="M363.5,215.8c1.3-0.3,2.7-0.4,4-0.5c1.2,0,1,1.1,1.1,2h-0.3c-0.2-1.5-1.1-1.6-2.4-1.3
	c-0.8,0.2-1.6,0.3-2.4,0.2L363.5,215.8z" />
	<path class="st34" d="M373.2,208.7l-0.6-4.4l0.4-0.1c0.5,0.8,0.7,1.7,0.6,2.6c0.1,1.1,0.6,1.5,1.7,1.3c0.8-0.2,1.7-0.2,2.5-0.4v0.4
	L373.2,208.7L373.2,208.7z" />
	<path class="st34" d="M362.9,209.6c1.5-0.3,3-0.5,4.6-0.6l0,0.4l-4.6,0.6L362.9,209.6z" />
	<path class="st34" d="M374.5,218.6L374.5,218.6c0.3-1.3-0.4-2.7-0.2-4l0.4-0.1c0.2,1.3,0.4,2.7,0.5,4.1
	C375.2,219.3,374.7,218.8,374.5,218.6z" />
	<path class="st34" d="M362.4,211l0.6,4c-0.3,0-0.6,0-0.7-0.3c-0.3-1-0.5-2.1-0.5-3.2C361.8,211.1,362.1,211.1,362.4,211z" />
	<path class="st34" d="M371.4,203.4l-3.7,0.6c0-0.5,0.3-0.7,0.7-0.8c0.9-0.1,1.8-0.2,2.7-0.4C371.8,202.7,371.6,203,371.4,203.4z" />
	<path class="st34" d="M366.6,205.1c0.5,0.8,0.6,1.8,0.4,2.7C366.6,207,366.5,206,366.6,205.1z" />
	<ellipse transform="matrix(0.9905 -0.1374 0.1374 0.9905 -26.7766 53.2454)" class="st34" cx="372.2" cy="220.5" rx="2.5" ry="0.1" />
	<path class="st34" d="M355.9,155.5c0.8-0.8,2-1.2,3.1-1.1c0.4,0,0.5,0.3,0.4,0.7C358.3,155.3,357.1,155.5,355.9,155.5z" />
	<path class="st34" d="M331.1,155.6c0.1-2.3,0.3-2.5,2.6-2.8l21.3-3c0.2,1.1-0.7,1-1.3,1.1c-6.5,0.9-13,1.8-19.6,2.7
	c-1,0.1-1.9,0.3-2,1.6C332.1,155.7,331.6,155.9,331.1,155.6z" />
	<path class="st34" d="M334.7,155.8c6.2-1,12.3-2.3,18.6-2.6L334.7,155.8z" />
	<path class="st34" d="M334,159.6c-0.5-1-0.7-1.6-0.4-2.3c0-0.1,0.3-0.1,0.3-0.1C334.4,157.9,334,158.5,334,159.6z" />
	<path class="st32" d="M330.8,159.3c0.4,0.3,0.2,0.4-0.1,0.6C330.6,159.7,330.6,159.5,330.8,159.3z" />
	<path class="st34" d="M358.7,164.9l0.6,4h-0.2l-0.6-4H358.7z" />
	<path class="st32" d="M380.2,212.3c-0.5-1.1-0.7-2.3-0.5-3.5C380.2,209.9,380.3,211.1,380.2,212.3z" />
	<path class="st14" d="M376.5,175.8h0.2c0.6,0,1.2,0.1,1.8,0.3c1.6,0.3,3.1,0.8,4.5,1.5c1.5,1,2.8,2.2,3.9,3.6c1.9,2,3.1,4.6,3.4,7.4
	c0.1,1.8-0.1,2.1-1.8,2.1c-0.5,0-0.9,0.1-1.4,0.1c-4.2,0.6-8.5,1.4-12.7,2.2c-8.7,1.6-17.5,2.5-26.2,3.8c-1.9,0.3-2.2-1.9-2.3-3.3
	c-0.2-3.2,0.5-6.4,2.2-9.2c2-3.3,5.1-4.8,8.8-5.8c1.2-0.3,2.4-0.6,3.5-0.8c2.9-0.5,5.7-0.9,8.6-1.2l5.7-0.7
	C375.2,175.9,375.9,175.8,376.5,175.8z" />
	<path class="st9" d="M360.7,199.6c-2.6-1.8-5.2-0.8-6.6,2c-0.6,1.5-1.1,3-1.4,4.6c-0.3,1.6-1.1,3-1.5,4.6
	c-1.6,5.9-4.2,11.6-3.7,17.5c0.5,5.1,2.1,10.6,3.6,15.6c0.3,2.1,0.6,4.4,2.2,6.2c1.2,1.4,3.6,3.3,5.5,3.5c1.7,0.2,4.2,0,5.4-1.3
	c2.4-2.6,2.6-7.9,1.5-11.1c-1-2.8-2-5.6-3-8.4c-0.7-2-1.4-4.3-1-6.4c0.5-2.7,1.7-5.2,2.5-7.8c0.8-2.7,1.2-5.6,1.3-8.4
	C365.5,206.3,363.8,201.6,360.7,199.6z" />
	<path class="st9" d="M355,199.8c-1.6,0.8-3.5,9.2-3.4,9.5c3.6-0.5,5.3,1,6,0.6s1.1-2.3,1.2-3.1c0.3-1.2,0.5-2.5,0.3-3.8
	C358.8,201,357.3,198.6,355,199.8z" />
	<path class="st35" d="M332.1,181.4c-2.8-0.8-4.5,3-4,5.4c-2.2-0.9-6.4,0.4-5.9,3.3c0.5,3.2,4.5,4,7.2,4.3c1.7,0.2,3.5-0.4,5.2-0.1
	c0-1.7,0.8-3.4,0.9-5.1C335.5,186.4,335.2,182.3,332.1,181.4z" />
	<path class="st18" d="M331.5,163.1c0.4,0.3,0.8-0.5,1.1,0c0.1,0.1,0.1,0.3,0.1,0.4l1.4,6.4c0.2,0.8,0.3,1.7,0.3,2.5
	c-0.3,0.3-0.8,2.2-2.6,1.2C328.7,171.8,332.7,164,331.5,163.1z" />
	<path class="st9" d="M409.6,245.4c2,1,4.1,2.5,4,4.6c-0.1,2.2-2.9,3.4-5.2,3.9c-5.9,1-11.9,0.2-17.8-0.6
	c-6.4-0.9-23.2-6.1-10.2-11.7C389.4,237.7,401.5,241.4,409.6,245.4z" />
	<path class="st9" d="M384.7,250.8c1.2,1.6,2.5,3.8,1.5,5.6c-1,2-3.8,2.1-5.9,1.6c-5.3-1.2-10-4.1-14.6-7c-5-3.1-17-14.1-3.8-14.4
	C370.8,236.4,379.6,244.2,384.7,250.8z" />
	<path class="st25" d="M376,175.5c0.1-2.9-0.1-5.8-0.6-8.6c3-5.7,7.8-8.8,14-9.7c0.2,0,0.3-0.1,0.5-0.1c0.6,0.2,1.2,0.3,1.8,0.3
	c0.7,0.1,1.3,0.3,1.9,0.5c0.3,0.1,0.6,0.3,0.7,0.6s-0.4,0.4-0.7,0.5c-0.6,0.2-1.2,0.5-1.7,0.9c-0.7,1-1.8,1.6-3,1.9
	c1.4,0.7,3.1,0.6,4.5-0.3c0.3-0.2,0.7-0.4,1-0.6c0.5-0.3,1.1-0.2,1.5,0.2c0.4,0.4,0.5,0.9,0.3,1.4c-0.1,0.5-0.3,0.9-0.5,1.4
	c-0.5,1.2,0,2.6,1.1,3.3c0.3-1.5,0.9-2.9,1.8-4.2c0.6-0.9,1.1-0.9,1.9-0.3s1.2,1.3,1.8,1.9c0.3,0.3,0.5,0.9,1.1,1
	c0-1.2-0.4-2.3-1-3.3c-0.2-0.4-0.6-0.7-0.4-1.2s0.9-0.3,1.4-0.3c0.4,0.1,0.8,0.2,1.2,0.4c0.3,0.1,0.6,0.3,0.9,0
	c1.3,0.5,2.4,1.4,3.2,2.4c3.4,3.6,5.4,7.8,5.1,12.7c-0.2,4.7-2.7,9.1-6.6,11.8c-4.5,3.2-10.2,4.4-15.6,3.4l-1.1-0.2
	c-0.3-1.2-0.2-2.4-0.6-3.6c-1.2-3.8-3.6-7.1-6.7-9.5c-1.7-1.2-3.6-2-5.6-2.4L376,175.5z" />
	<path class="st36" d="M405.6,161.2c-0.3,0.3-0.6,0.1-0.9,0c-0.4-0.1-0.8-0.3-1.2-0.4c-0.5,0-1-0.2-1.4,0.3s0.2,0.8,0.4,1.2
	c0.6,1,1,2.1,1,3.3c-0.7-0.1-0.8-0.7-1.1-1c-0.6-0.6-1.2-1.3-1.8-1.9s-1.3-0.6-1.9,0.3c-0.9,1.2-1.6,2.7-1.8,4.2
	c-1.1-0.7-1.6-2.1-1.1-3.3c0.1-0.5,0.3-0.9,0.5-1.4c0.2-0.5,0.1-1-0.3-1.4c-0.4-0.4-1-0.4-1.5-0.2c-0.3,0.2-0.7,0.4-1,0.6
	c-1.3,0.9-3,1-4.5,0.3c1.2-0.3,2.3-0.9,3-1.9c0.5-0.4,1.1-0.8,1.7-0.9c0.3-0.1,0.7-0.1,0.7-0.5s-0.4-0.5-0.7-0.6
	c-0.6-0.3-1.2-0.4-1.9-0.5c-0.6,0-1.2-0.1-1.8-0.3c1.6-0.9,3.3-0.6,4.9,0c1.3,0.5,1.4,0.5,1.8-0.8c0.3-1.1,0.9-2.1,1.7-3
	c0.2-0.3,0.5-0.5,0.9-0.7c0.4-0.2,0.9-0.2,1.2,0.2c0.2,0.3-0.1,0.6-0.3,0.9c-0.3,0.5-0.6,1-0.9,1.6c-0.3,0.8-0.6,1.6,0.5,2
	c0.6,1.6,2.2,1.8,3.4,2.5C404.1,160,404.9,160.5,405.6,161.2z" />
	<path class="st25" d="M125,231.6c-2.2,0.6-4.3,1.5-6.3,2.6c-0.7,0.4-1,0.3-1.4-0.4c-0.9-1.4-2-2.8-3.2-4c-2.7-3.1-4.6-6.7-5.6-10.7
	c-0.6-2.1-0.6-4.2,0-6.3c1.4-4.1,5-5.6,8.8-3.6c2.2,1.1,3.9,2.9,4.9,5.1c0.1,0.2,0.2,0.4,0.2,0.6s0.1,0.3,0.3,0.5
	c1.3-1,2.8-1.9,4.3-2.4c1.3-0.4,2.7-0.6,4.1-0.5c3,0.1,5.3,2.6,5.2,5.6c0,0.2,0,0.3,0,0.5c-0.1,2-0.9,4-2.2,5.6
	c-1.4,1.8-3.1,3.4-5,4.7c-0.6,0.4-1.2,0.8-1.8,1.4c-0.7,0.1-1.4,0.5-2,1C125.2,231.4,125.1,231.4,125,231.6L125,231.6z" />
	<path class="st10" d="M148.2,245.5c-0.5-1.1-1-2.2-1.6-3.3c-1.3-2.2-3.3-3.9-5.7-4.8c-2.9-1.1-5.9-1.9-9-2.5
	c-1.9-0.4-9.3-0.9-11-1.3c-2.4-0.7-6.5-2-7.4-0.6c-2.2,3.2-0.9,7.9,2,10.4c2,1.8,4.3,3.2,6.8,4.2c2.5,0.9,6.4,1.4,8.9,1.9
	c2.3,0.5,2.4,1.5,3.8,3.4c1.8,2.2,3.4,4.5,4.9,6.9c1.4,2.5,1.8,5.5,1.2,8.3c-0.8,3.5-1.3,7-1.4,10.6c0,2.2,1,5,3.4,5.6
	c4,1,5.8-4.1,6.9-7c2-5.2,2.4-11.5,2.9-17C153.2,257.7,149,247,148.2,245.5z" />
	<path class="st13" d="M123,234c-2-1-4.2-1.6-6.4-1.8c-0.6-0.1-1.3-0.1-1.8,0.1c0-0.1,0-0.2-0.1,0.1c-0.7,0.8-0.9,2-0.4,3
	c0.6,0.9,1.5,1.7,2.6,2c1,0.4,2,0.7,3,1c0.5,0.2,1.1,0.3,1.6,0.3c0.7-0.1,0.7-0.6,0.7-1.2c0-0.6,0.1-1.2,0.3-1.8
	C122.8,235.2,123,234.6,123,234z" />
	<path class="st37" d="M352.2,290.7c7.6,3.8,15.7,6.4,24,8c5.4,0.9,10.6,2.6,15.9,3.4c0.5-4.4,1.1-9.8,1.9-14.2
	c-8.7-2.6-17.4-5.4-26-8.3c-4.7-1.6-9.6-3-14.3-4.5c0,1.8,0,3.6,0,5.5C353.8,283.7,352.8,287.5,352.2,290.7z" />
	<path class="st9" d="M396,286.8c0.1,0.5,0,1.1-0.2,1.5c-0.2,0.3-0.5,0.5-0.9,0.6c-2.2,0.7-4.5-0.9-6.5-2.1c-1.9-1-3.8-1.9-5.8-2.5
	c-8.5-3-17.4-4.8-26.5-5.4c-1.1,0-2.2-0.2-3.1-0.7c-1-0.6-1.3-1.8-0.8-2.8c0.6-0.6,1.4-0.9,2.2-0.8c3.2-0.3,6.3-0.4,9.5-0.5
	c5.4-0.1,10.9-0.3,16.2,0.9c3.8,1,7.5,2.4,11,4.2c1.3,0.6,3.4,1.3,4.2,2.5S395.9,285.4,396,286.8z" />
</svg>
